  0
SECTION
  2
HEADER
  9
$ACADVER
  1
AC1015
  9
$ACADMAINTVER
 70
     6
  9
$DWGCODEPAGE
  3
ANSI_1252
  9
$INSBASE
 10
0.0
 20
0.0
 30
0.0
  9
$EXTMIN
 10
-12.0
 20
-62.0
 30
0.0
  9
$EXTMAX
 10
16.0
 20
52.0
 30
0.0
  9
$LIMMIN
 10
0.0
 20
0.0
  9
$LIMMAX
 10
420.0
 20
297.0
  9
$ORTHOMODE
 70
     0
  9
$REGENMODE
 70
     1
  9
$FILLMODE
 70
     1
  9
$QTEXTMODE
 70
     0
  9
$MIRRTEXT
 70
     1
  9
$LTSCALE
 40
1.0
  9
$ATTMODE
 70
     1
  9
$TEXTSIZE
 40
3.175
  9
$TRACEWID
 40
1.0
  9
$TEXTSTYLE
  7
Standard
  9
$CLAYER
  8
0
  9
$CELTYPE
  6
ByLayer
  9
$CECOLOR
 62
   256
  9
$CELTSCALE
 40
1.0
  9
$DISPSILH
 70
     0
  9
$DIMSCALE
 40
1.0
  9
$DIMASZ
 40
3.302
  9
$DIMEXO
 40
0.0
  9
$DIMDLI
 40
3.75
  9
$DIMRND
 40
0.0
  9
$DIMDLE
 40
0.0
  9
$DIMEXE
 40
3.175
  9
$DIMTP
 40
0.0
  9
$DIMTM
 40
0.0
  9
$DIMTXT
 40
3.175
  9
$DIMCEN
 40
2.5
  9
$DIMTSZ
 40
0.0
  9
$DIMTOL
 70
     0
  9
$DIMLIM
 70
     0
  9
$DIMTIH
 70
     1
  9
$DIMTOH
 70
     1
  9
$DIMSE1
 70
     0
  9
$DIMSE2
 70
     0
  9
$DIMTAD
 70
     0
  9
$DIMZIN
 70
     1
  9
$DIMBLK
  1

  9
$DIMASO
 70
     1
  9
$DIMSHO
 70
     1
  9
$DIMPOST
  1

  9
$DIMAPOST
  1

  9
$DIMALT
 70
     0
  9
$DIMALTD
 70
     3
  9
$DIMALTF
 40
0.0393700787
  9
$DIMLFAC
 40
1.0
  9
$DIMTOFL
 70
     1
  9
$DIMTVP
 40
0.0
  9
$DIMTIX
 70
     0
  9
$DIMSOXD
 70
     0
  9
$DIMSAH
 70
     0
  9
$DIMBLK1
  1

  9
$DIMBLK2
  1

  9
$DIMSTYLE
  2
ISO-25
  9
$DIMCLRD
 70
     0
  9
$DIMCLRE
 70
     0
  9
$DIMCLRT
 70
     0
  9
$DIMTFAC
 40
1.0
  9
$DIMGAP
 40
1.524
  9
$DIMJUST
 70
     0
  9
$DIMSD1
 70
     0
  9
$DIMSD2
 70
     0
  9
$DIMTOLJ
 70
     0
  9
$DIMTZIN
 70
     1
  9
$DIMALTZ
 70
     0
  9
$DIMALTTZ
 70
     0
  9
$DIMUPT
 70
     0
  9
$DIMDEC
 70
     2
  9
$DIMTDEC
 70
     2
  9
$DIMALTU
 70
     2
  9
$DIMALTTD
 70
     3
  9
$DIMTXSTY
  7
Standard
  9
$DIMAUNIT
 70
     0
  9
$DIMADEC
 70
     2
  9
$DIMALTRND
 40
0.0
  9
$DIMAZIN
 70
     0
  9
$DIMDSEP
 70
    44
  9
$DIMATFIT
 70
     3
  9
$DIMFRAC
 70
     0
  9
$DIMLDRBLK
  1

  9
$DIMLUNIT
 70
     2
  9
$DIMLWD
 70
    -2
  9
$DIMLWE
 70
    -2
  9
$DIMTMOVE
 70
     0
  9
$LUNITS
 70
     2
  9
$LUPREC
 70
     2
  9
$SKETCHINC
 40
1.0
  9
$FILLETRAD
 40
0.0
  9
$AUNITS
 70
     0
  9
$AUPREC
 70
     2
  9
$MENU
  1
.
  9
$ELEVATION
 40
0.0
  9
$PELEVATION
 40
0.0
  9
$THICKNESS
 40
0.0
  9
$LIMCHECK
 70
     0
  9
$CHAMFERA
 40
0.0
  9
$CHAMFERB
 40
0.0
  9
$CHAMFERC
 40
0.0
  9
$CHAMFERD
 40
0.0
  9
$SKPOLY
 70
     0
  9
$TDCREATE
 40
2461097.105835289
  9
$TDUCREATE
 40
2461097.439168623
  9
$TDUPDATE
 40
2461097.105961123
  9
$TDUUPDATE
 40
2461097.439294456
  9
$TDINDWG
 40
0.0000000116
  9
$TDUSRTIMER
 40
0.0000000116
  9
$USRTIMER
 70
     1
  9
$ANGBASE
 50
0.0
  9
$ANGDIR
 70
     0
  9
$PDMODE
 70
     0
  9
$PDSIZE
 40
-1.0
  9
$PLINEWID
 40
0.0
  9
$SPLFRAME
 70
     0
  9
$SPLINETYPE
 70
     6
  9
$SPLINESEGS
 70
     8
  9
$HANDSEED
  5
FA
  9
$SURFTAB1
 70
     6
  9
$SURFTAB2
 70
     6
  9
$SURFTYPE
 70
     6
  9
$SURFU
 70
     6
  9
$SURFV
 70
     6
  9
$UCSBASE
  2

  9
$UCSNAME
  2

  9
$UCSORG
 10
0.0
 20
0.0
 30
0.0
  9
$UCSXDIR
 10
1.0
 20
0.0
 30
0.0
  9
$UCSYDIR
 10
0.0
 20
1.0
 30
0.0
  9
$UCSORTHOREF
  2

  9
$UCSORTHOVIEW
 70
     0
  9
$UCSORGTOP
 10
0.0
 20
0.0
 30
0.0
  9
$UCSORGBOTTOM
 10
0.0
 20
0.0
 30
0.0
  9
$UCSORGLEFT
 10
0.0
 20
0.0
 30
0.0
  9
$UCSORGRIGHT
 10
0.0
 20
0.0
 30
0.0
  9
$UCSORGFRONT
 10
0.0
 20
0.0
 30
0.0
  9
$UCSORGBACK
 10
0.0
 20
0.0
 30
0.0
  9
$PUCSBASE
  2

  9
$PUCSNAME
  2

  9
$PUCSORG
 10
0.0
 20
0.0
 30
0.0
  9
$PUCSXDIR
 10
1.0
 20
0.0
 30
0.0
  9
$PUCSYDIR
 10
0.0
 20
1.0
 30
0.0
  9
$PUCSORTHOREF
  2

  9
$PUCSORTHOVIEW
 70
     0
  9
$PUCSORGTOP
 10
0.0
 20
0.0
 30
0.0
  9
$PUCSORGBOTTOM
 10
0.0
 20
0.0
 30
0.0
  9
$PUCSORGLEFT
 10
0.0
 20
0.0
 30
0.0
  9
$PUCSORGRIGHT
 10
0.0
 20
0.0
 30
0.0
  9
$PUCSORGFRONT
 10
0.0
 20
0.0
 30
0.0
  9
$PUCSORGBACK
 10
0.0
 20
0.0
 30
0.0
  9
$USERI1
 70
     0
  9
$USERI2
 70
     0
  9
$USERI3
 70
     0
  9
$USERI4
 70
     0
  9
$USERI5
 70
     0
  9
$USERR1
 40
0.0
  9
$USERR2
 40
0.0
  9
$USERR3
 40
0.0
  9
$USERR4
 40
0.0
  9
$USERR5
 40
0.0
  9
$WORLDVIEW
 70
     1
  9
$SHADEDGE
 70
     3
  9
$SHADEDIF
 70
    70
  9
$TILEMODE
 70
     1
  9
$MAXACTVP
 70
    64
  9
$PINSBASE
 10
0.0
 20
0.0
 30
0.0
  9
$PLIMCHECK
 70
     0
  9
$PEXTMIN
 10
1.0000000000E+20
 20
1.0000000000E+20
 30
1.0000000000E+20
  9
$PEXTMAX
 10
-1.0000000000E+20
 20
-1.0000000000E+20
 30
-1.0000000000E+20
  9
$PLIMMIN
 10
0.0
 20
0.0
  9
$PLIMMAX
 10
420.0
 20
297.0
  9
$UNITMODE
 70
     0
  9
$VISRETAIN
 70
     1
  9
$PLINEGEN
 70
     0
  9
$PSLTSCALE
 70
     1
  9
$TREEDEPTH
 70
  3020
  9
$CMLSTYLE
  2
Standard
  9
$CMLJUST
 70
     0
  9
$CMLSCALE
 40
20.0
  9
$PROXYGRAPHICS
 70
     1
  9
$MEASUREMENT
 70
     1
  9
$CELWEIGHT
370
    -1
  9
$ENDCAPS
280
     0
  9
$JOINSTYLE
280
     0
  9
$LWDISPLAY
290
     1
  9
$INSUNITS
 70
     4
  9
$HYPERLINKBASE
  1

  9
$STYLESHEET
  1

  9
$XEDIT
290
     1
  9
$CEPSNTYPE
380
     0
  9
$PSTYLEMODE
290
     1
  9
$FINGERPRINTGUID
  2
{5fcb6011-8dd4-4919-8c04-c7c7703ba420}
  9
$VERSIONGUID
  2
{FAEB1C32-E019-11D5-929B-00C0DF256EC4}
  9
$EXTNAMES
290
     1
  9
$PSVPSCALE
 40
0.0
  9
$OLESTARTUP
290
     0
  0
ENDSEC
  0
SECTION
  2
CLASSES
  0
CLASS
  1
ACDBDICTIONARYWDFLT
  2
AcDbDictionaryWithDefault
  3
ObjectDBX Classes
 90
        0
280
     0
281
     0
  0
CLASS
  1
VISUALSTYLE
  2
AcDbVisualStyle
  3
ObjectDBX Classes
 90
     4095
280
     0
281
     0
  0
CLASS
  1
MATERIAL
  2
AcDbMaterial
  3
ObjectDBX Classes
 90
     1153
280
     0
281
     0
  0
CLASS
  1
SCALE
  2
AcDbScale
  3
ObjectDBX Classes
 90
     1153
280
     0
281
     0
  0
CLASS
  1
TABLESTYLE
  2
AcDbTableStyle
  3
ObjectDBX Classes
 90
     4095
280
     0
281
     0
  0
CLASS
  1
MLEADERSTYLE
  2
AcDbMLeaderStyle
  3
ACDB_MLEADERSTYLE_CLASS
 90
     4095
280
     0
281
     0
  0
CLASS
  1
SUN
  2
AcDbSun
  3
SCENEOE
 90
     1153
280
     0
281
     0
  0
CLASS
  1
ACDBPLACEHOLDER
  2
AcDbPlaceHolder
  3
ObjectDBX Classes
 90
        0
280
     0
281
     0
  0
CLASS
  1
LAYOUT
  2
AcDbLayout
  3
ObjectDBX Classes
 90
        0
280
     0
281
     0
  0
ENDSEC
  0
SECTION
  2
TABLES
  0
TABLE
  2
VPORT
  5
8
330
0
100
AcDbSymbolTable
 70
     1
  0
VPORT
  5
29
330
8
100
AcDbSymbolTableRecord
100
AcDbViewportTableRecord
  2
*Active
 70
     0
 10
0.0
 20
0.0
 11
1.0
 21
1.0
 12
2.0
 22
-5.0
 13
0.0
 23
0.0
 14
10.0
 24
10.0
 15
10.0
 25
10.0
 16
0.0
 26
0.0
 36
1.0
 17
0.0
 27
0.0
 37
0.0
 40
116.28
 41
0.2456140351
 42
50.0
 43
0.0
 44
0.0
 50
0.0
 51
0.0
 71
     0
 72
   100
 73
     1
 74
     3
 75
     0
 76
     0
 77
     0
 78
     0
281
     0
 65
     1
110
0.0
120
0.0
130
0.0
111
1.0
121
0.0
131
0.0
112
0.0
122
1.0
132
0.0
 79
     0
146
0.0
  0
ENDTAB
  0
TABLE
  2
LTYPE
  5
5
330
0
100
AcDbSymbolTable
 70
     6
  0
LTYPE
  5
14
330
5
100
AcDbSymbolTableRecord
100
AcDbLinetypeTableRecord
  2
ByBlock
 70
     0
  3

 72
    65
 73
     0
 40
0.0
  0
LTYPE
  5
15
330
5
100
AcDbSymbolTableRecord
100
AcDbLinetypeTableRecord
  2
ByLayer
 70
     0
  3

 72
    65
 73
     0
 40
0.0
  0
LTYPE
  5
16
330
5
100
AcDbSymbolTableRecord
100
AcDbLinetypeTableRecord
  2
Continuous
 70
     0
  3
Solid line
 72
    65
 73
     0
 40
0.0
  0
LTYPE
  5
5E
330
5
100
AcDbSymbolTableRecord
100
AcDbLinetypeTableRecord
  2
HIDDEN
 70
     0
  3
Hidden __ __ __ __ __ __ __ __ __ __ __ __ __ __
 72
    65
 73
     2
 40
1.905
 49
1.27
 74
     0
 49
-0.635
 74
     0
  0
LTYPE
  5
5F
330
5
100
AcDbSymbolTableRecord
100
AcDbLinetypeTableRecord
  2
PHANTOM
 70
     0
  3
Phantom ______  __  __  ______  __  __  ______
 72
    65
 73
     6
 40
12.7
 49
6.35
 74
     0
 49
-1.27
 74
     0
 49
1.27
 74
     0
 49
-1.27
 74
     0
 49
1.27
 74
     0
 49
-1.27
 74
     0
  0
LTYPE
  5
60
330
5
100
AcDbSymbolTableRecord
100
AcDbLinetypeTableRecord
  2
CENTER
 70
     0
  3
Center ____ _ ____ _ ____ _ ____ _ ____ _ ____
 72
    65
 73
     4
 40
10.16
 49
6.35
 74
     0
 49
-1.27
 74
     0
 49
1.27
 74
     0
 49
-1.27
 74
     0
  0
LTYPE
  5
61
330
5
100
AcDbSymbolTableRecord
100
AcDbLinetypeTableRecord
  2
CENTERX2
 70
     0
  3
Center (2x) ________  __  ________  __  _____
 72
    65
 73
     4
 40
20.32
 49
12.7
 74
     0
 49
-2.54
 74
     0
 49
2.54
 74
     0
 49
-2.54
 74
     0
  0
LTYPE
  5
62
330
5
100
AcDbSymbolTableRecord
100
AcDbLinetypeTableRecord
  2
DOT2
 70
     0
  3
Dot (.5x) ........................................
 72
    65
 73
     2
 40
0.635
 49
0.0
 74
     0
 49
-0.635
 74
     0
  0
ENDTAB
  0
TABLE
  2
LAYER
  5
2
330
0
100
AcDbSymbolTable
 70
     1
  0
LAYER
  5
10
330
2
100
AcDbSymbolTableRecord
100
AcDbLayerTableRecord
  2
0
 70
     0
 62
     7
  6
Continuous
370
    -3
390
F
  0
ENDTAB
  0
TABLE
  2
STYLE
  5
3
330
0
100
AcDbSymbolTable
 70
     1
  0
STYLE
  5
11
330
3
100
AcDbSymbolTableRecord
100
AcDbTextStyleTableRecord
  2
Standard
 70
     0
 40
0.0
 41
1.0
 50
0.0
 71
     0
 42
3.175
  3
txt
  4

  0
ENDTAB
  0
TABLE
  2
VIEW
  5
6
330
0
100
AcDbSymbolTable
 70
     0
  0
ENDTAB
  0
TABLE
  2
UCS
  5
7
330
0
100
AcDbSymbolTable
 70
     0
  0
ENDTAB
  0
TABLE
  2
APPID
  5
9
330
0
100
AcDbSymbolTable
 70
     1
  0
APPID
  5
12
330
9
100
AcDbSymbolTableRecord
100
AcDbRegAppTableRecord
  2
ACAD
 70
     0
  0
ENDTAB
  0
TABLE
  2
DIMSTYLE
  5
A
330
0
100
AcDbSymbolTable
 70
     1
100
AcDbDimStyleTable
  0
DIMSTYLE
105
27
330
A
100
AcDbSymbolTableRecord
100
AcDbDimStyleTableRecord
  2
ISO-25
 70
     0
 41
2.5
 42
0.625
 43
3.75
 44
1.25
 73
     0
 74
     0
 77
     1
 78
     8
140
2.5
141
2.5
143
0.0393700787
147
0.625
171
     3
172
     1
178
     0
271
     2
272
     2
274
     3
278
    44
283
     0
284
     8
340
11
  0
ENDTAB
  0
TABLE
  2
BLOCK_RECORD
  5
1
330
0
100
AcDbSymbolTable
 70
     1
  0
BLOCK_RECORD
  5
1F
330
1
100
AcDbSymbolTableRecord
100
AcDbBlockTableRecord
  2
*Model_Space
340
22
  0
BLOCK_RECORD
  5
1B
330
1
100
AcDbSymbolTableRecord
100
AcDbBlockTableRecord
  2
*Paper_Space
340
1E
  0
BLOCK_RECORD
  5
23
330
1
100
AcDbSymbolTableRecord
100
AcDbBlockTableRecord
  2
*Paper_Space0
340
26
  0
ENDTAB
  0
ENDSEC
  0
SECTION
  2
BLOCKS
  0
BLOCK
  5
20
330
1F
100
AcDbEntity
  8
0
100
AcDbBlockBegin
  2
*Model_Space
 70
     0
 10
0.0
 20
0.0
 30
0.0
  3
*Model_Space
  1

  0
ENDBLK
  5
21
330
1F
100
AcDbEntity
  8
0
100
AcDbBlockEnd
  0
BLOCK
  5
1C
330
1B
100
AcDbEntity
 67
     1
  8
0
100
AcDbBlockBegin
  2
*Paper_Space
 70
     0
 10
0.0
 20
0.0
 30
0.0
  3
*Paper_Space
  1

  0
ENDBLK
  5
1D
330
1B
100
AcDbEntity
 67
     1
  8
0
100
AcDbBlockEnd
  0
BLOCK
  5
24
330
23
100
AcDbEntity
  8
0
100
AcDbBlockBegin
  2
*Paper_Space0
 70
     0
 10
0.0
 20
0.0
 30
0.0
  3
*Paper_Space0
  1

  0
ENDBLK
  5
25
330
23
100
AcDbEntity
  8
0
100
AcDbBlockEnd
  0
ENDSEC
  0
SECTION
  2
ENTITIES
  0
SPLINE
  5
7D
330
1F
100
AcDbEntity
  8
0
  6
Continuous
 62
     7
370
    25
100
AcDbSpline
210
0.0
220
0.0
230
1.0
 70
     8
 71
     3
 72
    23
 73
    19
 74
     0
 42
0.00000001
 43
0.00000001
 40
0.0
 40
0.0
 40
0.0
 40
0.0
 40
0.059474723912051
 40
0.1178424724048849
 40
0.1752600400223467
 40
0.233122401261829
 40
0.2918123848707432
 40
0.3518051122882093
 40
0.4137774879960677
 40
0.4786553137725444
 40
0.5438051018181036
 40
0.6082255810443279
 40
0.6715107409449957
 40
0.735065404936357
 40
0.7988437857396481
 40
0.8642268570530788
 40
0.9308039256660088
 40
1.0
 40
1.0
 40
1.0
 40
1.0
 10
5.049999999999984
 20
-31.53004807692308
 30
0.0
 10
5.048449227864404
 20
-31.58384385300969
 30
0.0
 10
5.045376547394903
 20
-31.69043412938257
 30
0.0
 10
5.018846347789816
 20
-31.84703479132111
 30
0.0
 10
4.97865371412456
 20
-31.99907842257153
 30
0.0
 10
4.918458274820051
 20
-32.1447563026376
 30
0.0
 10
4.844108356711697
 20
-32.28623308667878
 30
0.0
 10
4.751907868942556
 20
-32.42144708919829
 30
0.0
 10
4.64263833139833
 20
-32.55055302264074
 30
0.0
 10
4.519005122454726
 20
-32.67262949945157
 30
0.0
 10
4.383991335062749
 20
-32.7855492732149
 30
0.0
 10
4.239756168952909
 20
-32.88389195187525
 30
0.0
 10
4.088432593143974
 20
-32.96812373548273
 30
0.0
 10
3.929248602675611
 20
-33.03480219817079
 30
0.0
 10
3.763272279719524
 20
-33.08841142623475
 30
0.0
 10
3.590267571926994
 20
-33.12652450005022
 30
0.0
 10
3.409633570643655
 20
-33.15020678110172
 30
0.0
 10
3.286853214461908
 20
-33.15261752883458
 30
0.0
 10
3.22427884615383
 20
-33.15384615384616
 30
0.0
  0
SPLINE
  5
7E
330
1F
100
AcDbEntity
  8
0
  6
Continuous
 62
     7
370
    25
100
AcDbSpline
210
0.0
220
0.0
230
1.0
 70
     8
 71
     3
 72
    23
 73
    19
 74
     0
 42
0.00000001
 43
0.00000001
 40
0.0
 40
0.0
 40
0.0
 40
0.0
 40
0.09862643163681
 40
0.1903962130715443
 40
0.2764204380790027
 40
0.3564189759862742
 40
0.4298509125057414
 40
0.4975394949985059
 40
0.5600000438623469
 40
0.616870403247706
 40
0.669969696013558
 40
0.7210890081531228
 40
0.7704377207694453
 40
0.818248482968261
 40
0.864635824151966
 40
0.9104151917920097
 40
0.9551629176251418
 40
1.0
 40
1.0
 40
1.0
 40
1.0
 10
3.55240384615383
 20
-29.59375
 30
0.0
 10
3.621596993947507
 20
-29.64102458796949
 30
0.0
 10
3.755172883207387
 20
-29.73228716712327
 30
0.0
 10
3.944508817267812
 20
-29.87130388480607
 30
0.0
 10
4.117777943008547
 20
-30.00534197714696
 30
0.0
 10
4.273808856399767
 20
-30.13597168939615
 30
0.0
 10
4.412992447050235
 20
-30.26227651216555
 30
0.0
 10
4.534620737659481
 20
-30.38532871243402
 30
0.0
 10
4.641226016392205
 20
-30.50333412634416
 30
0.0
 10
4.729681519236242
 20
-30.62031974416382
 30
0.0
 10
4.805047440774671
 20
-30.73464914600334
 30
0.0
 10
4.870275255074598
 20
-30.84775243954635
 30
0.0
 10
4.925755746157429
 20
-30.96096904317465
 30
0.0
 10
4.971841978924545
 20
-31.07399194606884
 30
0.0
 10
5.007403576954506
 20
-31.18771430547443
 30
0.0
 10
5.030287013053719
 20
-31.30184329218448
 30
0.0
 10
5.04769494018224
 20
-31.41574050004729
 30
0.0
 10
5.04923113596691
 20
-31.49192022276014
 30
0.0
 10
5.049999999999984
 20
-31.53004807692308
 30
0.0
  0
SPLINE
  5
7F
330
1F
100
AcDbEntity
  8
0
  6
Continuous
 62
     7
370
    25
100
AcDbSpline
210
0.0
220
0.0
230
1.0
 70
     8
 71
     3
 72
    15
 73
    11
 74
     0
 42
0.00000001
 43
0.00000001
 40
0.0
 40
0.0
 40
0.0
 40
0.0
 40
0.0524295803161908
 40
0.1248697861843314
 40
0.2173932218486703
 40
0.3332479492051104
 40
0.4682843154063607
 40
0.6244098568067603
 40
0.8013294934645981
 40
1.0
 40
1.0
 40
1.0
 40
1.0
 10
2.699038461538446
 20
-28.99639423076923
 30
0.0
 10
2.712966042721918
 20
-29.00813128954694
 30
0.0
 10
2.746136899210886
 20
-29.03608505173932
 30
0.0
 10
2.806696170232494
 20
-29.08124166117358
 30
0.0
 10
2.885809599280029
 20
-29.13827582614879
 30
0.0
 10
2.983312923507183
 20
-29.2069885273459
 30
0.0
 10
3.099009797989601
 20
-29.2882328953625
 30
0.0
 10
3.233964293244808
 20
-29.37890511418772
 30
0.0
 10
3.386651895849655
 20
-29.48279690718581
 30
0.0
 10
3.49506050573564
 20
-29.55536480477292
 30
0.0
 10
3.55240384615383
 20
-29.59375
 30
0.0
  0
SPLINE
  5
80
330
1F
100
AcDbEntity
  8
0
  6
Continuous
 62
     7
370
    25
100
AcDbSpline
210
0.0
220
0.0
230
1.0
 70
     8
 71
     3
 72
    15
 73
    11
 74
     0
 42
0.00000001
 43
0.00000001
 40
0.0
 40
0.0
 40
0.0
 40
0.0
 40
0.1059145945503978
 40
0.2119280515316694
 40
0.3193810412008432
 40
0.4300755108819445
 40
0.5490634362126036
 40
0.6830490104202934
 40
0.8327299213409353
 40
1.0
 40
1.0
 40
1.0
 40
1.0
 10
2.280769230769215
 20
-28.22115384615385
 30
0.0
 10
2.282002384242889
 20
-28.25328007178338
 30
0.0
 10
2.284469842236045
 20
-28.31756251019174
 30
0.0
 10
2.302127219263467
 20
-28.41308123507111
 30
0.0
 10
2.329642283605115
 20
-28.50762154907419
 30
0.0
 10
2.370251819491732
 20
-28.60169999304009
 30
0.0
 10
2.42537750514748
 20
-28.69753815908246
 30
0.0
 10
2.500052761041998
 20
-28.79445514822633
 30
0.0
 10
2.592057201536052
 20
-28.89576904915554
 30
0.0
 10
2.66208268875323
 20
-28.96163411158477
 30
0.0
 10
2.699038461538446
 20
-28.99639423076923
 30
0.0
  0
SPLINE
  5
81
330
1F
100
AcDbEntity
  8
0
  6
Continuous
 62
     7
370
    25
100
AcDbSpline
210
0.0
220
0.0
230
1.0
 70
     8
 71
     3
 72
    19
 73
    15
 74
     0
 42
0.00000001
 43
0.00000001
 40
0.0
 40
0.0
 40
0.0
 40
0.0
 40
0.1466860475594867
 40
0.282362824497722
 40
0.4106360519854726
 40
0.5371564070074987
 40
0.5994275816444558
 40
0.6579616869902656
 40
0.7157891172712936
 40
0.772040648686557
 40
0.8283995646057009
 40
0.8841544634781415
 40
0.9415761803957701
 40
1.0
 40
1.0
 40
1.0
 40
1.0
 10
3.209855769230753
 20
-27.46153846153846
 30
0.0
 10
3.144282052404837
 20
-27.46360531530062
 30
0.0
 10
3.018056142007526
 20
-27.46758389864796
 30
0.0
 10
2.838840102896097
 20
-27.51120201934795
 30
0.0
 10
2.67766700229943
 20
-27.57976810709604
 30
0.0
 10
2.560856031411215
 20
-27.66127294021384
 30
0.0
 10
2.479068845625406
 20
-27.73564778195805
 30
0.0
 10
2.426973260877184
 20
-27.79609480277598
 30
0.0
 10
2.380365580250166
 20
-27.85767673191427
 30
0.0
 10
2.344757057332669
 20
-27.92508804423279
 30
0.0
 10
2.314935780932142
 20
-27.9942872812472
 30
0.0
 10
2.296864114077155
 20
-28.06789762035242
 30
0.0
 10
2.282035756050403
 20
-28.14324034224855
 30
0.0
 10
2.281193833500282
 20
-28.1950333359386
 30
0.0
 10
2.280769230769215
 20
-28.22115384615385
 30
0.0
  0
SPLINE
  5
82
330
1F
100
AcDbEntity
  8
0
  6
Continuous
 62
     7
370
    25
100
AcDbSpline
210
0.0
220
0.0
230
1.0
 70
     8
 71
     3
 72
    19
 73
    15
 74
     0
 42
0.00000001
 43
0.00000001
 40
0.0
 40
0.0
 40
0.0
 40
0.0
 40
0.0938745500093409
 40
0.1819016444724117
 40
0.263569768437555
 40
0.339536881583192
 40
0.4100082519953548
 40
0.4743768629842256
 40
0.5336692171265894
 40
0.5872016069711797
 40
0.6888190448069882
 40
0.7904001771439292
 40
0.8942017817153731
 40
1.0
 40
1.0
 40
1.0
 40
1.0
 10
4.4466346153846
 20
-28.15384615384615
 30
0.0
 10
4.415531625477503
 20
-28.12005655090747
 30
0.0
 10
4.355263054160287
 20
-28.05458210293403
 30
0.0
 10
4.265536375292196
 20
-27.96192742715931
 30
0.0
 10
4.178510013812672
 20
-27.87903539608162
 30
0.0
 10
4.09614745754371
 20
-27.80364183611
 30
0.0
 10
4.015249716350378
 20
-27.73963211229598
 30
0.0
 10
3.939868684090514
 20
-27.68174872178323
 30
0.0
 10
3.866419824997195
 20
-27.63555417112643
 30
0.0
 10
3.775257553647642
 20
-27.58352231564773
 30
0.0
 10
3.659072834888853
 20
-27.53463227519663
 30
0.0
 10
3.514802208744751
 20
-27.49208335806777
 30
0.0
 10
3.364222246054821
 20
-27.46630483230126
 30
0.0
 10
3.261636998282763
 20
-27.463137309561
 30
0.0
 10
3.209855769230753
 20
-27.46153846153846
 30
0.0
  0
SPLINE
  5
84
330
1F
100
AcDbEntity
  8
0
  6
Continuous
 62
     7
370
    25
100
AcDbSpline
210
0.0
220
0.0
230
1.0
 70
     8
 71
     3
 72
    19
 73
    15
 74
     0
 42
0.00000001
 43
0.00000001
 40
0.0
 40
0.0
 40
0.0
 40
0.0
 40
0.111965164064176
 40
0.2224499061208846
 40
0.3310174741162746
 40
0.4410101474960072
 40
0.4981857505527924
 40
0.558078741383412
 40
0.6219722061739851
 40
0.6896946436022754
 40
0.7608861757226816
 40
0.836182118463319
 40
0.9161331195884772
 40
1.0
 40
1.0
 40
1.0
 40
1.0
 10
3.254326923076908
 20
-26.84615384615385
 30
0.0
 10
3.330219819778277
 20
-26.84822677832868
 30
0.0
 10
3.481002144687702
 20
-26.85234523402464
 30
0.0
 10
3.702348050762488
 20
-26.89254416410937
 30
0.0
 10
3.916554107740983
 20
-26.95528172873391
 30
0.0
 10
4.088674930252002
 20
-27.02894361570135
 30
0.0
 10
4.224347176672943
 20
-27.10159176888011
 30
0.0
 10
4.326975831453877
 20
-27.16882963156847
 30
0.0
 10
4.431167447984431
 20
-27.24610586761353
 30
0.0
 10
4.538377411847182
 20
-27.33207014023343
 30
0.0
 10
4.645343470304435
 20
-27.43020619831961
 30
0.0
 10
4.753534472251026
 20
-27.53892310303454
 30
0.0
 10
4.863924088229359
 20
-27.65746752351207
 30
0.0
 10
4.936117411822629
 20
-27.74172168748311
 30
0.0
 10
4.973076923076907
 20
-27.78485576923077
 30
0.0
  0
SPLINE
  5
85
330
1F
100
AcDbEntity
  8
0
  6
Continuous
 62
     7
370
    25
100
AcDbSpline
210
0.0
220
0.0
230
1.0
 70
     8
 71
     3
 72
    19
 73
    15
 74
     0
 42
0.00000001
 43
0.00000001
 40
0.0
 40
0.0
 40
0.0
 40
0.0
 40
0.0806630039999965
 40
0.1597723876888519
 40
0.2379201750991723
 40
0.3172211329830409
 40
0.3972821839195146
 40
0.4783109356569007
 40
0.5601043369178561
 40
0.6458895263455378
 40
0.7332936872186113
 40
0.8209541680017345
 40
0.9092029758141086
 40
1.0
 40
1.0
 40
1.0
 40
1.0
 10
1.665384615384599
 20
-28.24639423076923
 30
0.0
 10
1.667965465352326
 20
-28.18289921093649
 30
0.0
 10
1.673077456490301
 20
-28.05713212538353
 30
0.0
 10
1.712697496343873
 20
-27.87324553369346
 30
0.0
 10
1.77711383678614
 20
-27.69811385391617
 30
0.0
 10
1.86609531216014
 20
-27.5330153059979
 30
0.0
 10
1.97992017701546
 20
-27.3812290916193
 30
0.0
 10
2.114643568240655
 20
-27.24480970569502
 30
0.0
 10
2.271581891220093
 20
-27.12711665007676
 30
0.0
 10
2.445905340411287
 20
-27.02687644011076
 30
0.0
 10
2.635511548480668
 20
-26.94727123920335
 30
0.0
 10
2.834229150608176
 20
-26.88725908077346
 30
0.0
 10
3.042043834733238
 20
-26.85354351811401
 30
0.0
 10
3.182897673553096
 20
-26.84864033118881
 30
0.0
 10
3.254326923076907
 20
-26.84615384615385
 30
0.0
  0
SPLINE
  5
86
330
1F
100
AcDbEntity
  8
0
  6
Continuous
 62
     7
370
    25
100
AcDbSpline
210
0.0
220
0.0
230
1.0
 70
     8
 71
     3
 72
    15
 73
    11
 74
     0
 42
0.00000001
 43
0.00000001
 40
0.0
 40
0.0
 40
0.0
 40
0.0
 40
0.1352502193667171
 40
0.2651585597661048
 40
0.3914924334735649
 40
0.515759979810137
 40
0.6365429147358471
 40
0.7574392468830056
 40
0.8785501457517992
 40
1.0
 40
1.0
 40
1.0
 40
1.0
 10
2.019951923076907
 20
-29.15985576923077
 30
0.0
 10
1.991757929257774
 20
-29.12460530846995
 30
0.0
 10
1.936483499167087
 20
-29.05549664860826
 30
0.0
 10
1.864233199187704
 20
-28.94653940844321
 30
0.0
 10
1.801695718716804
 20
-28.83582580300311
 30
0.0
 10
1.753776494057266
 20
-28.72141138524221
 30
0.0
 10
1.712366205813874
 20
-28.60643096191968
 30
0.0
 10
1.685042801632652
 20
-28.48825113035257
 30
0.0
 10
1.669466151077184
 20
-28.36780636839551
 30
0.0
 10
1.666746394148579
 20
-28.28690262838271
 30
0.0
 10
1.665384615384599
 20
-28.24639423076923
 30
0.0
  0
SPLINE
  5
87
330
1F
100
AcDbEntity
  8
0
  6
Continuous
 62
     7
370
    25
100
AcDbSpline
210
0.0
220
0.0
230
1.0
 70
     8
 71
     3
 72
    15
 73
    11
 74
     0
 42
0.00000001
 43
0.00000001
 40
0.0
 40
0.0
 40
0.0
 40
0.0
 40
0.182070466464426
 40
0.3478633822219246
 40
0.497115649115649
 40
0.6296796782377565
 40
0.7470653892917769
 40
0.8466884584362876
 40
0.9313256208644195
 40
1.0
 40
1.0
 40
1.0
 40
1.0
 10
3.060817307692292
 20
-29.97596153846154
 30
0.0
 10
2.994066181493559
 20
-29.93104077076752
 30
0.0
 10
2.866531645126835
 20
-29.84521526328414
 30
0.0
 10
2.688107624377942
 20
-29.71706242396495
 30
0.0
 10
2.527660975940623
 20
-29.60137454031942
 30
0.0
 10
2.387983720355262
 20
-29.49361472551379
 30
0.0
 10
2.266962690176108
 20
-29.39758692771749
 30
0.0
 10
2.165978626571225
 20
-29.31054132457532
 30
0.0
 10
2.085139268481945
 20
-29.23319261441193
 30
0.0
 10
2.040118519494758
 20
-29.18254352480875
 30
0.0
 10
2.019951923076907
 20
-29.15985576923077
 30
0.0
  0
SPLINE
  5
88
330
1F
100
AcDbEntity
  8
0
  6
Continuous
 62
     7
370
    25
100
AcDbSpline
210
0.0
220
0.0
230
1.0
 70
     8
 71
     3
 72
    15
 73
    11
 74
     0
 42
0.00000001
 43
0.00000001
 40
0.0
 40
0.0
 40
0.0
 40
0.0
 40
0.0893452991489832
 40
0.1880532852476538
 40
0.2969968295551161
 40
0.4169648316504909
 40
0.5464834278152079
 40
0.6866868686519728
 40
0.837824473679321
 40
1.0
 40
1.0
 40
1.0
 40
1.0
 10
4.207451923076907
 20
-30.93269230769231
 30
0.0
 10
4.17901436909508
 20
-30.89827936504429
 30
0.0
 10
4.11915922840354
 20
-30.82584727313079
 30
0.0
 10
4.016052169243247
 20
-30.71897757138552
 30
0.0
 10
3.896339867349198
 20
-30.60735201296864
 30
0.0
 10
3.761162127307851
 20
-30.48986472743986
 30
0.0
 10
3.608644268728538
 20
-30.36885328041206
 30
0.0
 10
3.441720286658612
 20
-30.24103778339552
 30
0.0
 10
3.257646890690053
 20
-30.10890892743672
 30
0.0
 10
3.127950226013936
 20
-30.02130607493423
 30
0.0
 10
3.060817307692292
 20
-29.97596153846154
 30
0.0
  0
SPLINE
  5
89
330
1F
100
AcDbEntity
  8
0
  6
Continuous
 62
     7
370
    25
100
AcDbSpline
210
0.0
220
0.0
230
1.0
 70
     8
 71
     3
 72
    11
 73
     7
 74
     0
 42
0.00000001
 43
0.00000001
 40
0.0
 40
0.0
 40
0.0
 40
0.0
 40
0.2329572529827213
 40
0.4738909267476675
 40
0.7256200371638679
 40
1.0
 40
1.0
 40
1.0
 40
1.0
 10
4.434615384615369
 20
-31.52163461538462
 30
0.0
 10
4.43164511665786
 20
-31.47167894010784
 30
0.0
 10
4.425602879221376
 20
-31.37005711485833
 30
0.0
 10
4.38142365557779
 20
-31.21970417662942
 30
0.0
 10
4.308969687535224
 20
-31.07129232856123
 30
0.0
 10
4.242248702524867
 20
-30.9801996024342
 30
0.0
 10
4.207451923076907
 20
-30.93269230769231
 30
0.0
  0
SPLINE
  5
8A
330
1F
100
AcDbEntity
  8
0
  6
Continuous
 62
     7
370
    25
100
AcDbSpline
210
0.0
220
0.0
230
1.0
 70
     8
 71
     3
 72
    19
 73
    15
 74
     0
 42
0.00000001
 43
0.00000001
 40
0.0
 40
0.0
 40
0.0
 40
0.0
 40
0.0931111788690046
 40
0.1846127194978048
 40
0.274864592471441
 40
0.3658713628119419
 40
0.4548741391842033
 40
0.5398599793736287
 40
0.6204980539980456
 40
0.6999156647238275
 40
0.7777097651194347
 40
0.8527087076546706
 40
0.9258163547133361
 40
1.0
 40
1.0
 40
1.0
 40
1.0
 10
3.206249999999984
 20
-32.53846153846154
 30
0.0
 10
3.261252396557416
 20
-32.53698746539016
 30
0.0
 10
3.370306348303099
 20
-32.53406480194899
 30
0.0
 10
3.530661822136153
 20
-32.5063526851736
 30
0.0
 10
3.686108728660374
 20
-32.46333383322777
 30
0.0
 10
3.83373784229499
 20
-32.40196702280411
 30
0.0
 10
3.971701838257541
 20
-32.32754961972076
 30
0.0
 10
4.093539962750022
 20
-32.2386829973609
 30
0.0
 10
4.197580320855285
 20
-32.13748093731181
 30
0.0
 10
4.282960035403134
 20
-32.02542353260153
 30
0.0
 10
4.350261793235623
 20
-31.90547635431562
 30
0.0
 10
4.398653326951123
 20
-31.78087063591779
 30
0.0
 10
4.429270431374335
 20
-31.65251307595499
 30
0.0
 10
4.432825077686982
 20
-31.56547271913769
 30
0.0
 10
4.434615384615369
 20
-31.52163461538462
 30
0.0
  0
SPLINE
  5
8B
330
1F
100
AcDbEntity
  8
0
  6
Continuous
 62
     7
370
    25
100
AcDbSpline
210
0.0
220
0.0
230
1.0
 70
     8
 71
     3
 72
    15
 73
    11
 74
     0
 42
0.00000001
 43
0.00000001
 40
0.0
 40
0.0
 40
0.0
 40
0.0
 40
0.1566276940325709
 40
0.3012976129916513
 40
0.434433763876646
 40
0.557523124943535
 40
0.6735861775874066
 40
0.7838743651431725
 40
0.8917023767442317
 40
1.0
 40
1.0
 40
1.0
 40
1.0
 10
1.830048076923061
 20
-31.53846153846154
 30
0.0
 10
1.879052716588519
 20
-31.61759122546538
 30
0.0
 10
1.973320726137635
 20
-31.76980942645653
 30
0.0
 10
2.132871546638367
 20
-31.97320739764875
 30
0.0
 10
2.296264563492701
 20
-32.14682362500371
 30
0.0
 10
2.465469230101118
 20
-32.29008699206472
 30
0.0
 10
2.642007994661428
 20
-32.4006785523528
 30
0.0
 10
2.82448351776897
 20
-32.48021858593308
 30
0.0
 10
3.013356274740592
 20
-32.5295652313202
 30
0.0
 10
3.141859018576288
 20
-32.5354918101974
 30
0.0
 10
3.206249999999984
 20
-32.53846153846154
 30
0.0
  0
SPLINE
  5
8D
330
1F
100
AcDbEntity
  8
0
  6
Continuous
 62
     7
370
    25
100
AcDbSpline
210
0.0
220
0.0
230
1.0
 70
     8
 71
     3
 72
    23
 73
    19
 74
     0
 42
0.00000001
 43
0.00000001
 40
0.0
 40
0.0
 40
0.0
 40
0.0
 40
0.0588478562519661
 40
0.1160176060117855
 40
0.172674649466897
 40
0.2287911518785927
 40
0.2844383349348162
 40
0.340491645439062
 40
0.3963591806761945
 40
0.4532160438614834
 40
0.5111962868414187
 40
0.5720049245033102
 40
0.6349274633586084
 40
0.7009771860410292
 40
0.7703710143538346
 40
0.8433834607203975
 40
0.9195555307293392
 40
1.0
 40
1.0
 40
1.0
 40
1.0
 10
3.22427884615383
 20
-33.15384615384616
 30
0.0
 10
3.175756340407542
 20
-33.15299951664547
 30
0.0
 10
3.08009499753255
 20
-33.15133038496524
 30
0.0
 10
2.938497505570951
 20
-33.13572739141292
 30
0.0
 10
2.799992538273913
 20
-33.11406392513171
 30
0.0
 10
2.665379287169681
 20
-33.07948164733213
 30
0.0
 10
2.533514485163275
 20
-33.03751709011183
 30
0.0
 10
2.405117764693887
 20
-32.98617961064471
 30
0.0
 10
2.280566602286658
 20
-32.92396427083938
 30
0.0
 10
2.158751638972266
 20
-32.85331961460076
 30
0.0
 10
2.039797762418945
 20
-32.77051545787536
 30
0.0
 10
1.923639794892363
 20
-32.67575879415261
 30
0.0
 10
1.810012709080749
 20
-32.56802834038177
 30
0.0
 10
1.699879082793547
 20
-32.44706361006242
 30
0.0
 10
1.59002312626727
 20
-32.31486196922187
 30
0.0
 10
1.483488510191502
 20
-32.16944653860277
 30
0.0
 10
1.379726410578555
 20
-32.01105324635669
 30
0.0
 10
1.314349438070982
 20
-31.89972875377647
 30
0.0
 10
1.280769230769215
 20
-31.84254807692308
 30
0.0
  0
SPLINE
  5
8E
330
1F
100
AcDbEntity
  8
0
  6
Continuous
 62
     7
370
    25
100
AcDbSpline
210
0.0
220
0.0
230
1.0
 70
     8
 71
     3
 72
    31
 73
    27
 74
     0
 42
0.00000001
 43
0.00000001
 40
0.0
 40
0.0
 40
0.0
 40
0.0
 40
0.0439522435205041
 40
0.0866547741349299
 40
0.1282384302182707
 40
0.1690934342296627
 40
0.2092887249103023
 40
0.2492052107281207
 40
0.2887326321552295
 40
0.3281779197049738
 40
0.3671766953523268
 40
0.4051755707058091
 40
0.4427332650916168
 40
0.4791750892158327
 40
0.5157034846303715
 40
0.5516599518065048
 40
0.5877620081645835
 40
0.6242107965079782
 40
0.6618524959068934
 40
0.7015848641111391
 40
0.7440987593827827
 40
0.7891849093806727
 40
0.8372148903335298
 40
0.8882825063705064
 40
0.9425188505567156
 40
0.9999999999999999
 40
0.9999999999999999
 40
0.9999999999999999
 40
0.9999999999999999
 10
-1.596153846153863
 20
-30.07572115384615
 30
0.0
 10
-1.597056394535834
 20
-30.14989281867611
 30
0.0
 10
-1.598835828756275
 20
-30.29612719372123
 30
0.0
 10
-1.620463405328196
 20
-30.51162019447953
 30
0.0
 10
-1.652813555582736
 20
-30.72029355221575
 30
0.0
 10
-1.696478434002496
 20
-30.92271211408514
 30
0.0
 10
-1.756031417598946
 20
-31.11812548354071
 30
0.0
 10
-1.828247454068417
 20
-31.30672311220188
 30
0.0
 10
-1.912142433230117
 20
-31.48912321355349
 30
0.0
 10
-2.010076849838201
 20
-31.66255170257245
 30
0.0
 10
-2.115969216059868
 20
-31.82816482902746
 30
0.0
 10
-2.232392797745078
 20
-31.98261467222306
 30
0.0
 10
-2.355206879266264
 20
-32.1263596519346
 30
0.0
 10
-2.486512461702282
 20
-32.25899857513814
 30
0.0
 10
-2.625319496966394
 20
-32.37964195170943
 30
0.0
 10
-2.771689571083705
 20
-32.4900601999334
 30
0.0
 10
-2.926075700331031
 20
-32.5887170519573
 30
0.0
 10
-3.089608820765056
 20
-32.67747679083613
 30
0.0
 10
-3.265536606937873
 20
-32.75496025121708
 30
0.0
 10
-3.456835335821073
 20
-32.82128469111155
 30
0.0
 10
-3.664842195975321
 20
-32.87555286328698
 30
0.0
 10
-3.889148024244582
 20
-32.92112781659082
 30
0.0
 10
-4.129818496576721
 20
-32.95723022852153
 30
0.0
 10
-4.387421643571249
 20
-32.98151012267105
 30
0.0
 10
-4.661648284604212
 20
-32.99781440261581
 30
0.0
 10
-4.850134837142416
 20
-32.99925749611474
 30
0.0
 10
-4.9471153846154
 20
-33.0
 30
0.0
  0
SPLINE
  5
8F
330
1F
100
AcDbEntity
  8
0
  6
Continuous
 62
     7
370
    25
100
AcDbSpline
210
0.0
220
0.0
230
1.0
 70
     8
 71
     3
 72
    23
 73
    19
 74
     0
 42
0.00000001
 43
0.00000001
 40
0.0
 40
0.0
 40
0.0
 40
0.0
 40
0.064442329496936
 40
0.1273725572380827
 40
0.1888823631338769
 40
0.2492142614757731
 40
0.3094198785185155
 40
0.3690630359625484
 40
0.4294575473049815
 40
0.490340441125457
 40
0.551670697804038
 40
0.6128488119356612
 40
0.6744116235899701
 40
0.7364844907228043
 40
0.7998574326635756
 40
0.8648214802062446
 40
0.9314218170584578
 40
1.0
 40
1.0
 40
1.0
 40
1.0
 10
-3.573317307692324
 20
-27.21634615384615
 30
0.0
 10
-3.497541782664845
 20
-27.24281813703595
 30
0.0
 10
-3.347768761202807
 20
-27.29514095373686
 30
0.0
 10
-3.133576513349396
 20
-27.39310460423362
 30
0.0
 10
-2.932450865012568
 20
-27.50515436397739
 30
0.0
 10
-2.743223283110928
 20
-27.63047098121083
 30
0.0
 10
-2.568467818845212
 20
-27.77154095457205
 30
0.0
 10
-2.404314841593917
 20
-27.92491970745125
 30
0.0
 10
-2.254519347947205
 20
-28.09354110512249
 30
0.0
 10
-2.117217800838865
 20
-28.27506453579855
 30
0.0
 10
-1.995278638214729
 20
-28.46838658271313
 30
0.0
 10
-1.887387786889848
 20
-28.6708483443497
 30
0.0
 10
-1.797315213813888
 20
-28.88291382145703
 30
0.0
 10
-1.723968052481928
 20
-29.10411627907082
 30
0.0
 10
-1.66593509678665
 20
-29.33422006180485
 30
0.0
 10
-1.625528606433671
 20
-29.57375340106958
 30
0.0
 10
-1.601126175482108
 20
-29.82200758299622
 30
0.0
 10
-1.597827377899029
 20
-29.99032903941298
 30
0.0
 10
-1.596153846153863
 20
-30.07572115384615
 30
0.0
  0
SPLINE
  5
90
330
1F
100
AcDbEntity
  8
0
  6
Continuous
 62
     7
370
    25
100
AcDbSpline
210
0.0
220
0.0
230
1.0
 70
     8
 71
     3
 72
    15
 73
    11
 74
     0
 42
0.00000001
 43
0.00000001
 40
0.0
 40
0.0
 40
0.0
 40
0.0
 40
0.1648114935750209
 40
0.3182377354518929
 40
0.45980567063931
 40
0.5902053208331048
 40
0.7089498205863162
 40
0.8168529406126414
 40
0.9136158466975608
 40
1.0
 40
1.0
 40
1.0
 40
1.0
 10
-5.655048076923094
 20
-27.0
 30
0.0
 10
-5.539657164421272
 20
-27.00075736177401
 30
0.0
 10
-5.316846595268876
 20
-27.00221976643189
 30
0.0
 10
-4.995020598101844
 20
-27.01151734317206
 30
0.0
 10
-4.697589689867571
 20
-27.02792376163451
 30
0.0
 10
-4.425059537079643
 20
-27.05197204936211
 30
0.0
 10
-4.176730601712754
 20
-27.08125723769107
 30
0.0
 10
-3.953256051699723
 20
-27.11811899323495
 30
0.0
 10
-3.753959680458117
 20
-27.16155284709022
 30
0.0
 10
-3.63121278579369
 20
-27.19878502107969
 30
0.0
 10
-3.573317307692324
 20
-27.21634615384615
 30
0.0
  0
SPLINE
  5
A0
330
1F
100
AcDbEntity
  8
0
  6
Continuous
 62
     7
370
    25
100
AcDbSpline
210
0.0
220
0.0
230
1.0
 70
     8
 71
     3
 72
    27
 73
    23
 74
     0
 42
0.00000001
 43
0.00000001
 40
0.0
 40
0.0
 40
0.0
 40
0.0
 40
0.0382863968856215
 40
0.0756120159895572
 40
0.1121798925932809
 40
0.1477446278519252
 40
0.183212346148045
 40
0.2183383949727704
 40
0.2537575051350916
 40
0.2889815119900978
 40
0.3598734202794496
 40
0.4312145111383628
 40
0.5049874461522896
 40
0.5827749449701178
 40
0.6242439657494585
 40
0.6684852110875183
 40
0.7154604026419111
 40
0.7658563417407929
 40
0.8193398506617026
 40
0.8760113389419768
 40
0.9363336224936737
 40
1.0
 40
1.0
 40
1.0
 40
1.0
 10
-2.90384615384617
 20
6.395432692307693
 30
0.0
 10
-2.904435107179007
 20
6.354937610675073
 30
0.0
 10
-2.905598234358422
 20
6.274963651019076
 30
0.0
 10
-2.917964749133514
 20
6.156838923196522
 30
0.0
 10
-2.938291737454708
 20
6.042793294790877
 30
0.0
 10
-2.966549512293491
 20
5.932536123405292
 30
0.0
 10
-3.000229916539044
 20
5.825280180459677
 30
0.0
 10
-3.046152366111946
 20
5.722848479104892
 30
0.0
 10
-3.097106993298186
 20
5.623228755261545
 30
0.0
 10
-3.176104897359172
 20
5.495924669518721
 30
0.0
 10
-3.294201752425962
 20
5.349057731508633
 30
0.0
 10
-3.463470096906702
 20
5.194348111914576
 30
0.0
 10
-3.660893055912364
 20
5.064133349815552
 30
0.0
 10
-3.845395971827348
 20
4.975208781466129
 30
0.0
 10
-4.008443008859927
 20
4.917498004161415
 30
0.0
 10
-4.142952882967218
 20
4.877240812183329
 30
0.0
 10
-4.289440377942277
 20
4.845741310718127
 30
0.0
 10
-4.446525564321965
 20
4.817867845632668
 30
0.0
 10
-4.615015243223428
 20
4.796563605554717
 30
0.0
 10
-4.794639102671534
 20
4.781099883963901
 30
0.0
 10
-4.985472274649196
 20
4.771430972128992
 30
0.0
 10
-5.116574923701716
 20
4.769977239719283
 30
0.0
 10
-5.183894230769248
 20
4.769230769230772
 30
0.0
  0
SPLINE
  5
A1
330
1F
100
AcDbEntity
  8
0
  6
Continuous
 62
     7
370
    25
100
AcDbSpline
210
0.0
220
0.0
230
1.0
 70
     8
 71
     3
 72
    23
 73
    19
 74
     0
 42
0.00000001
 43
0.00000001
 40
0.0
 40
0.0
 40
0.0
 40
0.0
 40
0.0668726116802336
 40
0.1317871468518979
 40
0.1954580113846232
 40
0.2577268076712816
 40
0.3192715235677864
 40
0.3806930858692877
 40
0.4419393445783608
 40
0.5038251397968521
 40
0.5651998389378822
 40
0.6262554107348385
 40
0.6863409117402617
 40
0.7465397223296295
 40
0.8076374450268754
 40
0.8695990522376645
 40
0.9339018247891061
 40
1.0
 40
1.0
 40
1.0
 40
1.0
 10
-4.211538461538479
 20
7.918269230769233
 30
0.0
 10
-4.164043384356422
 20
7.907456606872967
 30
0.0
 10
-4.070443918834362
 20
7.886147960216763
 30
0.0
 10
-3.935415281895947
 20
7.840617050068391
 30
0.0
 10
-3.806712210674875
 20
7.788092346404563
 30
0.0
 10
-3.684496438142827
 20
7.726891928536536
 30
0.0
 10
-3.57008610082317
 20
7.655211307199504
 30
0.0
 10
-3.461710103217659
 20
7.576047341536853
 30
0.0
 10
-3.359934881549819
 20
7.4880189382552
 30
0.0
 10
-3.267217501673822
 20
7.390654702976541
 30
0.0
 10
-3.180932434157335
 20
7.287684927638947
 30
0.0
 10
-3.106816174681346
 20
7.177125534346559
 30
0.0
 10
-3.043495007899886
 20
7.061048732149019
 30
0.0
 10
-2.993082432267138
 20
6.938750057331918
 30
0.0
 10
-2.953557668843754
 20
6.811173395562681
 30
0.0
 10
-2.924172032688515
 20
6.677795246531923
 30
0.0
 10
-2.907562587973461
 20
6.53848297287744
 30
0.0
 10
-2.905096284179519
 20
6.44355180025076
 30
0.0
 10
-2.90384615384617
 20
6.395432692307693
 30
0.0
  0
SPLINE
  5
A2
330
1F
100
AcDbEntity
  8
0
  6
Continuous
 62
     7
370
    25
100
AcDbSpline
210
0.0
220
0.0
230
1.0
 70
     8
 71
     3
 72
    15
 73
    11
 74
     0
 42
0.00000001
 43
0.00000001
 40
0.0
 40
0.0
 40
0.0
 40
0.0
 40
0.1767924705936884
 40
0.3389368283733478
 40
0.4856648512514151
 40
0.6177699227379696
 40
0.7353697257000551
 40
0.8384127726381998
 40
0.9263290248293269
 40
1.0
 40
1.0
 40
1.0
 40
1.0
 10
-5.682692307692324
 20
8.000000000000002
 30
0.0
 10
-5.59575370079297
 20
7.999735169073431
 30
0.0
 10
-5.429079771825791
 20
7.999227449745763
 30
0.0
 10
-5.19024375142582
 20
7.996354174922768
 30
0.0
 10
-4.973538442390481
 20
7.988198459112054
 30
0.0
 10
-4.778691032010267
 20
7.98113744889578
 30
0.0
 10
-4.605683034332358
 20
7.968233668184381
 30
0.0
 10
-4.454417368987294
 20
7.956192689602301
 30
0.0
 10
-4.325227981247651
 20
7.939795614693771
 30
0.0
 10
-4.247140271352118
 20
7.925010205912915
 30
0.0
 10
-4.211538461538479
 20
7.918269230769233
 30
0.0
  0
SPLINE
  5
A8
330
1F
100
AcDbEntity
  8
0
  6
Continuous
 62
     7
370
    25
100
AcDbSpline
210
0.0
220
0.0
230
1.0
 70
     8
 71
     3
 72
    15
 73
    11
 74
     0
 42
0.00000001
 43
0.00000001
 40
0.0
 40
0.0
 40
0.0
 40
0.0
 40
0.075102621217965
 40
0.1643944909969765
 40
0.2679400370808998
 40
0.3851395854331012
 40
0.5175727667246435
 40
0.6638166974973643
 40
0.8246131512713123
 40
1.0
 40
1.0
 40
1.0
 40
1.0
 10
-4.265625000000017
 20
41.86778846153847
 30
0.0
 10
-4.306024640009838
 20
41.85979941659173
 30
0.0
 10
-4.394456683368226
 20
41.8423119446996
 30
0.0
 10
-4.540113799969472
 20
41.82263902903438
 30
0.0
 10
-4.709305579313051
 20
41.80612650531035
 30
0.0
 10
-4.902539687759684
 20
41.79341407936698
 30
0.0
 10
-5.119321271601514
 20
41.78282502676144
 30
0.0
 10
-5.360118393139739
 20
41.77427783772783
 30
0.0
 10
-5.624580360014394
 20
41.76960148825098
 30
0.0
 10
-5.808892449155626
 20
41.76935786663972
 30
0.0
 10
-5.905048076923093
 20
41.76923076923077
 30
0.0
  0
SPLINE
  5
A9
330
1F
100
AcDbEntity
  8
0
  6
Continuous
 62
     7
370
    25
100
AcDbSpline
210
0.0
220
0.0
230
1.0
 70
     8
 71
     3
 72
    23
 73
    19
 74
     0
 42
0.00000001
 43
0.00000001
 40
0.0
 40
0.0
 40
0.0
 40
0.0
 40
0.0680100752951033
 40
0.1331296505024874
 40
0.1962075890614332
 40
0.2572406468288911
 40
0.3172747492766062
 40
0.3763473003817263
 40
0.4355180001681401
 40
0.4948973701575834
 40
0.5543153023569529
 40
0.6142067936870979
 40
0.6746667111991447
 40
0.7361782714761783
 40
0.798706702045785
 40
0.8633650313224707
 40
0.930297812502847
 40
1.0
 40
1.0
 40
1.0
 40
1.0
 10
-2.980769230769247
 20
43.39062500000001
 30
0.0
 10
-2.981409274612398
 20
43.34128494800166
 30
0.0
 10
-2.982662159758828
 20
43.24470184836808
 30
0.0
 10
-3.000815715322211
 20
43.10339382172566
 30
0.0
 10
-3.026328315128907
 20
42.96848369390958
 30
0.0
 10
-3.064034171453029
 20
42.84019908081992
 30
0.0
 10
-3.111850918792297
 20
42.71845811030679
 30
0.0
 10
-3.17140752339406
 20
42.60352402071739
 30
0.0
 10
-3.240990373352374
 20
42.49491043257866
 30
0.0
 10
-3.322036434467728
 20
42.39425812962443
 30
0.0
 10
-3.411227968588494
 20
42.30013832664182
 30
0.0
 10
-3.508662241229038
 20
42.2133162380325
 30
0.0
 10
-3.61492714198727
 20
42.13496208395365
 30
0.0
 10
-3.729332153462531
 20
42.06534686181876
 30
0.0
 10
-3.85169580228573
 20
42.0039038727822
 30
0.0
 10
-3.981659879549014
 20
41.9496134418232
 30
0.0
 10
-4.120431792194843
 20
41.90391995529873
 30
0.0
 10
-4.216577681614075
 20
41.8799939421185
 30
0.0
 10
-4.265625000000016
 20
41.86778846153847
 30
0.0
  0
SPLINE
  5
AA
330
1F
100
AcDbEntity
  8
0
  6
Continuous
 62
     7
370
    25
100
AcDbSpline
210
0.0
220
0.0
230
1.0
 70
     8
 71
     3
 72
    23
 73
    19
 74
     0
 42
0.00000001
 43
0.00000001
 40
0.0
 40
0.0
 40
0.0
 40
0.0
 40
0.0652884299120911
 40
0.1285068150159068
 40
0.1905405097659248
 40
0.2517509623259057
 40
0.3125143136975338
 40
0.3727667643980118
 40
0.4333707584827038
 40
0.4947079864252565
 40
0.556001260777111
 40
0.6165974068060761
 40
0.6775457148956854
 40
0.7384029173893732
 40
0.8011304006852609
 40
0.8649602084597602
 40
0.9312462754196694
 40
1.0
 40
1.0
 40
1.0
 40
1.0
 10
-4.225961538461555
 20
44.90985576923077
 30
0.0
 10
-4.180883807852299
 20
44.89854424220915
 30
0.0
 10
-4.092157587960958
 20
44.87627983314813
 30
0.0
 10
-3.964149738166246
 20
44.83107189721067
 30
0.0
 10
-3.842320339025769
 20
44.77827692311142
 30
0.0
 10
-3.726606901323655
 20
44.71673907413913
 30
0.0
 10
-3.616983248826635
 20
44.64722280036073
 30
0.0
 10
-3.514347286640493
 20
44.56844191456526
 30
0.0
 10
-3.417931808256048
 20
44.48160778874949
 30
0.0
 10
-3.327969641765162
 20
44.38705025521583
 30
0.0
 10
-3.246246248182479
 20
44.28526874938903
 30
0.0
 10
-3.174548546893687
 20
44.17642077122586
 30
0.0
 10
-3.115073458282344
 20
44.06089109921336
 30
0.0
 10
-3.064238609776885
 20
43.93955053267891
 30
0.0
 10
-3.028581299358367
 20
43.81083377572597
 30
0.0
 10
-2.999688120693659
 20
43.6765724654222
 30
0.0
 10
-2.984802686187981
 20
43.53558816032348
 30
0.0
 10
-2.982129995764354
 20
43.43953115456715
 30
0.0
 10
-2.980769230769247
 20
43.39062500000001
 30
0.0
  0
SPLINE
  5
AB
330
1F
100
AcDbEntity
  8
0
  6
Continuous
 62
     7
370
    25
100
AcDbSpline
210
0.0
220
0.0
230
1.0
 70
     8
 71
     3
 72
    15
 73
    11
 74
     0
 42
0.00000001
 43
0.00000001
 40
0.0
 40
0.0
 40
0.0
 40
0.0
 40
0.1773012288830298
 40
0.3392508515799629
 40
0.4866755894649796
 40
0.6187969836639711
 40
0.7364658209656723
 40
0.8390151832665492
 40
0.9264879670222256
 40
1.0
 40
1.0
 40
1.0
 40
1.0
 10
-5.705528846153862
 20
45.00000000000001
 30
0.0
 10
-5.617785144488702
 20
44.99991403401157
 30
0.0
 10
-5.449895019314655
 20
44.99974954538973
 30
0.0
 10
-5.209098881776592
 20
44.99455541632517
 30
0.0
 10
-4.990712858041432
 20
44.98770823074614
 30
0.0
 10
-4.794383728024807
 20
44.97801212547467
 30
0.0
 10
-4.620332037653495
 20
44.96691131266938
 30
0.0
 10
-4.468911645043311
 20
44.95090065311251
 30
0.0
 10
-4.339441997279843
 20
44.93434527243073
 30
0.0
 10
-4.261536341454671
 20
44.91753294344041
 30
0.0
 10
-4.225961538461555
 20
44.90985576923077
 30
0.0
  0
SPLINE
  5
B3
330
1F
100
AcDbEntity
  8
0
  6
Continuous
 62
     7
370
    25
100
AcDbSpline
210
0.0
220
0.0
230
1.0
 70
     8
 71
     3
 72
    15
 73
    11
 74
     0
 42
0.00000001
 43
0.00000001
 40
0.0
 40
0.0
 40
0.0
 40
0.0
 40
0.0839537967888199
 40
0.1790336212748736
 40
0.286187507940537
 40
0.4049751979214124
 40
0.5354640427834405
 40
0.67839255562122
 40
0.83322360254613
 40
1.0
 40
1.0
 40
1.0
 40
1.0
 10
-3.918269230769247
 20
-27.78365384615385
 30
0.0
 10
-3.972601357666428
 20
-27.76972582414911
 30
0.0
 10
-4.088466009439553
 20
-27.74002396059937
 30
0.0
 10
-4.277058585456695
 20
-27.70796089188039
 30
0.0
 10
-4.489530914875303
 20
-27.67934127703759
 30
0.0
 10
-4.726422715864167
 20
-27.65536379834388
 30
0.0
 10
-4.987812698425077
 20
-27.63799378277575
 30
0.0
 10
-5.273534930747669
 20
-27.6250676577242
 30
0.0
 10
-5.583679702875412
 20
-27.61629371663576
 30
0.0
 10
-5.798471106957162
 20
-27.61569506101896
 30
0.0
 10
-5.909855769230785
 20
-27.61538461538462
 30
0.0
  0
SPLINE
  5
B4
330
1F
100
AcDbEntity
  8
0
  6
Continuous
 62
     7
370
    25
100
AcDbSpline
210
0.0
220
0.0
230
1.0
 70
     8
 71
     3
 72
    23
 73
    19
 74
     0
 42
0.00000001
 43
0.00000001
 40
0.0
 40
0.0
 40
0.0
 40
0.0
 40
0.0681248992562634
 40
0.1338201799417081
 40
0.197536428611531
 40
0.259914216187528
 40
0.3213124655717423
 40
0.3820713389451943
 40
0.4426842995230199
 40
0.5034381902104392
 40
0.5640174286946885
 40
0.6242709699884404
 40
0.6844050665109047
 40
0.7451028737958186
 40
0.8063542623014514
 40
0.8689911563042624
 40
0.9334349393806386
 40
1.0
 40
1.0
 40
1.0
 40
1.0
 10
-2.211538461538478
 20
-30.07451923076923
 30
0.0
 10
-2.213019425914776
 20
-30.00436542676819
 30
0.0
 10
-2.215928537289428
 20
-29.866559796558
 30
0.0
 10
-2.235992508249596
 20
-29.66385157048087
 30
0.0
 10
-2.272662899235968
 20
-29.46956490241295
 30
0.0
 10
-2.322031149726329
 20
-29.2827816104103
 30
0.0
 10
-2.38371225680881
 20
-29.10273754125111
 30
0.0
 10
-2.463123597679215
 20
-28.931828420849
 30
0.0
 10
-2.553974576464068
 20
-28.76751165683443
 30
0.0
 10
-2.660279799932245
 20
-28.61292548258186
 30
0.0
 10
-2.777583797106446
 20
-28.46703496238273
 30
0.0
 10
-2.90791713998482
 20
-28.33342060236269
 30
0.0
 10
-3.049460440541833
 20
-28.21175312551473
 30
0.0
 10
-3.200672523776947
 20
-28.10043044488239
 30
0.0
 10
-3.364412642287005
 20
-28.00344180624928
 30
0.0
 10
-3.537689031745025
 20
-27.91592672807174
 30
0.0
 10
-3.723588219903942
 20
-27.84290773901452
 30
0.0
 10
-3.852678821273568
 20
-27.80361720611212
 30
0.0
 10
-3.918269230769247
 20
-27.78365384615385
 30
0.0
  0
SPLINE
  5
B5
330
1F
100
AcDbEntity
  8
0
  6
Continuous
 62
     7
370
    25
100
AcDbSpline
210
0.0
220
0.0
230
1.0
 70
     8
 71
     3
 72
    23
 73
    19
 74
     0
 42
0.00000001
 43
0.00000001
 40
0.0
 40
0.0
 40
0.0
 40
0.0
 40
0.0649939187232737
 40
0.1280391897835969
 40
0.1898211817466108
 40
0.2503424764960391
 40
0.3101165751092417
 40
0.3700107344946389
 40
0.4295219077611738
 40
0.4902527318841884
 40
0.5512024272891477
 40
0.6119029505678673
 40
0.6729775680309784
 40
0.7350650911917097
 40
0.7985162031047678
 40
0.86354919970734
 40
0.9304834631215328
 40
1.0
 40
1.0
 40
1.0
 40
1.0
 10
-3.769230769230785
 20
-32.23197115384615
 30
0.0
 10
-3.710063233024764
 20
-32.21271892222996
 30
0.0
 10
-3.593502121675776
 20
-32.17479167940346
 30
0.0
 10
-3.425414964979856
 20
-32.1051032406067
 30
0.0
 10
-3.268182897880344
 20
-32.02264418396175
 30
0.0
 10
-3.11906629537085
 20
-31.9320105972723
 30
0.0
 10
-2.981780642160811
 20
-31.82721370595443
 30
0.0
 10
-2.853071976234821
 20
-31.71362808383525
 30
0.0
 10
-2.734291479887287
 20
-31.58836247657254
 30
0.0
 10
-2.625169180330655
 20
-31.45331839502016
 30
0.0
 10
-2.527983521857117
 20
-31.30801066214632
 30
0.0
 10
-2.443762766806234
 20
-31.15452007515924
 30
0.0
 10
-2.371038901993272
 20
-30.99406893279764
 30
0.0
 10
-2.311759603702262
 20
-30.82528696375218
 30
0.0
 10
-2.268048486469658
 20
-30.64796542802247
 30
0.0
 10
-2.235831829498346
 20
-30.46364663779323
 30
0.0
 10
-2.214154872961913
 20
-30.27174798996036
 30
0.0
 10
-2.21242153292108
 20
-30.14108638894157
 30
0.0
 10
-2.211538461538478
 20
-30.07451923076923
 30
0.0
  0
SPLINE
  5
B8
330
1F
100
AcDbEntity
  8
0
  6
Continuous
 62
     7
370
    25
100
AcDbSpline
210
0.0
220
0.0
230
1.0
 70
     8
 71
     3
 72
    15
 73
    11
 74
     0
 42
0.00000001
 43
0.00000001
 40
0.0
 40
0.0
 40
0.0
 40
0.0
 40
0.1722416240680557
 40
0.3309788962256083
 40
0.4756210984669498
 40
0.6075272767128856
 40
0.725504927473902
 40
0.8296031935028797
 40
0.9214588293909576
 40
1.0
 40
1.0
 40
1.0
 40
1.0
 10
-5.621394230769248
 20
-32.38461538461539
 30
0.0
 10
-5.514418926729416
 20
-32.38418928247874
 30
0.0
 10
-5.30885556046371
 20
-32.38337048611853
 30
0.0
 10
-5.01352432064133
 20
-32.37622150414057
 30
0.0
 10
-4.743425138430509
 20
-32.36438739546153
 30
0.0
 10
-4.498902547323807
 20
-32.34813154752133
 30
0.0
 10
-4.280092259768264
 20
-32.32640961374112
 30
0.0
 10
-4.086648619629019
 20
-32.3019427746132
 30
0.0
 10
-3.918608409036632
 20
-32.27206275324883
 30
0.0
 10
-3.816360157962677
 20
-32.24462025297229
 30
0.0
 10
-3.769230769230785
 20
-32.23197115384615
 30
0.0
  0
SPLINE
  5
B9
330
1F
100
AcDbEntity
  8
0
  6
Continuous
 62
     7
370
    25
100
AcDbSpline
210
0.0
220
0.0
230
1.0
 70
     8
 71
     3
 72
    23
 73
    19
 74
     0
 42
0.00000001
 43
0.00000001
 40
0.0
 40
0.0
 40
0.0
 40
0.0
 40
0.0663718666664231
 40
0.1316103113344305
 40
0.1972572836645847
 40
0.264983956600423
 40
0.3337390422281292
 40
0.4018414803018264
 40
0.4703774908975497
 40
0.5410156705822405
 40
0.5795555232061163
 40
0.6236781421455699
 40
0.6723390527435226
 40
0.7267589592352803
 40
0.7870907984582693
 40
0.8522453650913029
 40
0.9233828364599296
 40
1.0
 40
1.0
 40
1.0
 40
1.0
 10
-3.519230769230786
 20
6.396634615384617
 30
0.0
 10
-3.521706740296773
 20
6.444895980665544
 30
0.0
 10
-3.526616400657647
 20
6.540594559431911
 30
0.0
 10
-3.561032774754327
 20
6.680766514477056
 30
0.0
 10
-3.619764881499142
 20
6.813413251841228
 30
0.0
 10
-3.701095350746385
 20
6.936347030337798
 30
0.0
 10
-3.798287931913165
 20
7.049650680714538
 30
0.0
 10
-3.914207544266169
 20
7.144748274019105
 30
0.0
 10
-4.042807938382029
 20
7.224104149253174
 30
0.0
 10
-4.162363364673621
 20
7.274516066272884
 30
0.0
 10
-4.269315266830264
 20
7.306016856030675
 30
0.0
 10
-4.362429897848933
 20
7.327277995754281
 30
0.0
 10
-4.467947594866374
 20
7.345342582752868
 30
0.0
 10
-4.585958244952744
 20
7.359094579722739
 30
0.0
 10
-4.716172134938032
 20
7.371279042644074
 30
0.0
 10
-4.858885096006637
 20
7.379443269057058
 30
0.0
 10
-5.013587102144093
 20
7.384257011726088
 30
0.0
 10
-5.120989768372425
 20
7.384493009546605
 30
0.0
 10
-5.176682692307708
 20
7.384615384615385
 30
0.0
  0
SPLINE
  5
BD
330
1F
100
AcDbEntity
  8
0
  6
Continuous
 62
     7
370
    25
100
AcDbSpline
210
0.0
220
0.0
230
1.0
 70
     8
 71
     3
 72
    23
 73
    19
 74
     0
 42
0.00000001
 43
0.00000001
 40
0.0
 40
0.0
 40
0.0
 40
0.0
 40
0.0734240951700328
 40
0.1420405055126421
 40
0.2053180635764921
 40
0.2644108527439331
 40
0.3183166575209647
 40
0.3676666590707388
 40
0.4125829361733251
 40
0.4532275382262459
 40
0.5277313415495043
 40
0.5986537029605064
 40
0.6672254985567874
 40
0.7353302844359868
 40
0.8027425414733711
 40
0.8678185282356279
 40
0.9334186553084589
 40
1.0
 40
1.0
 40
1.0
 40
1.0
 10
-5.20432692307694
 20
5.376201923076924
 30
0.0
 10
-5.149830896104286
 20
5.376178038680575
 30
0.0
 10
-5.044407149285195
 20
5.376131833797513
 30
0.0
 10
-4.892161810111829
 20
5.382954535841734
 30
0.0
 10
-4.750640404692342
 20
5.390807184715491
 30
0.0
 10
-4.62032486002408
 20
5.402621668807707
 30
0.0
 10
-4.500811219016303
 20
5.41810921144769
 30
0.0
 10
-4.39246400596265
 20
5.437126897296356
 30
0.0
 10
-4.294863971319153
 20
5.459695570758635
 30
0.0
 10
-4.181059979429605
 20
5.494131397584527
 30
0.0
 10
-4.053894172912452
 20
5.548866333111222
 30
0.0
 10
-3.915704920312782
 20
5.628438436651591
 30
0.0
 10
-3.798230235070724
 20
5.729241623930174
 30
0.0
 10
-3.697660359524282
 20
5.843187548935598
 30
0.0
 10
-3.61875178567395
 20
5.970300425967047
 30
0.0
 10
-3.561396338210723
 20
6.106087347489391
 30
0.0
 10
-3.524707188100249
 20
6.248871159771895
 30
0.0
 10
-3.5210652538639
 20
6.347136979225158
 30
0.0
 10
-3.519230769230786
 20
6.396634615384617
 30
0.0
  0
SPLINE
  5
C0
330
1F
100
AcDbEntity
  8
0
  6
Continuous
 62
     7
370
    25
100
AcDbSpline
210
0.0
220
0.0
230
1.0
 70
     8
 71
     3
 72
    23
 73
    19
 74
     0
 42
0.00000001
 43
0.00000001
 40
0.0
 40
0.0
 40
0.0
 40
0.0
 40
0.0674795446585593
 40
0.1343952193610157
 40
0.2014728182881763
 40
0.2707209065743153
 40
0.3403651865837813
 40
0.408731272259916
 40
0.4778020400460105
 40
0.5486349168251707
 40
0.5873066636263573
 40
0.6305575339508998
 40
0.6789581626543567
 40
0.7326531634279424
 40
0.7912406180435955
 40
0.855287045314786
 40
0.9248567875034154
 40
1.0
 40
1.0
 40
1.0
 40
1.0
 10
-3.596153846153863
 20
43.38822115384616
 30
0.0
 10
-3.598136275899861
 20
43.43648985420218
 30
0.0
 10
-3.602084569889239
 20
43.53262391387082
 30
0.0
 10
-3.636962687967372
 20
43.67331799063506
 30
0.0
 10
-3.694591274931381
 20
43.80715868219855
 30
0.0
 10
-3.772586216105763
 20
43.93254412065828
 30
0.0
 10
-3.867902913313966
 20
44.04662085223762
 30
0.0
 10
-3.980246127765029
 20
44.14378805240608
 30
0.0
 10
-4.106139783857949
 20
44.22416684597952
 30
0.0
 10
-4.224015583720044
 20
44.27457432817143
 30
0.0
 10
-4.328680018649705
 20
44.30567606482445
 30
0.0
 10
-4.419249736431587
 20
44.32751876511391
 30
0.0
 10
-4.521645374067621
 20
44.34522470618813
 30
0.0
 10
-4.635639109433794
 20
44.35898829715056
 30
0.0
 10
-4.76102976807776
 20
44.37137170068272
 30
0.0
 10
-4.898146972455109
 20
44.37940379214909
 30
0.0
 10
-5.04723889599325
 20
44.38427068088811
 30
0.0
 10
-5.150636825814131
 20
44.3844975705656
 30
0.0
 10
-5.20432692307694
 20
44.38461538461539
 30
0.0
  0
SPLINE
  5
C2
330
1F
100
AcDbEntity
  8
0
  6
Continuous
 62
     7
370
    25
100
AcDbSpline
210
0.0
220
0.0
230
1.0
 70
     8
 71
     3
 72
    23
 73
    19
 74
     0
 42
0.00000001
 43
0.00000001
 40
0.0
 40
0.0
 40
0.0
 40
0.0
 40
0.0742460604728848
 40
0.1430851290124809
 40
0.20652613496192
 40
0.2657368457281743
 40
0.3197048944420769
 40
0.3684380664120573
 40
0.4127948989779667
 40
0.4526913307635306
 40
0.5258068849823616
 40
0.5961194384508973
 40
0.6646286955233157
 40
0.732782499752466
 40
0.8006624564436116
 40
0.8664669534182654
 40
0.9326732929716546
 40
1.0
 40
1.0
 40
1.0
 40
1.0
 10
-5.253605769230785
 20
42.37139423076923
 30
0.0
 10
-5.199109794049637
 20
42.37136591547986
 30
0.0
 10
-5.094086529652953
 20
42.37131134697064
 30
0.0
 10
-4.94263956156025
 20
42.37813112106474
 30
0.0
 10
-4.802329275852238
 20
42.38603873814903
 30
0.0
 10
-4.673180281429291
 20
42.39766937575433
 30
0.0
 10
-4.555436495553955
 20
42.41368303227817
 30
0.0
 10
-4.448769647834291
 20
42.43062682581263
 30
0.0
 10
-4.353967848586577
 20
42.45408759101007
 30
0.0
 10
-4.242952919739277
 20
42.48625948644532
 30
0.0
 10
-4.119351641561911
 20
42.54067066139856
 30
0.0
 10
-3.985150836512977
 20
42.62045399483878
 30
0.0
 10
-3.870189834477485
 20
42.72084466507573
 30
0.0
 10
-3.772087286438634
 20
42.8351867625919
 30
0.0
 10
-3.694696721555255
 20
42.96220673966863
 30
0.0
 10
-3.636695096031999
 20
43.09746228811282
 30
0.0
 10
-3.602027354865277
 20
43.24065259121781
 30
0.0
 10
-3.59812260292636
 20
43.33875726073614
 30
0.0
 10
-3.596153846153863
 20
43.38822115384616
 30
0.0
  0
LINE
  5
C3
330
1F
100
AcDbEntity
  8
0
  6
Continuous
 62
     7
370
    25
100
AcDbLine
 10
-5.9098557692
 20
-27.6153846154
 30
0.0
 11
-6.9807692308
 21
-27.6153846154
 31
0.0
  0
LINE
  5
C4
330
1F
100
AcDbEntity
  8
0
  6
Continuous
 62
     7
370
    25
100
AcDbLine
 10
-6.9807692308
 20
-33.0
 30
0.0
 11
-6.9807692308
 21
-27.0
 31
0.0
  0
LINE
  5
C5
330
1F
100
AcDbEntity
  8
0
  6
Continuous
 62
     7
370
    25
100
AcDbLine
 10
-6.9807692308
 20
-30.3661092694
 30
0.0
 11
-6.3653846154
 21
-30.3661092694
 31
0.0
  0
LINE
  5
C6
330
1F
100
AcDbEntity
  8
0
  6
Continuous
 62
     7
370
    25
100
AcDbLine
 10
-6.3653846154
 20
-27.6153846154
 30
0.0
 11
-6.3653846154
 21
-32.3846153846
 31
0.0
  0
LINE
  5
C7
330
1F
100
AcDbEntity
  8
0
  6
Continuous
 62
     7
370
    25
100
AcDbLine
 10
-5.1766826923
 20
7.3846153846
 30
0.0
 11
-6.9807692308
 21
7.3846153846
 31
0.0
  0
LINE
  5
C8
330
1F
100
AcDbEntity
  8
0
  6
Continuous
 62
     7
370
    25
100
AcDbLine
 10
-6.9807692308
 20
2.0
 30
0.0
 11
-6.9807692308
 21
8.0
 31
0.0
  0
LINE
  5
C9
330
1F
100
AcDbEntity
  8
0
  6
Continuous
 62
     7
370
    25
100
AcDbLine
 10
-6.9807692308
 20
5.3748491069
 30
0.0
 11
-6.3653846154
 21
5.3748491069
 31
0.0
  0
LINE
  5
CA
330
1F
100
AcDbEntity
  8
0
  6
Continuous
 62
     7
370
    25
100
AcDbLine
 10
-6.3653846154
 20
5.3748491069
 30
0.0
 11
-6.3653846154
 21
7.3846153846
 31
0.0
  0
LINE
  5
CB
330
1F
100
AcDbEntity
  8
0
  6
Continuous
 62
     7
370
    25
100
AcDbLine
 10
-5.2043269231
 20
44.3846153846
 30
0.0
 11
-6.9807692308
 21
44.3846153846
 31
0.0
  0
LINE
  5
CC
330
1F
100
AcDbEntity
  8
0
  6
Continuous
 62
     7
370
    25
100
AcDbLine
 10
-6.9807692308
 20
39.0
 30
0.0
 11
-6.9807692308
 21
45.0
 31
0.0
  0
LINE
  5
CD
330
1F
100
AcDbEntity
  8
0
  6
Continuous
 62
     7
370
    25
100
AcDbLine
 10
-6.9807692308
 20
42.3736498022
 30
0.0
 11
-6.3653846154
 21
42.3736498022
 31
0.0
  0
LINE
  5
CE
330
1F
100
AcDbEntity
  8
0
  6
Continuous
 62
     7
370
    25
100
AcDbLine
 10
-6.3653846154
 20
42.3736498022
 30
0.0
 11
-6.3653846154
 21
44.3846153846
 31
0.0
  0
LINE
  5
CF
330
1F
100
AcDbEntity
  8
0
  6
Continuous
 62
     7
370
    25
100
AcDbLine
 10
-12.0
 20
52.0
 30
0.0
 11
12.0
 21
52.0
 31
0.0
  0
LINE
  5
D0
330
1F
100
AcDbEntity
  8
0
  6
Continuous
 62
     7
370
    25
100
AcDbLine
 10
12.0
 20
52.0
 30
0.0
 11
12.0
 21
48.0
 31
0.0
  0
LINE
  5
D1
330
1F
100
AcDbEntity
  8
0
  6
Continuous
 62
     7
370
    25
100
AcDbLine
 10
12.0
 20
48.0
 30
0.0
 11
16.0
 21
48.0
 31
0.0
  0
LINE
  5
D2
330
1F
100
AcDbEntity
  8
0
  6
Continuous
 62
     7
370
    25
100
AcDbLine
 10
16.0
 20
48.0
 30
0.0
 11
16.0
 21
43.0
 31
0.0
  0
LINE
  5
D3
330
1F
100
AcDbEntity
  8
0
  6
Continuous
 62
     7
370
    25
100
AcDbLine
 10
16.0
 20
43.0
 30
0.0
 11
12.0
 21
43.0
 31
0.0
  0
LINE
  5
D4
330
1F
100
AcDbEntity
  8
0
  6
Continuous
 62
     7
370
    25
100
AcDbLine
 10
12.0
 20
43.0
 30
0.0
 11
12.0
 21
0.0
 31
0.0
  0
LINE
  5
D5
330
1F
100
AcDbEntity
  8
0
  6
Continuous
 62
     7
370
    25
100
AcDbLine
 10
12.0
 20
0.0
 30
0.0
 11
14.0
 21
0.0
 31
0.0
  0
LINE
  5
D6
330
1F
100
AcDbEntity
  8
0
  6
Continuous
 62
     7
370
    25
100
AcDbLine
 10
14.0
 20
0.0
 30
0.0
 11
14.0
 21
-6.0
 31
0.0
  0
LINE
  5
D7
330
1F
100
AcDbEntity
  8
0
  6
Continuous
 62
     7
370
    25
100
AcDbLine
 10
12.0
 20
-6.0
 30
0.0
 11
14.0
 21
-6.0
 31
0.0
  0
LINE
  5
D8
330
1F
100
AcDbEntity
  8
0
  6
Continuous
 62
     7
370
    25
100
AcDbLine
 10
12.0
 20
-6.0
 30
0.0
 11
12.0
 21
-52.0
 31
0.0
  0
LINE
  5
D9
330
1F
100
AcDbEntity
  8
0
  6
Continuous
 62
     7
370
    25
100
AcDbLine
 10
-2.0
 20
-62.0
 30
0.0
 11
2.0
 21
-62.0
 31
0.0
  0
LINE
  5
DA
330
1F
100
AcDbEntity
  8
0
  6
Continuous
 62
     7
370
    25
100
AcDbLine
 10
-12.0
 20
52.0
 30
0.0
 11
-12.0
 21
-52.0
 31
0.0
  0
LINE
  5
DB
330
1F
100
AcDbEntity
  8
0
  6
Continuous
 62
     7
370
    25
100
AcDbLine
 10
4.9730769231
 20
-27.7848557692
 30
0.0
 11
4.4466346154
 21
-28.1538461538
 31
0.0
  0
LINE
  5
DC
330
1F
100
AcDbEntity
  8
0
  6
Continuous
 62
     7
370
    25
100
AcDbLine
 10
1.2807692308
 20
-31.8425480769
 30
0.0
 11
1.8300480769
 21
-31.5384615385
 31
0.0
  0
LINE
  5
DD
330
1F
100
AcDbEntity
  8
0
  6
Continuous
 62
     7
370
    25
100
AcDbLine
 10
-6.9807692308
 20
-27.0
 30
0.0
 11
-5.6550480769
 21
-27.0
 31
0.0
  0
LINE
  5
DE
330
1F
100
AcDbEntity
  8
0
  6
Continuous
 62
     7
370
    25
100
AcDbLine
 10
-4.9471153846
 20
-33.0
 30
0.0
 11
-6.9807692308
 21
-33.0
 31
0.0
  0
LINE
  5
DF
330
1F
100
AcDbEntity
  8
0
  6
Continuous
 62
     7
370
    25
100
AcDbLine
 10
-6.3653846154
 20
-11.3653846154
 30
0.0
 11
-6.3653846154
 21
-16.0
 31
0.0
  0
LINE
  5
E0
330
1F
100
AcDbEntity
  8
0
  6
Continuous
 62
     7
370
    25
100
AcDbLine
 10
-1.8269230769
 20
-16.0
 30
0.0
 11
-1.9675480769
 21
-16.0
 31
0.0
  0
LINE
  5
E1
330
1F
100
AcDbEntity
  8
0
  6
Continuous
 62
     7
370
    25
100
AcDbLine
 10
-1.8269230769
 20
-10.0
 30
0.0
 11
-1.8269230769
 21
-16.0
 31
0.0
  0
LINE
  5
E2
330
1F
100
AcDbEntity
  8
0
  6
Continuous
 62
     7
370
    25
100
AcDbLine
 10
-2.4423076923
 20
-10.0
 30
0.0
 11
-1.8269230769
 21
-10.0
 31
0.0
  0
LINE
  5
E3
330
1F
100
AcDbEntity
  8
0
  6
Continuous
 62
     7
370
    25
100
AcDbLine
 10
-2.4423076923
 20
-14.6466346154
 30
0.0
 11
-2.4423076923
 21
-10.0
 31
0.0
  0
LINE
  5
E4
330
1F
100
AcDbEntity
  8
0
  6
Continuous
 62
     7
370
    25
100
AcDbLine
 10
-6.8509615385
 20
-10.0
 30
0.0
 11
-2.4423076923
 21
-14.6466346154
 31
0.0
  0
LINE
  5
E5
330
1F
100
AcDbEntity
  8
0
  6
Continuous
 62
     7
370
    25
100
AcDbLine
 10
-6.9807692308
 20
-16.0
 30
0.0
 11
-6.9807692308
 21
-10.0
 31
0.0
  0
LINE
  5
E6
330
1F
100
AcDbEntity
  8
0
  6
Continuous
 62
     7
370
    25
100
AcDbLine
 10
-6.3653846154
 20
-16.0
 30
0.0
 11
-6.9807692308
 21
-16.0
 31
0.0
  0
LINE
  5
E7
330
1F
100
AcDbEntity
  8
0
  6
Continuous
 62
     7
370
    25
100
AcDbLine
 10
-6.3653846154
 20
2.0
 30
0.0
 11
-6.9807692308
 21
2.0
 31
0.0
  0
LINE
  5
E8
330
1F
100
AcDbEntity
  8
0
  6
Continuous
 62
     7
370
    25
100
AcDbLine
 10
-6.3653846154
 20
4.7692307692
 30
0.0
 11
-6.3653846154
 21
2.0
 31
0.0
  0
LINE
  5
E9
330
1F
100
AcDbEntity
  8
0
  6
Continuous
 62
     7
370
    25
100
AcDbLine
 10
-5.9663461538
 20
4.7692307692
 30
0.0
 11
-6.3653846154
 21
4.7692307692
 31
0.0
  0
LINE
  5
EA
330
1F
100
AcDbEntity
  8
0
  6
Continuous
 62
     7
370
    25
100
AcDbLine
 10
-2.8269230769
 20
2.0
 30
0.0
 11
-3.609375
 21
2.0
 31
0.0
  0
LINE
  5
EB
330
1F
100
AcDbEntity
  8
0
  6
Continuous
 62
     7
370
    25
100
AcDbLine
 10
-6.9807692308
 20
8.0
 30
0.0
 11
-5.6826923077
 21
8.0
 31
0.0
  0
LINE
  5
EC
330
1F
100
AcDbEntity
  8
0
  6
Continuous
 62
     7
370
    25
100
AcDbLine
 10
-6.3653846154
 20
39.0
 30
0.0
 11
-6.9807692308
 21
39.0
 31
0.0
  0
LINE
  5
ED
330
1F
100
AcDbEntity
  8
0
  6
Continuous
 62
     7
370
    25
100
AcDbLine
 10
-6.3653846154
 20
41.7692307692
 30
0.0
 11
-6.3653846154
 21
39.0
 31
0.0
  0
LINE
  5
EE
330
1F
100
AcDbEntity
  8
0
  6
Continuous
 62
     7
370
    25
100
AcDbLine
 10
-5.9050480769
 20
41.7692307692
 30
0.0
 11
-6.3653846154
 21
41.7692307692
 31
0.0
  0
LINE
  5
EF
330
1F
100
AcDbEntity
  8
0
  6
Continuous
 62
     7
370
    25
100
AcDbLine
 10
-6.9807692308
 20
45.0
 30
0.0
 11
-5.7055288462
 21
45.0
 31
0.0
  0
LINE
  5
F0
330
1F
100
AcDbEntity
  8
0
  6
Continuous
 62
     7
370
    25
100
AcDbLine
 10
-5.1838942308
 20
4.7692307692
 30
0.0
 11
-2.8269230769
 21
2.0
 31
0.0
  0
LINE
  5
F1
330
1F
100
AcDbEntity
  8
0
  6
Continuous
 62
     7
370
    25
100
AcDbLine
 10
-3.609375
 20
2.0
 30
0.0
 11
-5.9663461538
 21
4.7692307692
 31
0.0
  0
LINE
  5
F2
330
1F
100
AcDbEntity
  8
0
  6
Continuous
 62
     7
370
    25
100
AcDbLine
 10
-6.9807692308
 20
-10.0
 30
0.0
 11
-6.8509615385
 21
-10.0
 31
0.0
  0
LINE
  5
F3
330
1F
100
AcDbEntity
  8
0
  6
Continuous
 62
     7
370
    25
100
AcDbLine
 10
-1.9675480769
 20
-16.0
 30
0.0
 11
-6.3653846154
 21
-11.3653846154
 31
0.0
  0
LINE
  5
F4
330
1F
100
AcDbEntity
  8
0
  6
Continuous
 62
     7
370
    25
100
AcDbLine
 10
-6.3653846154
 20
-32.3846153846
 30
0.0
 11
-5.6213942308
 21
-32.3846153846
 31
0.0
  0
LINE
  5
F5
330
1F
100
AcDbEntity
  8
0
  6
Continuous
 62
     7
370
    25
100
AcDbLine
 10
-6.3653846154
 20
5.3846153846
 30
0.0
 11
-5.2043269231
 21
5.3762019231
 31
0.0
  0
LINE
  5
F6
330
1F
100
AcDbEntity
  8
0
  6
Continuous
 62
     7
370
    25
100
AcDbLine
 10
-6.3653846154
 20
42.3846153846
 30
0.0
 11
-5.2536057692
 21
42.3713942308
 31
0.0
  0
ARC
  5
F7
330
1F
100
AcDbEntity
  8
0
  6
Continuous
 62
     7
370
    25
100
AcDbCircle
 10
2.0
 20
-52.0
 30
0.0
 40
10.00000000000002
100
AcDbArc
 50
270.0
 51
0.0
  0
ARC
  5
F8
330
1F
100
AcDbEntity
  8
0
  6
Continuous
 62
     7
370
    25
100
AcDbCircle
 10
-2.0
 20
-52.0
 30
0.0
 40
9.999999999999995
100
AcDbArc
 50
180.0
 51
270.0
  0
ENDSEC
  0
SECTION
  2
OBJECTS
  0
DICTIONARY
  5
C
330
0
100
AcDbDictionary
281
     1
  3
ACAD_GROUP
350
D
  3
ACAD_LAYOUT
350
1A
  3
ACAD_MLINESTYLE
350
17
  3
ACAD_PLOTSETTINGS
350
19
  3
ACAD_PLOTSTYLENAME
350
E
  3
ACAD_SCALELIST
350
47
  3
DWGPROPS
350
F9
  0
DICTIONARY
  5
D
102
{ACAD_REACTORS
330
C
102
}
330
C
100
AcDbDictionary
281
     1
  0
DICTIONARY
  5
1A
102
{ACAD_REACTORS
330
C
102
}
330
C
100
AcDbDictionary
281
     1
  3
Layout1
350
1E
  3
Layout2
350
26
  3
Model
350
22
  0
DICTIONARY
  5
17
102
{ACAD_REACTORS
330
C
102
}
330
C
100
AcDbDictionary
281
     1
  3
Standard
350
18
  0
DICTIONARY
  5
19
102
{ACAD_REACTORS
330
C
102
}
330
C
100
AcDbDictionary
281
     1
  0
ACDBDICTIONARYWDFLT
  5
E
102
{ACAD_REACTORS
330
C
102
}
330
C
100
AcDbDictionary
281
     1
  3
Normal
350
F
100
AcDbDictionaryWithDefault
340
F
  0
DICTIONARY
  5
47
102
{ACAD_REACTORS
330
C
102
}
330
C
100
AcDbDictionary
281
     1
  3
A0
350
48
  3
A1
350
49
  3
A2
350
4A
  3
A3
350
4B
  3
A4
350
4C
  3
A5
350
4D
  3
A6
350
4E
  3
A7
350
4F
  3
A8
350
50
  3
A9
350
51
  3
B0
350
52
  3
B1
350
53
  3
B2
350
54
  3
B3
350
55
  3
B4
350
56
  3
B5
350
57
  3
B6
350
58
  0
XRECORD
  5
F9
102
{ACAD_REACTORS
330
C
102
}
330
C
100
AcDbXrecord
280
     1
  1
DWGPROPS COOKIE
  2

  3

  4

  6

  7

  8
wolf
  9

300
=
301
=
302
=
303
=
304
=
305
=
306
=
307
=
308
=
309
=
 40
0.0
 41
2461097.439168623
 42
2461097.439294456
  1

 90
        0
  0
LAYOUT
  5
1E
102
{ACAD_REACTORS
330
1A
102
}
330
1A
100
AcDbPlotSettings
  1

  2
none_device
  4

  6

 40
0.0
 41
0.0
 42
0.0
 43
0.0
 44
0.0
 45
0.0
 46
0.0
 47
0.0
 48
0.0
 49
0.0
140
0.0
141
0.0
142
1.0
143
1.0
 70
   688
 72
     1
 73
     0
 74
     5
  7

 75
    16
147
1.0
148
0.0
149
0.0
100
AcDbLayout
  1
Layout1
 70
     1
 71
     1
 10
0.0
 20
0.0
 11
420.0
 21
297.0
 12
0.0
 22
0.0
 32
0.0
 14
1.0000000000E+20
 24
1.0000000000E+20
 34
1.0000000000E+20
 15
-1.0000000000E+20
 25
-1.0000000000E+20
 35
-1.0000000000E+20
146
0.0
 13
0.0
 23
0.0
 33
0.0
 16
1.0
 26
0.0
 36
0.0
 17
0.0
 27
1.0
 37
0.0
 76
     0
330
1B
  0
LAYOUT
  5
26
102
{ACAD_REACTORS
330
1A
102
}
330
1A
100
AcDbPlotSettings
  1

  2
none_device
  4

  6

 40
0.0
 41
0.0
 42
0.0
 43
0.0
 44
0.0
 45
0.0
 46
0.0
 47
0.0
 48
0.0
 49
0.0
140
0.0
141
0.0
142
1.0
143
1.0
 70
   688
 72
     1
 73
     0
 74
     5
  7

 75
    16
147
1.0
148
0.0
149
0.0
100
AcDbLayout
  1
Layout2
 70
     1
 71
     2
 10
0.0
 20
0.0
 11
0.0
 21
0.0
 12
0.0
 22
0.0
 32
0.0
 14
0.0
 24
0.0
 34
0.0
 15
0.0
 25
0.0
 35
0.0
146
0.0
 13
0.0
 23
0.0
 33
0.0
 16
1.0
 26
0.0
 36
0.0
 17
0.0
 27
1.0
 37
0.0
 76
     0
330
23
  0
LAYOUT
  5
22
102
{ACAD_REACTORS
330
1A
102
}
330
1A
100
AcDbPlotSettings
  1

  2
none_device
  4
ANSI_A_(11.00_x_8.50_Inches)
  6

 40
6.35
 41
19.05
 42
6.35000508
 43
19.05000254
 44
279.4
 45
215.9
 46
129.6001553547
 47
98.2746039932
 48
0.0
 49
0.0
140
0.0
141
0.0
142
0.0738157895
143
1.0
 70
  1696
 72
     0
 73
     0
 74
     0
  7

 75
     0
147
0.0179189148
148
-1300.4909072572
149
0.0
100
AcDbLayout
  1
Model
 70
     1
 71
     0
 10
0.0
 20
0.0
 11
420.0
 21
297.0
 12
0.0
 22
0.0
 32
0.0
 14
-12.0
 24
-62.0
 34
0.0
 15
16.0
 25
52.0
 35
0.0
146
0.0
 13
0.0
 23
0.0
 33
0.0
 16
1.0
 26
0.0
 36
0.0
 17
0.0
 27
1.0
 37
0.0
 76
     0
330
1F
331
29
  0
MLINESTYLE
  5
18
102
{ACAD_REACTORS
330
17
102
}
330
17
100
AcDbMlineStyle
  2
Standard
 70
     0
  3

 62
   256
 51
90.0
 52
90.0
 71
     2
 49
0.5
 62
   256
  6
BYLAYER
 49
-0.5
 62
   256
  6
BYLAYER
  0
ACDBPLACEHOLDER
  5
F
102
{ACAD_REACTORS
330
E
102
}
330
E
  0
SCALE
  5
48
102
{ACAD_REACTORS
330
47
102
}
330
47
100
AcDbScale
 70
     0
300
1:1
140
1.0
141
1.0
290
     1
  0
SCALE
  5
49
102
{ACAD_REACTORS
330
47
102
}
330
47
100
AcDbScale
 70
     0
300
1:2
140
1.0
141
2.0
290
     0
  0
SCALE
  5
4A
102
{ACAD_REACTORS
330
47
102
}
330
47
100
AcDbScale
 70
     0
300
1:4
140
1.0
141
4.0
290
     0
  0
SCALE
  5
4B
102
{ACAD_REACTORS
330
47
102
}
330
47
100
AcDbScale
 70
     0
300
1:5
140
1.0
141
5.0
290
     0
  0
SCALE
  5
4C
102
{ACAD_REACTORS
330
47
102
}
330
47
100
AcDbScale
 70
     0
300
1:8
140
1.0
141
8.0
290
     0
  0
SCALE
  5
4D
102
{ACAD_REACTORS
330
47
102
}
330
47
100
AcDbScale
 70
     0
300
1:10
140
1.0
141
10.0
290
     0
  0
SCALE
  5
4E
102
{ACAD_REACTORS
330
47
102
}
330
47
100
AcDbScale
 70
     0
300
1:16
140
1.0
141
16.0
290
     0
  0
SCALE
  5
4F
102
{ACAD_REACTORS
330
47
102
}
330
47
100
AcDbScale
 70
     0
300
1:20
140
1.0
141
20.0
290
     0
  0
SCALE
  5
50
102
{ACAD_REACTORS
330
47
102
}
330
47
100
AcDbScale
 70
     0
300
1:30
140
1.0
141
30.0
290
     0
  0
SCALE
  5
51
102
{ACAD_REACTORS
330
47
102
}
330
47
100
AcDbScale
 70
     0
300
1:40
140
1.0
141
40.0
290
     0
  0
SCALE
  5
52
102
{ACAD_REACTORS
330
47
102
}
330
47
100
AcDbScale
 70
     0
300
1:50
140
1.0
141
50.0
290
     0
  0
SCALE
  5
53
102
{ACAD_REACTORS
330
47
102
}
330
47
100
AcDbScale
 70
     0
300
1:100
140
1.0
141
100.0
290
     0
  0
SCALE
  5
54
102
{ACAD_REACTORS
330
47
102
}
330
47
100
AcDbScale
 70
     0
300
2:1
140
2.0
141
1.0
290
     0
  0
SCALE
  5
55
102
{ACAD_REACTORS
330
47
102
}
330
47
100
AcDbScale
 70
     0
300
4:1
140
4.0
141
1.0
290
     0
  0
SCALE
  5
56
102
{ACAD_REACTORS
330
47
102
}
330
47
100
AcDbScale
 70
     0
300
8:1
140
8.0
141
1.0
290
     0
  0
SCALE
  5
57
102
{ACAD_REACTORS
330
47
102
}
330
47
100
AcDbScale
 70
     0
300
10:1
140
10.0
141
1.0
290
     0
  0
SCALE
  5
58
102
{ACAD_REACTORS
330
47
102
}
330
47
100
AcDbScale
 70
     0
300
100:1
140
100.0
141
1.0
290
     0
  0
ENDSEC
  0
EOF
