0
SECTION
2
HEADER
9
$ACADVER
1
AC1021
9
$LASTSAVEDBY
1
@tarikjabiri/dxf
9
$HANDSEED
5
52
9
$INSUNITS
70
0
9
$CLAYER
8
0
9
$VIEWCTR
10
0.027870722148684024
20
0
0
ENDSEC
0
SECTION
2
CLASSES
0
ENDSEC
0
SECTION
2
TABLES
0
TABLE
2
VPORT
5
1
330
0
100
AcDbSymbolTable
70
1
0
VPORT
5
19
330
1
100
AcDbSymbolTableRecord
100
AcDbViewportTableRecord
2
*Active
70
0
10
0
20
0
11
1
21
1
12
0.027870722148684024
22
0
13
0
23
0
14
10
24
10
15
10
25
10
16
0
26
0
36
1
17
0
27
0
37
0
40
28.984134109197367
41
2
42
50
43
0
44
0
50
0
51
0
71
0
72
100
73
1
74
3
75
0
76
1
77
0
78
0
281
0
65
1
110
0
120
0
130
0
111
1
121
0
131
0
112
0
122
1
132
0
79
0
146
0
348
10020
60
7
61
5
292
1
282
1
141
0
142
0
63
250
421
3358443
0
ENDTAB
0
TABLE
2
LTYPE
5
2
330
0
100
AcDbSymbolTable
70
3
0
LTYPE
5
12
330
2
100
AcDbSymbolTableRecord
100
AcDbLinetypeTableRecord
2
ByBlock
70
0
3

72
65
73
0
40
0
0
LTYPE
5
13
330
2
100
AcDbSymbolTableRecord
100
AcDbLinetypeTableRecord
2
ByLayer
70
0
3

72
65
73
0
40
0
0
LTYPE
5
14
330
2
100
AcDbSymbolTableRecord
100
AcDbLinetypeTableRecord
2
Continuous
70
0
3
Solid line
72
65
73
0
40
0
0
ENDTAB
0
TABLE
2
LAYER
5
3
330
0
100
AcDbSymbolTable
70
2
0
LAYER
5
15
330
3
100
AcDbSymbolTableRecord
100
AcDbLayerTableRecord
2
0
70
0
62
7
6
Continuous
370
0
390
0
0
LAYER
5
1A
330
3
100
AcDbSymbolTableRecord
100
AcDbLayerTableRecord
2
Splines
70
0
62
1
6
Continuous
370
0
390
0
0
ENDTAB
0
TABLE
2
STYLE
5
4
330
0
100
AcDbSymbolTable
70
1
0
STYLE
5
16
330
4
100
AcDbSymbolTableRecord
100
AcDbTextStyleTableRecord
2
Standard
70
0
40
0
41
1
50
0
71
0
42
1
3
txt
4

0
ENDTAB
0
TABLE
2
VIEW
5
5
330
0
100
AcDbSymbolTable
70
0
0
ENDTAB
0
TABLE
2
UCS
5
6
330
0
100
AcDbSymbolTable
70
0
0
ENDTAB
0
TABLE
2
APPID
5
7
330
0
100
AcDbSymbolTable
70
1
0
APPID
5
17
330
7
100
AcDbSymbolTableRecord
100
AcDbRegAppTableRecord
2
ACAD
70
0
0
ENDTAB
0
TABLE
2
DIMSTYLE
5
8
330
0
100
AcDbSymbolTable
70
1
100
AcDbDimStyleTable
0
DIMSTYLE
105
18
330
8
100
AcDbSymbolTableRecord
100
AcDbDimStyleTableRecord
2
Standard
70
0
340
16
0
ENDTAB
0
TABLE
2
BLOCK_RECORD
5
9
330
0
100
AcDbSymbolTable
70
2
0
BLOCK_RECORD
5
C
330
9
100
AcDbSymbolTableRecord
100
AcDbBlockTableRecord
2
*Model_Space
70
0
280
1
281
0
0
BLOCK_RECORD
5
F
330
9
100
AcDbSymbolTableRecord
100
AcDbBlockTableRecord
2
*Paper_Space
70
0
280
1
281
0
0
ENDTAB
0
ENDSEC
0
SECTION
2
BLOCKS
0
BLOCK
5
D
330
C
100
AcDbEntity
8
0
100
AcDbBlockBegin
2
*Model_Space
70
0
10
0
20
0
30
0
3
*Model_Space
1

0
ENDBLK
5
E
100
AcDbEntity
8
0
100
AcDbBlockEnd
0
BLOCK
5
10
330
F
100
AcDbEntity
8
0
100
AcDbBlockBegin
2
*Paper_Space
70
0
10
0
20
0
30
0
3
*Paper_Space
1

0
ENDBLK
5
11
100
AcDbEntity
8
0
100
AcDbBlockEnd
0
ENDSEC
0
SECTION
2
ENTITIES
0
SPLINE
5
1B
330
C
100
AcDbEntity
8
0
100
AcDbSpline
70
1
71
3
72
49
73
45
74
0
42
0.0000001
43
0.0000001
42
0.0000000001
40
0
40
0
40
0
40
0
40
1
40
2
40
3
40
4
40
5
40
6
40
7
40
8
40
9
40
10
40
11
40
12
40
13
40
14
40
15
40
16
40
17
40
18
40
19
40
20
40
21
40
22
40
23
40
24
40
25
40
26
40
27
40
28
40
29
40
30
40
31
40
32
40
33
40
34
40
35
40
36
40
37
40
38
40
39
40
40
40
41
40
42
40
42
40
42
40
42
10
14.188664729800811
20
-2.988571666990843
30
0
10
14.034909322687357
20
-2.8596897216207786
30
0
10
13.812488443933834
20
-2.686698529086274
30
0
10
13.61638192848881
20
-2.546987274707785
30
0
10
13.441442996604712
20
-2.4329067324963662
30
0
10
13.311689956826212
20
-2.354311893809342
30
0
10
13.16715443459571
20
-2.2729824230526976
30
0
10
12.995040424176684
20
-2.1864158739850623
30
0
10
12.831233496537324
20
-2.114915591067067
30
0
10
12.71652091938979
20
-2.0713033835539068
30
0
10
12.474080470705305
20
-2.000680236911563
30
0
10
12.369713050922305
20
-1.963311243242489
30
0
10
12.329506247780772
20
-1.9455232421985842
30
0
10
12.27643894385798
20
-1.9171707951372485
30
0
10
12.224068197419935
20
-1.8828589179294613
30
0
10
12.193729282811084
20
-1.8581698462507479
30
0
10
12.173967711395013
20
-1.837737511700638
30
0
10
12.153909459105956
20
-1.811229654089951
30
0
10
12.139694544049222
20
-1.7864115923217574
30
0
10
12.128330353976235
20
-1.745817809743818
30
0
10
12.128833426326768
20
-1.7156723802691838
30
0
10
12.132380708795262
20
-1.6939372293129864
30
0
10
12.167169882338802
20
-1.4221381980340697
30
0
10
12.195999625735888
20
-1.1496426092704017
30
0
10
12.197560431488903
20
-1.1276752724859538
30
0
10
12.204022933985886
20
-1.098226400496071
30
0
10
12.22444237136064
20
-1.0613475911701389
30
0
10
12.243997560467134
20
-1.0404766884822032
30
0
10
12.269628272634202
20
-1.0193091049212768
30
0
10
12.29356918895878
20
-1.003984858592677
30
0
10
12.328784005960895
20
-0.9869579192462286
30
0
10
12.38765595558995
20
-0.9656484484204673
30
0
10
12.445831347734254
20
-0.9502984077411571
30
0
10
12.489056566643042
20
-0.9422622114837715
30
0
10
12.599228632132304
20
-0.929969287265748
30
0
10
12.851420885603307
20
-0.9171604118577689
30
0
10
12.973099037598354
20
-0.9011783179064129
30
0
10
13.148979628306739
20
-0.869381811619246
30
0
10
13.336417903390297
20
-0.8248408974649446
30
0
10
13.495813318628828
20
-0.7790358584306204
30
0
10
13.640194065587105
20
-0.7324826640421597
30
0
10
13.836726279498496
20
-0.6618208717135772
30
0
10
14.059766351020574
20
-0.5711008270959355
30
0
10
14.316086360698664
20
-0.45406641916979207
30
0
10
14.49541949296882
20
-0.36411694040992915
30
0
0
LINE
5
1C
330
C
100
AcDbEntity
8
0
100
AcDbLine
10
14.49541949296882
20
-0.36411694040992915
30
0
11
14.49541949296882
21
0.3641169404099309
31
0
0
SPLINE
5
1D
330
C
100
AcDbEntity
8
0
100
AcDbSpline
70
1
71
3
72
49
73
45
74
0
42
0.0000001
43
0.0000001
42
0.0000000001
40
0
40
0
40
0
40
0
40
1
40
2
40
3
40
4
40
5
40
6
40
7
40
8
40
9
40
10
40
11
40
12
40
13
40
14
40
15
40
16
40
17
40
18
40
19
40
20
40
21
40
22
40
23
40
24
40
25
40
26
40
27
40
28
40
29
40
30
40
31
40
32
40
33
40
34
40
35
40
36
40
37
40
38
40
39
40
40
40
41
40
42
40
42
40
42
40
42
10
14.49541949296882
20
0.3641169404099309
30
0
10
14.316086360698664
20
0.45406641916979384
30
0
10
14.059766351020574
20
0.5711008270959372
30
0
10
13.836726279498496
20
0.661820871713579
30
0
10
13.640194065587105
20
0.7324826640421614
30
0
10
13.495813318628828
20
0.779035858430622
30
0
10
13.336417903390297
20
0.8248408974649464
30
0
10
13.148979628306739
20
0.8693818116192478
30
0
10
12.973099037598354
20
0.9011783179064145
30
0
10
12.851420885603307
20
0.9171604118577704
30
0
10
12.599228632132304
20
0.9299692872657496
30
0
10
12.489056566643042
20
0.9422622114837731
30
0
10
12.445831347734254
20
0.9502984077411587
30
0
10
12.38765595558995
20
0.9656484484204688
30
0
10
12.328784005960895
20
0.9869579192462301
30
0
10
12.29356918895878
20
1.0039848585926785
30
0
10
12.269628272634202
20
1.0193091049212781
30
0
10
12.243997560467134
20
1.0404766884822048
30
0
10
12.22444237136064
20
1.0613475911701404
30
0
10
12.204022933985886
20
1.0982264004960727
30
0
10
12.197560431488903
20
1.1276752724859551
30
0
10
12.195999625735888
20
1.1496426092704033
30
0
10
12.167169882338802
20
1.4221381980340713
30
0
10
12.132380708795262
20
1.693937229312988
30
0
10
12.128833426326768
20
1.7156723802691856
30
0
10
12.128330353976235
20
1.7458178097438193
30
0
10
12.139694544049222
20
1.786411592321759
30
0
10
12.153909459105956
20
1.8112296540899526
30
0
10
12.173967711395013
20
1.8377375117006394
30
0
10
12.193729282811084
20
1.8581698462507494
30
0
10
12.224068197419935
20
1.8828589179294628
30
0
10
12.27643894385798
20
1.91717079513725
30
0
10
12.329506247780772
20
1.9455232421985857
30
0
10
12.369713050922305
20
1.9633112432424906
30
0
10
12.474080470705305
20
2.000680236911564
30
0
10
12.71652091938979
20
2.071303383553908
30
0
10
12.831233496537324
20
2.114915591067069
30
0
10
12.995040424176684
20
2.186415873985064
30
0
10
13.16715443459571
20
2.2729824230526994
30
0
10
13.311689956826212
20
2.3543118938093435
30
0
10
13.441442996604712
20
2.432906732496368
30
0
10
13.61638192848881
20
2.546987274707787
30
0
10
13.812488443933834
20
2.686698529086276
30
0
10
14.034909322687357
20
2.8596897216207804
30
0
10
14.188664729800811
20
2.9885716669908446
30
0
0
LINE
5
1E
330
C
100
AcDbEntity
8
0
100
AcDbLine
10
14.188664729800811
20
2.9885716669908446
30
0
11
14.02072243927139
21
3.697175909305048
31
0
0
SPLINE
5
1F
330
C
100
AcDbEntity
8
0
100
AcDbSpline
70
1
71
3
72
49
73
45
74
0
42
0.0000001
43
0.0000001
42
0.0000000001
40
0
40
0
40
0
40
0
40
1
40
2
40
3
40
4
40
5
40
6
40
7
40
8
40
9
40
10
40
11
40
12
40
13
40
14
40
15
40
16
40
17
40
18
40
19
40
20
40
21
40
22
40
23
40
24
40
25
40
26
40
27
40
28
40
29
40
30
40
31
40
32
40
33
40
34
40
35
40
36
40
37
40
38
40
39
40
40
40
41
40
42
40
42
40
42
40
42
10
14.02072243927139
20
3.697175909305048
30
0
10
13.825479477423869
20
3.7433437217722103
30
0
10
13.549078614888918
20
3.798111989865467
30
0
10
13.311129135277314
20
3.834950083634916
30
0
10
13.10359874186106
20
3.858383730566105
30
0
10
12.952373891163086
20
3.8703855858966754
30
0
10
12.786711631010002
20
3.8781968316981468
30
0
10
12.594053937188258
20
3.8783108987280706
30
0
10
12.415581451580932
20
3.868689470500248
30
0
10
12.29349742540764
20
3.856179852068071
30
0
10
12.04514911681227
20
3.8104839264529873
30
0
10
11.935111810184251
20
3.7970380664934624
30
0
10
11.891198458248008
20
3.7948892245440016
30
0
10
11.831051228330834
20
3.7964093341750544
30
0
10
11.768851877553702
20
3.803567599530822
30
0
10
11.73065959805793
20
3.812014479837579
30
0
10
11.703829997820776
20
3.8214045038585605
30
0
10
11.674008584102886
20
3.8360906634609324
30
0
10
11.650167346253037
20
3.8518892513024716
30
0
10
11.621793478730758
20
3.883064941219912
30
0
10
11.608713796568631
20
3.910229659413512
30
0
10
11.602129046036252
20
3.9312449172141273
30
0
10
11.511234604627377
20
4.189746755739443
30
0
10
11.414702007493785
20
4.446196473404805
30
0
10
11.406237871719837
20
4.4665276909187694
30
0
10
11.398796345282424
20
4.495744529972324
30
0
10
11.400492641625297
20
4.537864864476185
30
0
10
11.408600952882168
20
4.565292137190797
30
0
10
11.422005399720426
20
4.595711223386149
30
0
10
11.436522274797856
20
4.6201501337134605
30
0
10
11.46034970827395
20
4.651170343479711
30
0
10
11.503395931024842
20
4.696634864887955
30
0
10
11.548494274635688
20
4.736461230571481
30
0
10
11.583515102845462
20
4.763042080661377
30
0
10
11.6764514023072
20
4.823472571660196
30
0
10
11.896070018863213
20
4.948102677421296
30
0
10
11.997632836436965
20
5.016993853100628
30
0
10
12.14053522713842
20
5.124343313890185
30
0
10
12.288046262041176
20
5.248268672804001
30
0
10
12.409929943848576
20
5.360738082463126
30
0
10
12.518060256487516
20
5.46713749735158
30
0
10
12.661974903245193
20
5.61848667788657
30
0
10
12.820575709605242
20
5.799657272139452
30
0
10
12.997106690289097
20
6.019279249315681
30
0
10
13.11699537845026
20
6.180145602261198
30
0
0
LINE
5
20
330
C
100
AcDbEntity
8
0
100
AcDbLine
10
13.11699537845026
20
6.180145602261198
30
0
11
12.790164609744107
21
6.830919167951214
31
0
0
SPLINE
5
21
330
C
100
AcDbEntity
8
0
100
AcDbSpline
70
1
71
3
72
49
73
45
74
0
42
0.0000001
43
0.0000001
42
0.0000000001
40
0
40
0
40
0
40
0
40
1
40
2
40
3
40
4
40
5
40
6
40
7
40
8
40
9
40
10
40
11
40
12
40
13
40
14
40
15
40
16
40
17
40
18
40
19
40
20
40
21
40
22
40
23
40
24
40
25
40
26
40
27
40
28
40
29
40
30
40
31
40
32
40
33
40
34
40
35
40
36
40
37
40
38
40
39
40
40
40
41
40
42
40
42
40
42
40
42
10
12.790164609744107
20
6.830919167951214
30
0
10
12.589537416929176
20
6.830816395405478
30
0
10
12.30795654358032
20
6.820365952156703
30
0
10
12.067925573915977
20
6.801336143907663
30
0
10
11.86058501822117
20
6.7762783314698245
30
0
10
11.710668634627726
20
6.753081824615068
30
0
10
11.547670424885014
20
6.722478170900664
30
0
10
11.3601795384666
20
6.678159241423101
30
0
10
11.188736655855307
20
6.627638572366466
30
0
10
11.072828336955043
20
6.587311638318429
30
0
10
10.841712494834248
20
6.485574390858141
30
0
10
10.73774208674988
20
6.447114616511817
30
0
10
10.695507981955616
20
6.434896580981212
30
0
10
10.636631466998935
20
6.422504810060331
30
0
10
10.574457898173826
20
6.415125966007928
30
0
10
10.535347111857714
20
6.414537413771264
30
0
10
10.507075218401354
20
6.417486996859138
30
0
10
10.474670783265157
20
6.42489999783742
30
0
10
10.44782878397551
20
6.434774564872714
30
0
10
10.41303012884814
20
6.458566445868686
30
0
10
10.394038396071778
20
6.481982553276861
30
0
10
10.382784686365634
20
6.500912794106016
30
0
10
10.23472568980847
20
6.731484981367373
30
0
10
10.08165376638283
20
6.958760114760306
30
0
10
10.06872908105386
20
6.9765913376333195
30
0
10
10.054750275145976
20
7.0033044989099205
30
0
10
10.04668722998382
20
7.044680667204157
30
0
10
10.04825181628221
20
7.073238539493859
30
0
10
10.05427982047101
20
7.105928953463398
30
0
10
10.06276939071682
20
7.133056931586388
30
0
10
10.07880079995396
20
7.168735971902397
30
0
10
10.110201866007102
20
7.222902133393924
30
0
10
10.144899985928669
20
7.272055368016973
30
0
10
10.172846857293091
20
7.305996086644315
30
0
10
10.249341816473919
20
7.386230251561286
30
0
10
10.434298904436767
20
7.558148475180261
30
0
10
10.517236684652781
20
7.648604677913074
30
0
10
10.63153063354471
20
7.786016079356655
30
0
10
10.74648633485778
20
7.940619399940725
30
0
10
10.839147395407426
20
8.078165493515986
30
0
10
10.919825647763952
20
8.206633464608771
30
0
10
11.024957533537586
20
8.387092009969416
30
0
10
11.137502420289502
20
8.599954990466257
30
0
10
11.258626672041682
20
8.85436787464761
30
0
10
11.338185411039753
20
9.038546288442584
30
0
0
LINE
5
22
330
C
100
AcDbEntity
8
0
100
AcDbLine
10
11.338185411039753
20
9.038546288442584
30
0
11
10.870085695494803
21
9.596405806135607
31
0
0
SPLINE
5
23
330
C
100
AcDbEntity
8
0
100
AcDbSpline
70
1
71
3
72
49
73
45
74
0
42
0.0000001
43
0.0000001
42
0.0000000001
40
0
40
0
40
0
40
0
40
1
40
2
40
3
40
4
40
5
40
6
40
7
40
8
40
9
40
10
40
11
40
12
40
13
40
14
40
15
40
16
40
17
40
18
40
19
40
20
40
21
40
22
40
23
40
24
40
25
40
26
40
27
40
28
40
29
40
30
40
31
40
32
40
33
40
34
40
35
40
36
40
37
40
38
40
39
40
40
40
41
40
42
40
42
40
42
40
42
10
10.870085695494803
20
9.596405806135607
30
0
10
10.674890135607528
20
9.550037989071514
30
0
10
10.403309349211497
20
9.474932220581247
30
0
10
10.174137021198721
20
9.401060412202106
30
0
10
9.978164086250974
20
9.328862013549736
30
0
10
9.837638200805987
20
9.271717674198387
30
0
10
9.686091317151396
20
9.20434897186131
30
0
10
9.513874920353333
20
9.117986290835924
30
0
10
9.358704170915983
20
9.029289963296106
30
0
10
9.255220206762411
20
8.963319749084976
30
0
10
9.05379634598703
20
8.811025861123774
30
0
10
8.96149790805788
20
8.749625548780601
30
0
10
8.923219901926942
20
8.727996997126828
30
0
10
8.868788150091687
20
8.70236138923185
30
0
10
8.809992156406992
20
8.680843231164083
30
0
10
8.77207133588429
20
8.671250975387418
30
0
10
8.743881294302863
20
8.667601104754446
30
0
10
8.710640769234129
20
8.667341310307116
30
0
10
8.682245067634181
20
8.670759516071357
30
0
10
8.642897629406933
20
8.685884961683067
30
0
10
8.619017695246136
20
8.704290089894409
30
0
10
8.603701716769395
20
8.720114779569096
30
0
10
8.406460063891986
20
8.910327109269847
30
0
10
8.205100961187364
20
9.09617519712116
30
0
10
8.18841249943489
20
9.1105451395127
30
0
10
8.168650015101305
20
9.133314509573482
30
0
10
8.151262309285855
20
9.17171591171553
30
0
10
8.146198823373442
20
9.199864821293254
30
0
10
8.144525413646672
20
9.233064214358283
30
0
10
8.146530004131469
20
9.261418783954527
30
0
10
8.153901131708103
20
9.299833188521681
30
0
10
8.171964201464705
20
9.359780878310097
30
0
10
8.194391513070748
20
9.415611118271299
30
0
10
8.213757804520785
20
9.45508195250966
30
0
10
8.269687560371283
20
9.550794346746269
30
0
10
8.41001203525453
20
9.760732532288445
30
0
10
8.469853580913716
20
9.8678772447717
30
0
10
8.549377471627471
20
10.027942702649865
30
0
10
8.625580547737892
20
10.204889279873923
30
0
10
8.684023605271133
20
10.360096911858198
30
0
10
8.732900411877914
20
10.503707697581008
30
0
10
8.793581849493076
20
10.703547040876963
30
0
10
8.854003492660905
20
10.936626909241648
30
0
10
8.913191175717605
20
11.212115235989588
30
0
10
8.948130933340186
20
11.409676604673528
30
0
0
LINE
5
24
330
C
100
AcDbEntity
8
0
100
AcDbLine
10
8.948130933340186
20
11.409676604673528
30
0
11
8.363997647784563
21
11.844547723374168
31
0
0
SPLINE
5
25
330
C
100
AcDbEntity
8
0
100
AcDbSpline
70
1
71
3
72
49
73
45
74
0
42
0.0000001
43
0.0000001
42
0.0000000001
40
0
40
0
40
0
40
0
40
1
40
2
40
3
40
4
40
5
40
6
40
7
40
8
40
9
40
10
40
11
40
12
40
13
40
14
40
15
40
16
40
17
40
18
40
19
40
20
40
21
40
22
40
23
40
24
40
25
40
26
40
27
40
28
40
29
40
30
40
31
40
32
40
33
40
34
40
35
40
36
40
37
40
38
40
39
40
40
40
41
40
42
40
42
40
42
40
42
10
8.363997647784563
20
11.844547723374168
30
0
10
8.184756763982955
20
11.754414562811508
30
0
10
7.937817055030427
20
11.618702440499458
30
0
10
7.731858108191433
20
11.493971080300941
30
0
10
7.557817745639479
20
11.37852432979325
30
0
10
7.43425814520106
20
11.290512824070998
30
0
10
7.302332519358856
20
11.19001093729198
30
0
10
7.154674842709083
20
11.066260339206996
30
0
10
7.024141521712292
20
10.944169995159857
30
0
10
6.9386607595987595
20
10.85611297210951
30
0
10
6.777787692639812
20
10.661472646567184
30
0
10
6.702137057545201
20
10.580441902958464
30
0
10
6.669878727296004
20
10.550568835999517
30
0
10
6.622826168412746
20
10.51307141338759
30
0
10
6.570577457106782
20
10.47857399077566
30
0
10
6.535890923627308
20
10.460495152450775
30
0
10
6.5093024663591885
20
10.450442593567518
30
0
10
6.477017856668362
20
10.442524009280474
30
0
10
6.448599272381321
20
10.43930157741614
30
0
10
6.406824281633727
20
10.444945170955588
30
0
10
6.379343519520194
20
10.457347094744236
30
0
10
6.360790960636936
20
10.46921312014802
30
0
10
6.125
20
10.608811196359373
30
0
10
5.886209039363064
20
10.74321312014802
30
0
10
5.866656480479806
20
10.753347094744235
30
0
10
5.842175718366273
20
10.770945170955589
30
0
10
5.81640072761868
20
10.804301577416139
30
0
10
5.804982143331638
20
10.830524009280476
30
0
10
5.795697533640811
20
10.862442593567517
30
0
10
5.791109076372692
20
10.890495152450775
30
0
10
5.789422542893218
20
10.92957399077566
30
0
10
5.7931738315872545
20
10.99207141338759
30
0
10
5.802121272703996
20
11.051568835999518
30
0
10
5.811862942454798
20
11.094441902958463
30
0
10
5.844212307360188
20
11.200472646567185
30
0
10
5.932339240401241
20
11.43711297210951
30
0
10
5.965858478287708
20
11.555169995159858
30
0
10
6.006325157290917
20
11.729260339206997
30
0
10
6.039667480641144
20
11.91901093729198
30
0
10
6.060741854798939
20
12.083512824070997
30
0
10
6.07518225436052
20
12.23452432979325
30
0
10
6.088141891808568
20
12.442971080300943
30
0
10
6.093182944969573
20
12.68370244049946
30
0
10
6.087243236017045
20
12.965414562811507
30
0
10
6.075680400886886
20
13.165708301861807
30
0
0
LINE
5
26
330
C
100
AcDbEntity
8
0
100
AcDbLine
10
6.075680400886886
20
13.165708301861807
30
0
11
5.407004321942161
21
13.454147006998724
31
0
0
SPLINE
5
27
330
C
100
AcDbEntity
8
0
100
AcDbSpline
70
1
71
3
72
49
73
45
74
0
42
0.0000001
43
0.0000001
42
0.0000000001
40
0
40
0
40
0
40
0
40
1
40
2
40
3
40
4
40
5
40
6
40
7
40
8
40
9
40
10
40
11
40
12
40
13
40
14
40
15
40
16
40
17
40
18
40
19
40
20
40
21
40
22
40
23
40
24
40
25
40
26
40
27
40
28
40
29
40
30
40
31
40
32
40
33
40
34
40
35
40
36
40
37
40
38
40
39
40
40
40
41
40
42
40
42
40
42
40
42
10
5.407004321942161
20
13.454147006998724
30
0
10
5.253381036666737
20
13.325107604953526
30
0
10
5.044394988785303
20
13.136105404461315
30
0
10
4.872752723254667
20
12.967238792357232
30
0
10
4.730027494092352
20
12.814767454196366
30
0
10
4.630095308702345
20
12.700633505157628
30
0
10
4.524903085309358
20
12.572416516666868
30
0
10
4.409764392375828
20
12.417949428296696
30
0
10
4.3109055849418265
20
12.269046989791724
30
0
10
4.248036314879742
20
12.163650334807514
30
0
10
4.136386750417429
20
11.937156682014823
30
0
10
4.081462263476745
20
11.840863895502528
30
0
10
4.056962664042778
20
11.80435677801052
30
0
10
4.019825913740016
20
11.757019036440498
30
0
10
3.976941226363361
20
11.711402114266741
30
0
10
3.94735893992527
20
11.685811328247262
30
0
10
3.923805457583947
20
11.669898017165123
30
0
10
3.8942172349360202
20
11.654747535966932
30
0
10
3.8673078211966754
20
11.645058188609925
30
0
10
3.825357378492994
20
11.640915682488608
30
0
10
3.795757283425396
20
11.646645810932995
30
0
10
3.7749683173871666
20
11.653913471564955
30
0
10
3.5133396007108555
20
11.735371525864739
30
0
10
3.249990064638278
20
11.811081643090631
30
0
10
3.2286274921346267
20
11.816433324697961
30
0
10
3.2007482164632957
20
11.82791139021624
30
0
10
3.167975477206369
20
11.85442454848902
30
0
10
3.1508173733792013
20
11.87730684455074
30
0
10
3.134422099435984
20
11.90622388091906
30
0
10
3.1234879593339495
20
11.9324621083788
30
0
10
3.11283468625479
20
11.970098630172144
30
0
10
3.1020719609417773
20
12.031776533377721
30
0
10
3.097057172702658
20
12.091733617187034
30
0
10
3.096649044816422
20
12.135697618729528
30
0
10
3.1036740561413327
20
12.24633056687738
30
0
10
3.134852501569144
20
12.4969156912178
30
0
10
3.1402424008922987
20
12.619520540164677
30
0
10
3.13947029904549
20
12.798250514871603
30
0
10
3.128154376353375
20
12.990575629959638
30
0
10
3.1107239421699804
20
13.155503432237415
30
0
10
3.089949449008235
20
13.305774588597751
30
0
10
3.0544886288798687
20
13.511591328042883
30
0
10
3.0038773275533117
20
13.746996290135936
30
0
10
2.9331304378386234
20
14.019745034579788
30
0
10
2.875688365390518
20
14.211973256680142
30
0
0
LINE
5
28
330
C
100
AcDbEntity
8
0
100
AcDbLine
10
2.875688365390518
20
14.211973256680142
30
0
11
2.158517993552952
21
14.338429742999827
31
0
0
SPLINE
5
29
330
C
100
AcDbEntity
8
0
100
AcDbSpline
70
1
71
3
72
49
73
45
74
0
42
0.0000001
43
0.0000001
42
0.0000000001
40
0
40
0
40
0
40
0
40
1
40
2
40
3
40
4
40
5
40
6
40
7
40
8
40
9
40
10
40
11
40
12
40
13
40
14
40
15
40
16
40
17
40
18
40
19
40
20
40
21
40
22
40
23
40
24
40
25
40
26
40
27
40
28
40
29
40
30
40
31
40
32
40
33
40
34
40
35
40
36
40
37
40
38
40
39
40
40
40
41
40
42
40
42
40
42
40
42
10
2.158517993552952
20
14.338429742999827
30
0
10
2.038794177876817
20
14.177440647036955
30
0
10
1.879028283001787
20
13.945337525914509
30
0
10
1.7509559777422097
20
13.741439304672884
30
0
10
1.6472402360167226
20
13.56016314816483
30
0
10
1.576322835655987
20
13.426059746544755
30
0
10
1.5035349547033232
20
13.277039867379523
30
0
10
1.4271224022246232
20
13.100183649440513
30
0
10
1.3652676122508258
20
12.932496485479472
30
0
10
1.3283991328623412
20
12.815442159512505
30
0
10
1.2719921278162396
20
12.5693055109172
30
0
10
1.2407547823371265
20
12.462941850546665
30
0
10
1.22533469346536
20
12.421768790675108
30
0
10
1.2001158035644055
20
12.367142720047948
30
0
10
1.1689070647138233
20
12.312865518394249
30
0
10
1.1460238140360808
20
12.281142390578418
30
0
10
1.1267750809511676
20
12.26022621801684
30
0
10
1.1014783540877162
20
12.23866060627045
30
0
10
1.0775288043559992
20
12.22302669864478
30
0
10
1.0376644689208518
20
12.209321416439948
30
0
10
1.0075407896859825
20
12.20807083683245
30
0
10
0.9856361550329251
20
12.21034833122675
30
0
10
0.712274154153329
20
12.229274938823036
30
0
10
0.4385632843002701
20
12.242211697469692
30
0
10
0.41654235998939176
20
12.24249257554745
30
0
10
0.3867675497279851
20
12.24723184488958
30
0
10
0.3487638488179733
20
12.26547242374943
30
0
10
0.32679122326921217
20
12.28378099350498
30
0
10
0.30416915853564275
20
12.308137557039071
30
0
10
0.2874787979227903
20
12.331146943441427
30
0
10
0.26843310595313935
20
12.365312154071498
30
0
10
0.24373658794053055
20
12.422845466144185
30
0
10
0.2250299188775493
20
12.480029909243404
30
0
10
0.21449399563426275
20
12.522714734666634
30
0
10
0.1958159331998124
20
12.631985636482693
30
0
10
0.1683650529511278
20
12.88300645070648
30
0
10
0.14533504284333632
20
13.003549466408074
30
0
10
0.10336578435692167
20
13.177283692575806
30
0
10
0.04800165994381411
20
13.361815027930996
30
0
10
-0.006993903362244369
20
13.51827744519677
30
0
10
-0.061863330943688566
20
13.659707095259565
30
0
10
-0.14383290665665738
20
13.851798189944969
30
0
10
-0.24736809411601413
20
14.069186011493821
30
0
10
-0.3791081814561946
20
14.318267422658126
30
0
10
-0.47933277422824194
20
14.492067054598683
30
0
0
LINE
5
2A
330
C
100
AcDbEntity
8
0
100
AcDbLine
10
-0.47933277422824194
20
14.492067054598683
30
0
11
-1.2063345985802545
21
14.4497240201916
31
0
0
SPLINE
5
2B
330
C
100
AcDbEntity
8
0
100
AcDbSpline
70
1
71
3
72
49
73
45
74
0
42
0.0000001
43
0.0000001
42
0.0000000001
40
0
40
0
40
0
40
0
40
1
40
2
40
3
40
4
40
5
40
6
40
7
40
8
40
9
40
10
40
11
40
12
40
13
40
14
40
15
40
16
40
17
40
18
40
19
40
20
40
21
40
22
40
23
40
24
40
25
40
26
40
27
40
28
40
29
40
30
40
31
40
32
40
33
40
34
40
35
40
36
40
37
40
38
40
39
40
40
40
41
40
42
40
42
40
42
40
42
10
-1.2063345985802545
20
14.4497240201916
30
0
10
-1.2857046027646462
20
14.265464194144885
30
0
10
-1.3876373238866984
20
14.002772891729572
30
0
10
-1.4652352577483923
20
13.774835267234632
30
0
10
-1.5243501695548116
20
13.574526936898323
30
0
10
-1.562429609476544
20
13.427683631789622
30
0
10
-1.5988891344862854
20
13.265894562208072
30
0
10
-1.6324561260273762
20
13.076183579186845
30
0
10
-1.6539722908029661
20
12.898751748183077
30
0
10
-1.662852390250968
20
12.776350180244616
30
0
10
-1.6609759196384146
20
12.523839826282567
30
0
10
-1.6668421102756914
20
12.413139384515572
30
0
10
-1.6723513876028393
20
12.36952003257939
30
0
10
-1.6842928602197598
20
12.310550538502035
30
0
10
-1.7021431793547532
20
12.250539155358677
30
0
10
-1.717093752305001
20
12.214393887778268
30
0
10
-1.7310000319505483
20
12.189602450013995
30
0
10
-1.7506415099365018
20
12.162784315430708
30
0
10
-1.7703400692354452
20
12.14204867554316
30
0
10
-1.8059692007602504
20
12.119519472565957
30
0
10
-1.8349924888176157
20
12.11135560397691
30
0
10
-1.856831907561551
20
12.108520151821251
30
0
10
-2.127190176419897
20
12.063894974399549
30
0
10
-2.396506556212241
20
12.013360950459772
30
0
10
-2.417998678600843
20
12.008555882798088
30
0
10
-2.44806385572421
20
12.006300860727118
30
0
10
-2.489249728934357
20
12.015285505846302
30
0
10
-2.5148523262739753
20
12.02803332956117
30
0
10
-2.5424816204326075
20
12.046516351616445
30
0
10
-2.5640284198954997
20
12.06505645498471
30
0
10
-2.590439772571765
20
12.093908499103105
30
0
10
-2.627738687605455
20
12.144195584297115
30
0
10
-2.6591287561210715
20
12.195524558557127
30
0
10
-2.679224480372241
20
12.234629057873969
30
0
10
-2.722598677385575
20
12.336647090757614
30
0
10
-2.807198999251154
20
12.574570997795643
30
0
10
-2.8574073649838843
20
12.686553675074087
30
0
10
-2.938311206521564
20
12.845926095600495
30
0
10
-3.0347388383780847
20
13.012715519169689
30
0
10
-3.124334705753906
20
13.152277622009871
30
0
10
-3.2103410427117116
20
13.277241256732538
30
0
10
-3.334400372965563
20
13.445251026022799
30
0
10
-3.485277837802701
20
13.632902273299011
30
0
10
-3.670908980560214
20
13.84488830783558
30
0
10
-3.8085129599176932
20
13.990889766472069
30
0
0
LINE
5
2C
330
C
100
AcDbEntity
8
0
100
AcDbLine
10
-3.8085129599176932
20
13.990889766472069
30
0
11
-4.506153380255925
21
13.782029935283191
31
0
0
SPLINE
5
2D
330
C
100
AcDbEntity
8
0
100
AcDbSpline
70
1
71
3
72
49
73
45
74
0
42
0.0000001
43
0.0000001
42
0.0000000001
40
0
40
0
40
0
40
0
40
1
40
2
40
3
40
4
40
5
40
6
40
7
40
8
40
9
40
10
40
11
40
12
40
13
40
14
40
15
40
16
40
17
40
18
40
19
40
20
40
21
40
22
40
23
40
24
40
25
40
26
40
27
40
28
40
29
40
30
40
31
40
32
40
33
40
34
40
35
40
36
40
37
40
38
40
39
40
40
40
41
40
42
40
42
40
42
40
42
10
-4.506153380255925
20
13.782029935283191
30
0
10
-4.540890715478832
20
13.58443287406869
30
0
10
-4.579495043467915
20
13.305315146468828
30
0
10
-4.602435281231765
20
13.065626295056548
30
0
10
-4.613762462922308
20
12.857084464828294
30
0
10
-4.6169510699423615
20
12.70541761681835
30
0
10
-4.615116696578709
20
12.539581447439161
30
0
10
-4.6040285219797195
20
12.347243067535247
30
0
10
-4.584046119544798
20
12.169631965424685
30
0
10
-4.564459110592547
20
12.04848185572476
30
0
10
-4.504400325337768
20
11.803210694937926
30
0
10
-4.484579113277546
20
11.694141361243876
30
0
10
-4.479880572493344
20
11.650427247796397
30
0
10
-4.477900859946518
20
11.590293390958239
30
0
10
-4.4814304440409725
20
11.527783055523846
30
0
10
-4.487642350006166
20
11.489164248909976
30
0
10
-4.49545648507715
20
11.461834058769904
30
0
10
-4.508383837023376
20
11.431209173926721
30
0
10
-4.522769451458957
20
11.406489665490856
30
0
10
-4.552242603370661
20
11.376351096905244
30
0
10
-4.578600847278952
20
11.361714055603429
30
0
10
-4.599197681396356
20
11.353918516857446
30
0
10
-4.851977133979669
20
11.248147309283357
30
0
10
-5.102380107966747
20
11.136866805067987
30
0
10
-5.1221847825520745
20
11.127234834108247
30
0
10
-5.1509195050566
20
11.118107089447713
30
0
10
-5.1930672094815575
20
11.11735143628227
30
0
10
-5.2209195359624685
20
11.123851275480334
30
0
10
-5.252066557146496
20
11.13546433155364
30
0
10
-5.277308201923202
20
11.148535650116301
30
0
10
-5.30966137244698
20
11.170519106556528
30
0
10
-5.357551890337821
20
11.210848975092729
30
0
10
-5.399933111587379
20
11.25355532222516
30
0
10
-5.428505271150467
20
11.286971361755622
30
0
10
-5.494237288554704
20
11.376236707147713
30
0
10
-5.631426226787425
20
11.588237167587259
30
0
10
-5.706106202152492
20
11.685622491324835
30
0
10
-5.821583079702963
20
11.822041297767326
30
0
10
-5.953875780410148
20
11.962097148554072
30
0
10
-6.073241815454477
20
12.077235107880247
30
0
10
-6.185748437901337
20
12.17899590536926
30
0
10
-6.345209452090526
20
12.31386689911423
30
0
10
-6.535295351122899
20
12.461665244805424
30
0
10
-6.764810126342856
20
12.625127680721855
30
0
10
-6.932375226141144
20
12.735459989628112
30
0
0
LINE
5
2E
330
C
100
AcDbEntity
8
0
100
AcDbLine
10
-6.932375226141144
20
12.735459989628112
30
0
11
-7.563044266827672
21
12.371343049218181
31
0
0
SPLINE
5
2F
330
C
100
AcDbEntity
8
0
100
AcDbSpline
70
1
71
3
72
49
73
45
74
0
42
0.0000001
43
0.0000001
42
0.0000000001
40
0
40
0
40
0
40
0
40
1
40
2
40
3
40
4
40
5
40
6
40
7
40
8
40
9
40
10
40
11
40
12
40
13
40
14
40
15
40
16
40
17
40
18
40
19
40
20
40
21
40
22
40
23
40
24
40
25
40
26
40
27
40
28
40
29
40
30
40
31
40
32
40
33
40
34
40
35
40
36
40
37
40
38
40
39
40
40
40
41
40
42
40
42
40
42
40
42
10
-7.563044266827672
20
12.371343049218181
30
0
10
-7.551276234355804
20
12.17106126155206
30
0
10
-7.52447099989767
20
11.890564417709488
30
0
10
-7.491516827407967
20
11.65204602740065
30
0
10
-7.4544456276857645
20
11.446513241327096
30
0
10
-7.422571503174347
20
11.298199249449626
30
0
10
-7.382542122980144
20
11.137256251089125
30
0
10
-7.327396548603772
20
10.952659486148079
30
0
10
-7.26699283544586
20
10.784444173418422
30
0
10
-7.219994658815879
20
10.671076755729489
30
0
10
-7.1049913435775975
20
10.446267419881964
30
0
10
-7.060551295492572
20
10.34470915027185
30
0
10
-7.045898236146871
20
10.303256914484002
30
0
10
-7.030104065252127
20
10.245200526672258
30
0
10
-7.01912263351391
20
10.183561187310298
30
0
10
-7.016260987035575
20
10.144550791523622
30
0
10
-7.017561715487704
20
10.116155226632362
30
0
10
-7.023078024504661
20
10.08337458699813
30
0
10
-7.0313751618790805
20
10.05600384511213
30
0
10
-7.053103428929282
20
10.019880688951641
30
0
10
-7.075375648936825
20
9.999559561622291
30
0
10
-7.093619517769139
20
9.987224195797586
30
0
10
-7.315192748359129
20
9.826009111249288
30
0
10
-7.533183027398903
20
9.65998128754446
30
0
10
-7.550232579047812
20
9.646041675334242
30
0
10
-7.576087750605571
20
9.630533287161423
30
0
10
-7.616925092590262
20
9.620078073169097
30
0
10
-7.645525622082575
20
9.619979519836768
30
0
10
-7.67851122631786
20
9.624096547069268
30
0
10
-7.706086932804912
20
9.630994402659228
30
0
10
-7.74263775337896
20
9.644924137594385
30
0
10
-7.798538083911458
20
9.67312259582099
30
0
10
-7.849625675287425
20
9.704904005597811
30
0
10
-7.885133937644757
20
9.730830118001386
30
0
10
-7.969680145367534
20
9.802530458026363
30
0
10
-8.15206180879724
20
9.97717847217085
30
0
10
-8.247187376992523
20
10.054716374357618
30
0
10
-8.391011902196961
20
10.160827193550183
30
0
10
-8.552037738016999
20
10.266599024386464
30
0
10
-8.694738886883847
20
10.351105723009008
30
0
10
-8.8276805336824
20
10.424177732331927
30
0
10
-9.01394664725704
20
10.518639020348763
30
0
10
-9.232993400465913
20
10.618616617382553
30
0
10
-9.49401860720852
20
10.724743152447912
30
0
10
-9.682511349544882
20
10.79345826829235
30
0
0
LINE
5
30
330
C
100
AcDbEntity
8
0
100
AcDbLine
10
-9.682511349544882
20
10.79345826829235
30
0
11
-10.212209479353696
21
10.293713857167026
31
0
0
SPLINE
5
31
330
C
100
AcDbEntity
8
0
100
AcDbSpline
70
1
71
3
72
49
73
45
74
0
42
0.0000001
43
0.0000001
42
0.0000000001
40
0
40
0
40
0
40
0
40
1
40
2
40
3
40
4
40
5
40
6
40
7
40
8
40
9
40
10
40
11
40
12
40
13
40
14
40
15
40
16
40
17
40
18
40
19
40
20
40
21
40
22
40
23
40
24
40
25
40
26
40
27
40
28
40
29
40
30
40
31
40
32
40
33
40
34
40
35
40
36
40
37
40
38
40
39
40
40
40
41
40
42
40
42
40
42
40
42
10
-10.212209479353696
20
10.293713857167026
30
0
10
-10.154570496863654
20
10.101544586063374
30
0
10
-10.063800777086215
20
9.834790283433547
30
0
10
-9.97672876231175
20
9.610300942387886
30
0
10
-9.893257699149347
20
9.418857526166438
30
0
10
-9.82803918540918
20
9.281892036113199
30
0
10
-9.751972792631916
20
9.134518687471544
30
0
10
-9.655742730666692
20
8.967615196872428
30
0
10
-9.558174086597049
20
8.817864204573842
30
0
10
-9.486298426156486
20
8.718391145727576
30
0
10
-9.322550439426696
20
8.52616316430463
30
0
10
-9.255887329812007
20
8.43759099138051
30
0
10
-9.232069702126935
20
8.400635334013128
30
0
10
-9.203312540725378
20
8.347786250122065
30
0
10
-9.178412104981938
20
8.290340899572287
30
0
10
-9.166631178162428
20
8.253041975147132
30
0
10
-9.161348377388167
20
8.225111847757887
30
0
10
-9.159156257828908
20
8.19194266610024
30
0
10
-9.160917617318677
20
8.163396254543834
30
0
10
-9.17372962300655
20
8.12323591950721
30
0
10
-9.190715117967788
20
8.09832622338458
30
0
10
-9.20562248982401
20
8.082116033245649
30
0
10
-9.38404442820748
20
7.874148218660109
30
0
10
-9.557870099932233
20
7.662323678416449
30
0
10
-9.57124538290222
20
7.644827913058146
30
0
10
-9.592827144522174
20
7.623774942593636
30
0
10
-9.63015257238985
20
7.60418381106698
30
0
10
-9.657959442945664
20
7.597492178239914
30
0
10
-9.691005367769877
20
7.593891226627849
30
0
10
-9.719428522492853
20
7.594243754064811
30
0
10
-9.758206528919196
20
7.599368811878969
30
0
10
-9.819103070805081
20
7.613915673614084
30
0
10
-9.876142887032849
20
7.633058802007913
30
0
10
-9.91667299256977
20
7.6500973038542
30
0
10
-10.015475482668784
20
7.700367254622372
30
0
10
-10.233217628612243
20
7.828247502823324
30
0
10
-10.343660545633998
20
7.881757895082452
30
0
10
-10.508079101111043
20
7.951840265296663
30
0
10
-10.689157127554891
20
8.017625889404076
30
0
10
-10.84750033437203
20
8.066945549326501
30
0
10
-10.993710086932703
20
8.107389439546747
30
0
10
-11.1967396454968
20
8.156348589348065
30
0
10
-11.432938385718543
20
8.203115619590124
30
0
10
-11.711402087524453
20
8.246184944829208
30
0
10
-11.910660779870003
20
8.269578417930406
30
0
0
LINE
5
32
330
C
100
AcDbEntity
8
0
100
AcDbLine
10
-11.910660779870003
20
8.269578417930406
30
0
11
-12.310831835515863
21
7.661147886647472
31
0
0
SPLINE
5
33
330
C
100
AcDbEntity
8
0
100
AcDbSpline
70
1
71
3
72
49
73
45
74
0
42
0.0000001
43
0.0000001
42
0.0000000001
40
0
40
0
40
0
40
0
40
1
40
2
40
3
40
4
40
5
40
6
40
7
40
8
40
9
40
10
40
11
40
12
40
13
40
14
40
15
40
16
40
17
40
18
40
19
40
20
40
21
40
22
40
23
40
24
40
25
40
26
40
27
40
28
40
29
40
30
40
31
40
32
40
33
40
34
40
35
40
36
40
37
40
38
40
39
40
40
40
41
40
42
40
42
40
42
40
42
10
-12.310831835515863
20
7.661147886647472
30
0
10
-12.21042923547298
20
7.48745102725265
30
0
10
-12.060588449464305
20
7.24882005933712
30
0
10
-11.924092667259318
20
7.050462046037307
30
0
10
-11.798721687277482
20
6.883428763789743
30
0
10
-11.70367473126548
20
6.7651956205817045
30
0
10
-11.595672084828829
20
6.639336857030336
30
0
10
-11.46354532282352
20
6.4991244511527055
30
0
10
-11.334071698698642
20
6.37591089404161
30
0
10
-11.241193389906169
20
6.295694812388052
30
0
10
-11.03752842803406
20
6.146411245624554
30
0
10
-10.952236082384141
20
6.075600118154818
30
0
10
-10.920537900833164
20
6.045133328262195
30
0
10
-10.880368054939463
20
6.000340656083854
30
0
10
-10.842891004126965
20
5.950186188063572
30
0
10
-10.822825909780502
20
5.916609529670166
30
0
10
-10.811244376936996
20
5.890650560179934
30
0
10
-10.801462006534368
20
5.858880995667562
30
0
10
-10.796592632793482
20
5.830697858876715
30
0
10
-10.799797678576125
20
5.7886653990208945
30
0
10
-10.810580756061169
20
5.760510022270592
30
0
10
-10.821347970665903
20
5.741298903363676
30
0
10
-10.946999843961798
20
5.497789957455663
30
0
10
-11.067289921415755
20
5.2515882164664465
30
0
10
-11.076269870739841
20
5.231479499199131
30
0
10
-11.092414744066827
20
5.206016917530031
30
0
10
-11.124216034339819
20
5.178346031440625
30
0
10
-11.149730170369928
20
5.165422066776594
30
0
10
-11.181054901422177
20
5.154297264553443
30
0
10
-11.2087932047529
20
5.148085458992031
30
0
10
-11.247707864667781
20
5.144129546491854
30
0
10
-11.310317669571507
20
5.144240586654026
30
0
10
-11.370234679394027
20
5.149713422658135
30
0
10
-11.413601639630217
20
5.156945763902351
30
0
10
-11.521333944290157
20
5.183075259355915
30
0
10
-11.762698037299106
20
5.2572936843322475
30
0
10
-11.882504296903607
20
5.2838918075664
30
0
10
-12.058653035769332
20
5.314167570083861
30
0
10
-12.250021289561102
20
5.3364204674388
30
0
10
-12.415470231063413
20
5.347894253028772
30
0
10
-12.567065883780671
20
5.3535296835560615
30
0
10
-12.775913511279795
20
5.354347294703471
30
0
10
-13.016530703291288
20
5.345382535448252
30
0
10
-13.297420849918499
20
5.323072772389345
30
0
10
-13.496703404592704
20
5.299883454557243
30
0
0
LINE
5
34
330
C
100
AcDbEntity
8
0
100
AcDbLine
10
-13.496703404592704
20
5.299883454557243
30
0
11
-13.74577406088532
21
4.615567450544535
31
0
0
SPLINE
5
35
330
C
100
AcDbEntity
8
0
100
AcDbSpline
70
1
71
3
72
49
73
45
74
0
42
0.0000001
43
0.0000001
42
0.0000000001
40
0
40
0
40
0
40
0
40
1
40
2
40
3
40
4
40
5
40
6
40
7
40
8
40
9
40
10
40
11
40
12
40
13
40
14
40
15
40
16
40
17
40
18
40
19
40
20
40
21
40
22
40
23
40
24
40
25
40
26
40
27
40
28
40
29
40
30
40
31
40
32
40
33
40
34
40
35
40
36
40
37
40
38
40
39
40
40
40
41
40
42
40
42
40
42
40
42
10
-13.74577406088532
20
4.615567450544535
30
0
10
-13.60802057344615
20
4.469707045508274
30
0
10
-13.407186676764809
20
4.272064069554691
30
0
10
-13.22862565007859
20
4.110530915840777
30
0
10
-13.068113535259208
20
3.976912575048017
30
0
10
-12.948362142975967
20
3.8837857580390316
30
0
10
-12.814245693504771
20
3.7862266580983297
30
0
10
-12.653345219398823
20
3.680264224035679
30
0
10
-12.498946571808279
20
3.5902305768685716
30
0
10
-12.390072708331555
20
3.533595942132826
30
0
10
-12.15747040212836
20
3.4353047057536057
30
0
10
-12.058146952874301
20
3.3860720699489266
30
0
10
-12.020277074629599
20
3.3637366200602066
30
0
10
-11.970860111033463
20
3.329415144145874
30
0
10
-11.922826842661781
20
3.289255399008062
30
0
10
-11.895559295218238
20
3.261211132991385
30
0
10
-11.878303393738847
20
3.2386227761646147
30
0
10
-11.861458142613328
20
3.2099655342436226
30
0
10
-11.85022054484055
20
3.1836650324176654
30
0
10
-11.843645845870228
20
3.1420264285331734
30
0
10
-11.84764518738076
20
3.1121432348035514
30
0
10
-11.853691781407674
20
3.0909668635215373
30
0
10
-11.919799664602841
20
2.825044416594893
30
0
10
-11.98006927857453
20
2.557738274443794
30
0
10
-11.984169782860285
20
2.5361006714202956
30
0
10
-11.994007393594298
20
2.507601172915128
30
0
10
-12.01857013048253
20
2.4733422768943942
30
0
10
-12.040416058309463
20
2.4548827146736794
30
0
10
-12.068330871230618
20
2.4368338028068397
30
0
10
-12.093888944056737
20
2.4243925442927368
30
0
10
-12.130842358071462
20
2.411568925745061
30
0
10
-12.191790115204721
20
2.3972381581304028
30
0
10
-12.251354177113525
20
2.388745659739223
30
0
10
-12.295220067997528
20
2.385781942992868
30
0
10
-12.40607431078871
20
2.3863623352685557
30
0
10
-12.658048350134269
20
2.402917802519071
30
0
10
-12.780759165855542
20
2.4011697450200264
30
0
10
-12.9591418640033
20
2.390006725646833
30
0
10
-13.15048363304725
20
2.367527236792946
30
0
10
-13.314118913973477
20
2.3405365932994306
30
0
10
-13.462927905970265
20
2.3110597566153586
30
0
10
-13.666334572747742
20
2.2636917514802715
30
0
10
-13.898398481446208
20
2.199478495219667
30
0
10
-14.166572212384342
20
2.1129923689639405
30
0
10
-14.355135255282345
20
2.0444704023251985
30
0
0
LINE
5
36
330
C
100
AcDbEntity
8
0
100
AcDbLine
10
-14.355135255282345
20
2.0444704023251985
30
0
11
-14.43967804867145
21
1.3211605784876388
31
0
0
SPLINE
5
37
330
C
100
AcDbEntity
8
0
100
AcDbSpline
70
1
71
3
72
49
73
45
74
0
42
0.0000001
43
0.0000001
42
0.0000000001
40
0
40
0
40
0
40
0
40
1
40
2
40
3
40
4
40
5
40
6
40
7
40
8
40
9
40
10
40
11
40
12
40
13
40
14
40
15
40
16
40
17
40
18
40
19
40
20
40
21
40
22
40
23
40
24
40
25
40
26
40
27
40
28
40
29
40
30
40
31
40
32
40
33
40
34
40
35
40
36
40
37
40
38
40
39
40
40
40
41
40
42
40
42
40
42
40
42
10
-14.43967804867145
20
1.3211605784876388
30
0
10
-14.272
20
1.211000000000001
30
0
10
-14.031
20
1.0650000000000008
30
0
10
-13.82
20
0.9490000000000008
30
0
10
-13.633
20
0.8560000000000009
30
0
10
-13.495
20
0.7930000000000008
30
0
10
-13.342
20
0.7290000000000008
30
0
10
-13.161
20
0.6630000000000008
30
0
10
-12.99
20
0.6110000000000008
30
0
10
-12.871
20
0.5810000000000007
30
0
10
-12.622
20
0.5390000000000008
30
0
10
-12.514
20
0.5140000000000008
30
0
10
-12.472
20
0.5010000000000008
30
0
10
-12.416
20
0.47900000000000076
30
0
10
-12.36
20
0.4510000000000008
30
0
10
-12.327
20
0.43000000000000077
30
0
10
-12.305
20
0.41200000000000075
30
0
10
-12.282
20
0.3880000000000008
30
0
10
-12.265
20
0.36500000000000077
30
0
10
-12.249
20
0.3260000000000008
30
0
10
-12.246
20
0.29600000000000076
30
0
10
-12.247
20
0.2740000000000008
30
0
10
-12.25
20
7.500961644777539e-16
30
0
10
-12.247
20
-0.27399999999999924
30
0
10
-12.246
20
-0.2959999999999992
30
0
10
-12.249
20
-0.32599999999999923
30
0
10
-12.265
20
-0.3649999999999992
30
0
10
-12.282
20
-0.38799999999999923
30
0
10
-12.305
20
-0.4119999999999992
30
0
10
-12.327
20
-0.4299999999999992
30
0
10
-12.36
20
-0.45099999999999923
30
0
10
-12.416
20
-0.4789999999999992
30
0
10
-12.472
20
-0.5009999999999992
30
0
10
-12.514
20
-0.5139999999999992
30
0
10
-12.622
20
-0.5389999999999993
30
0
10
-12.871
20
-0.5809999999999992
30
0
10
-12.99
20
-0.6109999999999992
30
0
10
-13.161
20
-0.6629999999999993
30
0
10
-13.342
20
-0.7289999999999992
30
0
10
-13.495
20
-0.7929999999999993
30
0
10
-13.633
20
-0.8559999999999991
30
0
10
-13.82
20
-0.9489999999999991
30
0
10
-14.031
20
-1.064999999999999
30
0
10
-14.272
20
-1.2109999999999992
30
0
10
-14.43967804867145
20
-1.321160578487637
30
0
0
LINE
5
38
330
C
100
AcDbEntity
8
0
100
AcDbLine
10
-14.43967804867145
20
-1.321160578487637
30
0
11
-14.355135255282345
21
-2.0444704023251967
31
0
0
SPLINE
5
39
330
C
100
AcDbEntity
8
0
100
AcDbSpline
70
1
71
3
72
49
73
45
74
0
42
0.0000001
43
0.0000001
42
0.0000000001
40
0
40
0
40
0
40
0
40
1
40
2
40
3
40
4
40
5
40
6
40
7
40
8
40
9
40
10
40
11
40
12
40
13
40
14
40
15
40
16
40
17
40
18
40
19
40
20
40
21
40
22
40
23
40
24
40
25
40
26
40
27
40
28
40
29
40
30
40
31
40
32
40
33
40
34
40
35
40
36
40
37
40
38
40
39
40
40
40
41
40
42
40
42
40
42
40
42
10
-14.355135255282345
20
-2.0444704023251967
30
0
10
-14.166572212384342
20
-2.1129923689639387
30
0
10
-13.898398481446208
20
-2.1994784952196653
30
0
10
-13.666334572747742
20
-2.2636917514802697
30
0
10
-13.462927905970265
20
-2.311059756615357
30
0
10
-13.314118913973477
20
-2.340536593299429
30
0
10
-13.15048363304725
20
-2.367527236792945
30
0
10
-12.9591418640033
20
-2.3900067256468316
30
0
10
-12.780759165855542
20
-2.4011697450200247
30
0
10
-12.658048350134269
20
-2.4029178025190694
30
0
10
-12.40607431078871
20
-2.3863623352685543
30
0
10
-12.295220067997528
20
-2.3857819429928666
30
0
10
-12.251354177113525
20
-2.3887456597392216
30
0
10
-12.191790115204721
20
-2.3972381581304014
30
0
10
-12.130842358071462
20
-2.4115689257450597
30
0
10
-12.093888944056737
20
-2.4243925442927354
30
0
10
-12.068330871230618
20
-2.4368338028068384
30
0
10
-12.040416058309463
20
-2.454882714673678
30
0
10
-12.01857013048253
20
-2.473342276894393
30
0
10
-11.994007393594298
20
-2.507601172915127
30
0
10
-11.984169782860285
20
-2.5361006714202943
30
0
10
-11.98006927857453
20
-2.5577382744437926
30
0
10
-11.919799664602841
20
-2.8250444165948916
30
0
10
-11.853691781407674
20
-3.090966863521536
30
0
10
-11.84764518738076
20
-3.11214323480355
30
0
10
-11.843645845870228
20
-3.142026428533172
30
0
10
-11.85022054484055
20
-3.183665032417664
30
0
10
-11.861458142613328
20
-3.2099655342436213
30
0
10
-11.878303393738847
20
-3.2386227761646134
30
0
10
-11.895559295218238
20
-3.2612111329913835
30
0
10
-11.922826842661781
20
-3.2892553990080606
30
0
10
-11.970860111033463
20
-3.3294151441458726
30
0
10
-12.020277074629599
20
-3.3637366200602052
30
0
10
-12.058146952874301
20
-3.3860720699489253
30
0
10
-12.15747040212836
20
-3.4353047057536044
30
0
10
-12.390072708331555
20
-3.533595942132825
30
0
10
-12.498946571808279
20
-3.59023057686857
30
0
10
-12.653345219398823
20
-3.6802642240356778
30
0
10
-12.814245693504771
20
-3.786226658098328
30
0
10
-12.948362142975967
20
-3.88378575803903
30
0
10
-13.068113535259208
20
-3.9769125750480154
30
0
10
-13.22862565007859
20
-4.1105309158407755
30
0
10
-13.407186676764809
20
-4.27206406955469
30
0
10
-13.60802057344615
20
-4.469707045508272
30
0
10
-13.74577406088532
20
-4.615567450544534
30
0
0
LINE
5
3A
330
C
100
AcDbEntity
8
0
100
AcDbLine
10
-13.74577406088532
20
-4.615567450544534
30
0
11
-13.496703404592706
21
-5.299883454557242
31
0
0
SPLINE
5
3B
330
C
100
AcDbEntity
8
0
100
AcDbSpline
70
1
71
3
72
49
73
45
74
0
42
0.0000001
43
0.0000001
42
0.0000000001
40
0
40
0
40
0
40
0
40
1
40
2
40
3
40
4
40
5
40
6
40
7
40
8
40
9
40
10
40
11
40
12
40
13
40
14
40
15
40
16
40
17
40
18
40
19
40
20
40
21
40
22
40
23
40
24
40
25
40
26
40
27
40
28
40
29
40
30
40
31
40
32
40
33
40
34
40
35
40
36
40
37
40
38
40
39
40
40
40
41
40
42
40
42
40
42
40
42
10
-13.496703404592706
20
-5.299883454557242
30
0
10
-13.2974208499185
20
-5.323072772389343
30
0
10
-13.01653070329129
20
-5.345382535448251
30
0
10
-12.775913511279796
20
-5.354347294703469
30
0
10
-12.567065883780673
20
-5.35352968355606
30
0
10
-12.415470231063415
20
-5.3478942530287705
30
0
10
-12.250021289561104
20
-5.336420467438798
30
0
10
-12.058653035769334
20
-5.31416757008386
30
0
10
-11.882504296903608
20
-5.283891807566399
30
0
10
-11.762698037299108
20
-5.257293684332247
30
0
10
-11.52133394429016
20
-5.183075259355914
30
0
10
-11.413601639630219
20
-5.15694576390235
30
0
10
-11.370234679394029
20
-5.1497134226581345
30
0
10
-11.310317669571509
20
-5.144240586654024
30
0
10
-11.247707864667783
20
-5.144129546491853
30
0
10
-11.2087932047529
20
-5.14808545899203
30
0
10
-11.18105490142218
20
-5.154297264553441
30
0
10
-11.14973017036993
20
-5.165422066776593
30
0
10
-11.12421603433982
20
-5.178346031440624
30
0
10
-11.09241474406683
20
-5.206016917530029
30
0
10
-11.076269870739843
20
-5.231479499199129
30
0
10
-11.067289921415757
20
-5.251588216466446
30
0
10
-10.9469998439618
20
-5.4977899574556615
30
0
10
-10.821347970665904
20
-5.741298903363675
30
0
10
-10.81058075606117
20
-5.76051002227059
30
0
10
-10.799797678576127
20
-5.7886653990208945
30
0
10
-10.796592632793484
20
-5.830697858876714
30
0
10
-10.80146200653437
20
-5.85888099566756
30
0
10
-10.811244376936997
20
-5.890650560179933
30
0
10
-10.822825909780505
20
-5.916609529670165
30
0
10
-10.842891004126967
20
-5.950186188063571
30
0
10
-10.880368054939465
20
-6.000340656083853
30
0
10
-10.920537900833166
20
-6.045133328262194
30
0
10
-10.952236082384143
20
-6.075600118154817
30
0
10
-11.037528428034062
20
-6.146411245624553
30
0
10
-11.24119338990617
20
-6.295694812388051
30
0
10
-11.334071698698644
20
-6.375910894041609
30
0
10
-11.463545322823522
20
-6.499124451152705
30
0
10
-11.59567208482883
20
-6.639336857030334
30
0
10
-11.703674731265481
20
-6.765195620581703
30
0
10
-11.798721687277483
20
-6.883428763789741
30
0
10
-11.92409266725932
20
-7.050462046037305
30
0
10
-12.060588449464307
20
-7.2488200593371195
30
0
10
-12.210429235472981
20
-7.487451027252648
30
0
10
-12.310831835515865
20
-7.661147886647471
30
0
0
LINE
5
3C
330
C
100
AcDbEntity
8
0
100
AcDbLine
10
-12.310831835515865
20
-7.661147886647471
30
0
11
-11.910660779870005
21
-8.269578417930404
31
0
0
SPLINE
5
3D
330
C
100
AcDbEntity
8
0
100
AcDbSpline
70
1
71
3
72
49
73
45
74
0
42
0.0000001
43
0.0000001
42
0.0000000001
40
0
40
0
40
0
40
0
40
1
40
2
40
3
40
4
40
5
40
6
40
7
40
8
40
9
40
10
40
11
40
12
40
13
40
14
40
15
40
16
40
17
40
18
40
19
40
20
40
21
40
22
40
23
40
24
40
25
40
26
40
27
40
28
40
29
40
30
40
31
40
32
40
33
40
34
40
35
40
36
40
37
40
38
40
39
40
40
40
41
40
42
40
42
40
42
40
42
10
-11.910660779870005
20
-8.269578417930404
30
0
10
-11.711402087524455
20
-8.246184944829206
30
0
10
-11.432938385718545
20
-8.203115619590122
30
0
10
-11.196739645496802
20
-8.156348589348063
30
0
10
-10.993710086932705
20
-8.107389439546745
30
0
10
-10.847500334372032
20
-8.066945549326498
30
0
10
-10.689157127554893
20
-8.017625889404073
30
0
10
-10.508079101111045
20
-7.951840265296663
30
0
10
-10.343660545634
20
-7.88175789508245
30
0
10
-10.233217628612245
20
-7.828247502823322
30
0
10
-10.015475482668784
20
-7.70036725462237
30
0
10
-9.916672992569772
20
-7.650097303854198
30
0
10
-9.87614288703285
20
-7.633058802007911
30
0
10
-9.819103070805083
20
-7.613915673614082
30
0
10
-9.758206528919198
20
-7.599368811878967
30
0
10
-9.719428522492855
20
-7.59424375406481
30
0
10
-9.691005367769879
20
-7.593891226627848
30
0
10
-9.657959442945666
20
-7.597492178239913
30
0
10
-9.630152572389852
20
-7.604183811066979
30
0
10
-9.592827144522174
20
-7.623774942593634
30
0
10
-9.571245382902221
20
-7.644827913058144
30
0
10
-9.557870099932234
20
-7.662323678416447
30
0
10
-9.384044428207481
20
-7.874148218660107
30
0
10
-9.205622489824012
20
-8.082116033245647
30
0
10
-9.19071511796779
20
-8.098326223384579
30
0
10
-9.17372962300655
20
-8.123235919507207
30
0
10
-9.16091761731868
20
-8.163396254543834
30
0
10
-9.15915625782891
20
-8.19194266610024
30
0
10
-9.161348377388169
20
-8.225111847757885
30
0
10
-9.16663117816243
20
-8.25304197514713
30
0
10
-9.17841210498194
20
-8.290340899572286
30
0
10
-9.20331254072538
20
-8.347786250122063
30
0
10
-9.232069702126937
20
-8.400635334013126
30
0
10
-9.255887329812008
20
-8.437590991380508
30
0
10
-9.322550439426696
20
-8.526163164304629
30
0
10
-9.486298426156488
20
-8.718391145727574
30
0
10
-9.55817408659705
20
-8.81786420457384
30
0
10
-9.655742730666693
20
-8.967615196872428
30
0
10
-9.751972792631918
20
-9.134518687471544
30
0
10
-9.828039185409182
20
-9.281892036113199
30
0
10
-9.893257699149348
20
-9.418857526166436
30
0
10
-9.976728762311751
20
-9.610300942387884
30
0
10
-10.063800777086216
20
-9.834790283433545
30
0
10
-10.154570496863656
20
-10.101544586063373
30
0
10
-10.212209479353698
20
-10.293713857167024
30
0
0
LINE
5
3E
330
C
100
AcDbEntity
8
0
100
AcDbLine
10
-10.212209479353698
20
-10.293713857167024
30
0
11
-9.682511349544887
21
-10.793458268292344
31
0
0
SPLINE
5
3F
330
C
100
AcDbEntity
8
0
100
AcDbSpline
70
1
71
3
72
49
73
45
74
0
42
0.0000001
43
0.0000001
42
0.0000000001
40
0
40
0
40
0
40
0
40
1
40
2
40
3
40
4
40
5
40
6
40
7
40
8
40
9
40
10
40
11
40
12
40
13
40
14
40
15
40
16
40
17
40
18
40
19
40
20
40
21
40
22
40
23
40
24
40
25
40
26
40
27
40
28
40
29
40
30
40
31
40
32
40
33
40
34
40
35
40
36
40
37
40
38
40
39
40
40
40
41
40
42
40
42
40
42
40
42
10
-9.682511349544887
20
-10.793458268292344
30
0
10
-9.494018607208528
20
-10.724743152447907
30
0
10
-9.232993400465919
20
-10.618616617382548
30
0
10
-9.013946647257047
20
-10.518639020348756
30
0
10
-8.827680533682406
20
-10.424177732331923
30
0
10
-8.694738886883853
20
-10.351105723009002
30
0
10
-8.552037738017004
20
-10.26659902438646
30
0
10
-8.391011902196967
20
-10.16082719355018
30
0
10
-8.247187376992528
20
-10.054716374357614
30
0
10
-8.152061808797246
20
-9.977178472170847
30
0
10
-7.96968014536754
20
-9.802530458026357
30
0
10
-7.8851339376447624
20
-9.730830118001382
30
0
10
-7.84962567528743
20
-9.704904005597806
30
0
10
-7.798538083911463
20
-9.673122595820987
30
0
10
-7.742637753378965
20
-9.644924137594382
30
0
10
-7.706086932804918
20
-9.630994402659223
30
0
10
-7.678511226317865
20
-9.62409654706926
30
0
10
-7.645525622082581
20
-9.619979519836765
30
0
10
-7.616925092590267
20
-9.620078073169093
30
0
10
-7.576087750605576
20
-9.63053328716142
30
0
10
-7.550232579047817
20
-9.646041675334239
30
0
10
-7.533183027398908
20
-9.659981287544454
30
0
10
-7.315192748359134
20
-9.826009111249283
30
0
10
-7.093619517769144
20
-9.98722419579758
30
0
10
-7.075375648936831
20
-9.999559561622288
30
0
10
-7.053103428929288
20
-10.019880688951638
30
0
10
-7.031375161879086
20
-10.056003845112127
30
0
10
-7.023078024504668
20
-10.083374586998126
30
0
10
-7.01756171548771
20
-10.116155226632358
30
0
10
-7.01626098703558
20
-10.14455079152362
30
0
10
-7.019122633513916
20
-10.183561187310294
30
0
10
-7.030104065252132
20
-10.245200526672255
30
0
10
-7.0458982361468765
20
-10.303256914483997
30
0
10
-7.060551295492577
20
-10.344709150271846
30
0
10
-7.104991343577603
20
-10.446267419881963
30
0
10
-7.219994658815885
20
-10.671076755729485
30
0
10
-7.2669928354458655
20
-10.784444173418418
30
0
10
-7.3273965486037795
20
-10.952659486148075
30
0
10
-7.382542122980151
20
-11.137256251089122
30
0
10
-7.422571503174354
20
-11.29819924944962
30
0
10
-7.454445627685771
20
-11.446513241327093
30
0
10
-7.491516827407974
20
-11.652046027400646
30
0
10
-7.524470999897677
20
-11.890564417709482
30
0
10
-7.551276234355812
20
-12.171061261552055
30
0
10
-7.563044266827679
20
-12.371343049218176
30
0
0
LINE
5
40
330
C
100
AcDbEntity
8
0
100
AcDbLine
10
-7.563044266827679
20
-12.371343049218176
30
0
11
-6.932375226141151
21
-12.735459989628106
31
0
0
SPLINE
5
41
330
C
100
AcDbEntity
8
0
100
AcDbSpline
70
1
71
3
72
49
73
45
74
0
42
0.0000001
43
0.0000001
42
0.0000000001
40
0
40
0
40
0
40
0
40
1
40
2
40
3
40
4
40
5
40
6
40
7
40
8
40
9
40
10
40
11
40
12
40
13
40
14
40
15
40
16
40
17
40
18
40
19
40
20
40
21
40
22
40
23
40
24
40
25
40
26
40
27
40
28
40
29
40
30
40
31
40
32
40
33
40
34
40
35
40
36
40
37
40
38
40
39
40
40
40
41
40
42
40
42
40
42
40
42
10
-6.932375226141151
20
-12.735459989628106
30
0
10
-6.764810126342863
20
-12.62512768072185
30
0
10
-6.535295351122906
20
-12.46166524480542
30
0
10
-6.345209452090533
20
-12.313866899114226
30
0
10
-6.185748437901344
20
-12.178995905369254
30
0
10
-6.073241815454484
20
-12.077235107880243
30
0
10
-5.953875780410155
20
-11.962097148554069
30
0
10
-5.821583079702969
20
-11.822041297767324
30
0
10
-5.706106202152499
20
-11.685622491324834
30
0
10
-5.631426226787431
20
-11.588237167587256
30
0
10
-5.49423728855471
20
-11.37623670714771
30
0
10
-5.428505271150473
20
-11.28697136175562
30
0
10
-5.399933111587385
20
-11.253555322225157
30
0
10
-5.357551890337827
20
-11.210848975092723
30
0
10
-5.309661372446986
20
-11.170519106556526
30
0
10
-5.2773082019232085
20
-11.1485356501163
30
0
10
-5.252066557146502
20
-11.135464331553639
30
0
10
-5.220919535962475
20
-11.12385127548033
30
0
10
-5.193067209481564
20
-11.117351436282267
30
0
10
-5.150919505056606
20
-11.11810708944771
30
0
10
-5.122184782552081
20
-11.127234834108243
30
0
10
-5.102380107966753
20
-11.136866805067985
30
0
10
-4.851977133979675
20
-11.248147309283356
30
0
10
-4.599197681396363
20
-11.353918516857444
30
0
10
-4.578600847278958
20
-11.361714055603425
30
0
10
-4.552242603370667
20
-11.37635109690524
30
0
10
-4.522769451458963
20
-11.406489665490852
30
0
10
-4.508383837023382
20
-11.431209173926717
30
0
10
-4.495456485077156
20
-11.461834058769902
30
0
10
-4.487642350006173
20
-11.489164248909974
30
0
10
-4.481430444040979
20
-11.527783055523845
30
0
10
-4.477900859946525
20
-11.590293390958237
30
0
10
-4.47988057249335
20
-11.650427247796394
30
0
10
-4.484579113277552
20
-11.694141361243874
30
0
10
-4.504400325337774
20
-11.803210694937922
30
0
10
-4.564459110592553
20
-12.048481855724756
30
0
10
-4.584046119544805
20
-12.169631965424683
30
0
10
-4.604028521979726
20
-12.347243067535246
30
0
10
-4.615116696578716
20
-12.539581447439161
30
0
10
-4.616951069942369
20
-12.705417616818346
30
0
10
-4.613762462922315
20
-12.857084464828292
30
0
10
-4.602435281231772
20
-13.065626295056544
30
0
10
-4.579495043467922
20
-13.305315146468825
30
0
10
-4.540890715478839
20
-13.584432874068689
30
0
10
-4.506153380255933
20
-13.78202993528319
30
0
0
LINE
5
42
330
C
100
AcDbEntity
8
0
100
AcDbLine
10
-4.506153380255933
20
-13.78202993528319
30
0
11
-3.8085129599176986
21
-13.990889766472067
31
0
0
SPLINE
5
43
330
C
100
AcDbEntity
8
0
100
AcDbSpline
70
1
71
3
72
49
73
45
74
0
42
0.0000001
43
0.0000001
42
0.0000000001
40
0
40
0
40
0
40
0
40
1
40
2
40
3
40
4
40
5
40
6
40
7
40
8
40
9
40
10
40
11
40
12
40
13
40
14
40
15
40
16
40
17
40
18
40
19
40
20
40
21
40
22
40
23
40
24
40
25
40
26
40
27
40
28
40
29
40
30
40
31
40
32
40
33
40
34
40
35
40
36
40
37
40
38
40
39
40
40
40
41
40
42
40
42
40
42
40
42
10
-3.8085129599176986
20
-13.990889766472067
30
0
10
-3.670908980560219
20
-13.84488830783558
30
0
10
-3.4852778378027063
20
-13.632902273299011
30
0
10
-3.3344003729655673
20
-13.445251026022799
30
0
10
-3.210341042711716
20
-13.277241256732538
30
0
10
-3.1243347057539106
20
-13.152277622009871
30
0
10
-3.034738838378089
20
-13.012715519169687
30
0
10
-2.9383112065215684
20
-12.845926095600495
30
0
10
-2.8574073649838887
20
-12.686553675074087
30
0
10
-2.807198999251158
20
-12.574570997795643
30
0
10
-2.7225986773855793
20
-12.336647090757614
30
0
10
-2.6792244803722456
20
-12.234629057873969
30
0
10
-2.659128756121076
20
-12.195524558557127
30
0
10
-2.627738687605459
20
-12.144195584297115
30
0
10
-2.590439772571769
20
-12.093908499103105
30
0
10
-2.5640284198955037
20
-12.065056454984708
30
0
10
-2.5424816204326115
20
-12.046516351616445
30
0
10
-2.5148523262739797
20
-12.02803332956117
30
0
10
-2.489249728934361
20
-12.015285505846302
30
0
10
-2.448063855724214
20
-12.006300860727118
30
0
10
-2.417998678600847
20
-12.008555882798088
30
0
10
-2.396506556212245
20
-12.013360950459772
30
0
10
-2.127190176419901
20
-12.063894974399549
30
0
10
-1.856831907561555
20
-12.108520151821251
30
0
10
-1.8349924888176197
20
-12.11135560397691
30
0
10
-1.8059692007602544
20
-12.119519472565957
30
0
10
-1.7703400692354492
20
-12.14204867554316
30
0
10
-1.7506415099365062
20
-12.162784315430708
30
0
10
-1.7310000319505523
20
-12.189602450013995
30
0
10
-1.717093752305005
20
-12.21439388777827
30
0
10
-1.7021431793547572
20
-12.250539155358677
30
0
10
-1.6842928602197638
20
-12.310550538502035
30
0
10
-1.6723513876028433
20
-12.36952003257939
30
0
10
-1.6668421102756954
20
-12.413139384515572
30
0
10
-1.660975919638419
20
-12.523839826282567
30
0
10
-1.662852390250972
20
-12.776350180244616
30
0
10
-1.6539722908029706
20
-12.898751748183077
30
0
10
-1.6324561260273807
20
-13.076183579186845
30
0
10
-1.5988891344862899
20
-13.265894562208073
30
0
10
-1.5624296094765484
20
-13.427683631789622
30
0
10
-1.524350169554816
20
-13.574526936898323
30
0
10
-1.4652352577483967
20
-13.774835267234632
30
0
10
-1.3876373238867032
20
-14.002772891729572
30
0
10
-1.285704602764651
20
-14.265464194144885
30
0
10
-1.2063345985802594
20
-14.449724020191601
30
0
0
LINE
5
44
330
C
100
AcDbEntity
8
0
100
AcDbLine
10
-1.2063345985802594
20
-14.449724020191601
30
0
11
-0.47933277422824694
21
-14.492067054598683
31
0
0
SPLINE
5
45
330
C
100
AcDbEntity
8
0
100
AcDbSpline
70
1
71
3
72
49
73
45
74
0
42
0.0000001
43
0.0000001
42
0.0000000001
40
0
40
0
40
0
40
0
40
1
40
2
40
3
40
4
40
5
40
6
40
7
40
8
40
9
40
10
40
11
40
12
40
13
40
14
40
15
40
16
40
17
40
18
40
19
40
20
40
21
40
22
40
23
40
24
40
25
40
26
40
27
40
28
40
29
40
30
40
31
40
32
40
33
40
34
40
35
40
36
40
37
40
38
40
39
40
40
40
41
40
42
40
42
40
42
40
42
10
-0.47933277422824694
20
-14.492067054598683
30
0
10
-0.3791081814561996
20
-14.318267422658126
30
0
10
-0.247368094116019
20
-14.069186011493821
30
0
10
-0.14383290665666215
20
-13.851798189944967
30
0
10
-0.06186333094369323
20
-13.659707095259565
30
0
10
-0.006993903362249032
20
-13.51827744519677
30
0
10
0.04800165994380956
20
-13.361815027930996
30
0
10
0.10336578435691712
20
-13.177283692575804
30
0
10
0.14533504284333176
20
-13.003549466408074
30
0
10
0.16836505295112336
20
-12.883006450706478
30
0
10
0.19581593319980806
20
-12.631985636482693
30
0
10
0.21449399563425842
20
-12.522714734666634
30
0
10
0.22502991887754498
20
-12.480029909243404
30
0
10
0.24373658794052633
20
-12.422845466144183
30
0
10
0.268433105953135
20
-12.365312154071498
30
0
10
0.2874787979227861
20
-12.331146943441427
30
0
10
0.3041691585356384
20
-12.308137557039071
30
0
10
0.32679122326920784
20
-12.28378099350498
30
0
10
0.34876384881796907
20
-12.265472423749427
30
0
10
0.3867675497279809
20
-12.24723184488958
30
0
10
0.41654235998938743
20
-12.24249257554745
30
0
10
0.43856328430026587
20
-12.242211697469692
30
0
10
0.7122741541533247
20
-12.229274938823036
30
0
10
0.9856361550329209
20
-12.21034833122675
30
0
10
1.0075407896859783
20
-12.20807083683245
30
0
10
1.0376644689208478
20
-12.209321416439948
30
0
10
1.0775288043559947
20
-12.223026698644782
30
0
10
1.101478354087712
20
-12.23866060627045
30
0
10
1.1267750809511634
20
-12.26022621801684
30
0
10
1.1460238140360768
20
-12.281142390578418
30
0
10
1.1689070647138189
20
-12.312865518394249
30
0
10
1.200115803564401
20
-12.36714272004795
30
0
10
1.2253346934653555
20
-12.421768790675108
30
0
10
1.240754782337122
20
-12.462941850546665
30
0
10
1.2719921278162354
20
-12.5693055109172
30
0
10
1.3283991328623368
20
-12.815442159512507
30
0
10
1.3652676122508214
20
-12.932496485479472
30
0
10
1.4271224022246187
20
-13.100183649440515
30
0
10
1.5035349547033185
20
-13.277039867379523
30
0
10
1.5763228356559824
20
-13.426059746544755
30
0
10
1.6472402360167178
20
-13.56016314816483
30
0
10
1.7509559777422048
20
-13.741439304672886
30
0
10
1.8790282830017822
20
-13.945337525914509
30
0
10
2.038794177876812
20
-14.177440647036955
30
0
10
2.1585179935529473
20
-14.338429742999827
30
0
0
LINE
5
46
330
C
100
AcDbEntity
8
0
100
AcDbLine
10
2.1585179935529473
20
-14.338429742999827
30
0
11
2.8756883653905136
21
-14.21197325668014
31
0
0
SPLINE
5
47
330
C
100
AcDbEntity
8
0
100
AcDbSpline
70
1
71
3
72
49
73
45
74
0
42
0.0000001
43
0.0000001
42
0.0000000001
40
0
40
0
40
0
40
0
40
1
40
2
40
3
40
4
40
5
40
6
40
7
40
8
40
9
40
10
40
11
40
12
40
13
40
14
40
15
40
16
40
17
40
18
40
19
40
20
40
21
40
22
40
23
40
24
40
25
40
26
40
27
40
28
40
29
40
30
40
31
40
32
40
33
40
34
40
35
40
36
40
37
40
38
40
39
40
40
40
41
40
42
40
42
40
42
40
42
10
2.8756883653905136
20
-14.21197325668014
30
0
10
2.933130437838619
20
-14.019745034579788
30
0
10
3.0038773275533073
20
-13.746996290135938
30
0
10
3.054488628879864
20
-13.511591328042883
30
0
10
3.0899494490082304
20
-13.305774588597753
30
0
10
3.1107239421699755
20
-13.155503432237417
30
0
10
3.12815437635337
20
-12.99057562995964
30
0
10
3.139470299045485
20
-12.798250514871604
30
0
10
3.1402424008922942
20
-12.619520540164679
30
0
10
3.1348525015691395
20
-12.496915691217803
30
0
10
3.1036740561413283
20
-12.246330566877381
30
0
10
3.096649044816418
20
-12.135697618729528
30
0
10
3.0970571727026535
20
-12.091733617187035
30
0
10
3.1020719609417733
20
-12.031776533377723
30
0
10
3.1128346862547858
20
-11.970098630172146
30
0
10
3.1234879593339455
20
-11.932462108378802
30
0
10
3.13442209943598
20
-11.906223880919061
30
0
10
3.1508173733791964
20
-11.877306844550738
30
0
10
3.1679754772063644
20
-11.854424548489021
30
0
10
3.200748216463291
20
-11.82791139021624
30
0
10
3.2286274921346227
20
-11.816433324697963
30
0
10
3.2499900646382747
20
-11.811081643090631
30
0
10
3.5133396007108515
20
-11.73537152586474
30
0
10
3.774968317387162
20
-11.653913471564955
30
0
10
3.795757283425392
20
-11.646645810932997
30
0
10
3.8253573784929897
20
-11.640915682488611
30
0
10
3.867307821196672
20
-11.645058188609926
30
0
10
3.8942172349360162
20
-11.654747535966933
30
0
10
3.923805457583943
20
-11.669898017165124
30
0
10
3.947358939925266
20
-11.685811328247263
30
0
10
3.9769412263633566
20
-11.711402114266743
30
0
10
4.019825913740012
20
-11.7570190364405
30
0
10
4.056962664042773
20
-11.804356778010522
30
0
10
4.081462263476741
20
-11.840863895502528
30
0
10
4.136386750417426
20
-11.937156682014825
30
0
10
4.248036314879737
20
-12.163650334807516
30
0
10
4.310905584941822
20
-12.269046989791725
30
0
10
4.409764392375823
20
-12.417949428296698
30
0
10
4.5249030853093535
20
-12.57241651666687
30
0
10
4.630095308702341
20
-12.70063350515763
30
0
10
4.730027494092347
20
-12.814767454196367
30
0
10
4.872752723254662
20
-12.967238792357232
30
0
10
5.044394988785299
20
-13.136105404461317
30
0
10
5.253381036666733
20
-13.32510760495353
30
0
10
5.407004321942156
20
-13.454147006998726
30
0
0
LINE
5
48
330
C
100
AcDbEntity
8
0
100
AcDbLine
10
5.407004321942156
20
-13.454147006998726
30
0
11
6.075680400886881
21
-13.165708301861809
31
0
0
SPLINE
5
49
330
C
100
AcDbEntity
8
0
100
AcDbSpline
70
1
71
3
72
49
73
45
74
0
42
0.0000001
43
0.0000001
42
0.0000000001
40
0
40
0
40
0
40
0
40
1
40
2
40
3
40
4
40
5
40
6
40
7
40
8
40
9
40
10
40
11
40
12
40
13
40
14
40
15
40
16
40
17
40
18
40
19
40
20
40
21
40
22
40
23
40
24
40
25
40
26
40
27
40
28
40
29
40
30
40
31
40
32
40
33
40
34
40
35
40
36
40
37
40
38
40
39
40
40
40
41
40
42
40
42
40
42
40
42
10
6.075680400886881
20
-13.165708301861809
30
0
10
6.087243236017041
20
-12.96541456281151
30
0
10
6.09318294496957
20
-12.683702440499461
30
0
10
6.088141891808564
20
-12.442971080300945
30
0
10
6.0751822543605165
20
-12.234524329793253
30
0
10
6.060741854798936
20
-12.083512824071
30
0
10
6.039667480641141
20
-11.919010937291983
30
0
10
6.006325157290913
20
-11.729260339206999
30
0
10
5.965858478287704
20
-11.555169995159861
30
0
10
5.932339240401237
20
-11.437112972109512
30
0
10
5.844212307360184
20
-11.200472646567185
30
0
10
5.811862942454795
20
-11.094441902958467
30
0
10
5.802121272703992
20
-11.051568835999522
30
0
10
5.79317383158725
20
-10.992071413387592
30
0
10
5.789422542893214
20
-10.929573990775664
30
0
10
5.791109076372687
20
-10.890495152450777
30
0
10
5.795697533640808
20
-10.862442593567518
30
0
10
5.804982143331634
20
-10.830524009280477
30
0
10
5.816400727618676
20
-10.804301577416142
30
0
10
5.84217571836627
20
-10.770945170955592
30
0
10
5.8666564804798025
20
-10.753347094744237
30
0
10
5.88620903936306
20
-10.743213120148022
30
0
10
6.1249999999999964
20
-10.608811196359376
30
0
10
6.360790960636932
20
-10.469213120148021
30
0
10
6.379343519520191
20
-10.457347094744238
30
0
10
6.406824281633724
20
-10.444945170955592
30
0
10
6.448599272381317
20
-10.439301577416144
30
0
10
6.4770178566683585
20
-10.44252400928048
30
0
10
6.509302466359185
20
-10.45044259356752
30
0
10
6.5358909236273055
20
-10.460495152450777
30
0
10
6.570577457106778
20
-10.478573990775663
30
0
10
6.622826168412743
20
-10.513071413387593
30
0
10
6.669878727296
20
-10.55056883599952
30
0
10
6.7021370575451975
20
-10.580441902958468
30
0
10
6.777787692639809
20
-10.661472646567187
30
0
10
6.938660759598756
20
-10.856112972109512
30
0
10
7.024141521712289
20
-10.94416999515986
30
0
10
7.154674842709079
20
-11.066260339206998
30
0
10
7.302332519358853
20
-11.190010937291984
30
0
10
7.434258145201056
20
-11.290512824071001
30
0
10
7.5578177456394755
20
-11.378524329793255
30
0
10
7.731858108191429
20
-11.493971080300946
30
0
10
7.937817055030424
20
-11.618702440499463
30
0
10
8.184756763982952
20
-11.754414562811512
30
0
10
8.36399764778456
20
-11.84454772337417
30
0
0
LINE
5
4A
330
C
100
AcDbEntity
8
0
100
AcDbLine
10
8.36399764778456
20
-11.84454772337417
30
0
11
8.948130933340181
21
-11.409676604673528
31
0
0
SPLINE
5
4B
330
C
100
AcDbEntity
8
0
100
AcDbSpline
70
1
71
3
72
49
73
45
74
0
42
0.0000001
43
0.0000001
42
0.0000000001
40
0
40
0
40
0
40
0
40
1
40
2
40
3
40
4
40
5
40
6
40
7
40
8
40
9
40
10
40
11
40
12
40
13
40
14
40
15
40
16
40
17
40
18
40
19
40
20
40
21
40
22
40
23
40
24
40
25
40
26
40
27
40
28
40
29
40
30
40
31
40
32
40
33
40
34
40
35
40
36
40
37
40
38
40
39
40
40
40
41
40
42
40
42
40
42
40
42
10
8.948130933340181
20
-11.409676604673528
30
0
10
8.913191175717602
20
-11.21211523598959
30
0
10
8.854003492660903
20
-10.93662690924165
30
0
10
8.793581849493071
20
-10.703547040876963
30
0
10
8.732900411877912
20
-10.50370769758101
30
0
10
8.684023605271129
20
-10.3600969118582
30
0
10
8.625580547737888
20
-10.204889279873925
30
0
10
8.54937747162747
20
-10.027942702649867
30
0
10
8.469853580913712
20
-9.867877244771702
30
0
10
8.410012035254526
20
-9.760732532288447
30
0
10
8.26968756037128
20
-9.55079434674627
30
0
10
8.213757804520782
20
-9.455081952509662
30
0
10
8.194391513070746
20
-9.4156111182713
30
0
10
8.171964201464704
20
-9.359780878310099
30
0
10
8.1539011317081
20
-9.299833188521683
30
0
10
8.146530004131465
20
-9.261418783954527
30
0
10
8.144525413646669
20
-9.233064214358285
30
0
10
8.14619882337344
20
-9.199864821293255
30
0
10
8.151262309285853
20
-9.171715911715532
30
0
10
8.168650015101301
20
-9.133314509573484
30
0
10
8.188412499434886
20
-9.110545139512702
30
0
10
8.205100961187362
20
-9.09617519712116
30
0
10
8.406460063891984
20
-8.910327109269849
30
0
10
8.603701716769393
20
-8.720114779569096
30
0
10
8.619017695246132
20
-8.70429008989441
30
0
10
8.64289762940693
20
-8.685884961683069
30
0
10
8.68224506763418
20
-8.670759516071358
30
0
10
8.710640769234127
20
-8.667341310307117
30
0
10
8.74388129430286
20
-8.667601104754448
30
0
10
8.772071335884286
20
-8.671250975387418
30
0
10
8.809992156406988
20
-8.680843231164085
30
0
10
8.868788150091685
20
-8.702361389231852
30
0
10
8.92321990192694
20
-8.72799699712683
30
0
10
8.961497908057876
20
-8.749625548780603
30
0
10
9.053796345987026
20
-8.811025861123776
30
0
10
9.255220206762408
20
-8.963319749084977
30
0
10
9.35870417091598
20
-9.029289963296108
30
0
10
9.51387492035333
20
-9.117986290835926
30
0
10
9.686091317151392
20
-9.204348971861311
30
0
10
9.837638200805984
20
-9.271717674198388
30
0
10
9.978164086250972
20
-9.328862013549738
30
0
10
10.17413702119872
20
-9.401060412202106
30
0
10
10.403309349211495
20
-9.474932220581248
30
0
10
10.674890135607525
20
-9.550037989071516
30
0
10
10.8700856954948
20
-9.596405806135607
30
0
0
LINE
5
4C
330
C
100
AcDbEntity
8
0
100
AcDbLine
10
10.8700856954948
20
-9.596405806135607
30
0
11
11.338185411039747
21
-9.038546288442593
31
0
0
SPLINE
5
4D
330
C
100
AcDbEntity
8
0
100
AcDbSpline
70
1
71
3
72
49
73
45
74
0
42
0.0000001
43
0.0000001
42
0.0000000001
40
0
40
0
40
0
40
0
40
1
40
2
40
3
40
4
40
5
40
6
40
7
40
8
40
9
40
10
40
11
40
12
40
13
40
14
40
15
40
16
40
17
40
18
40
19
40
20
40
21
40
22
40
23
40
24
40
25
40
26
40
27
40
28
40
29
40
30
40
31
40
32
40
33
40
34
40
35
40
36
40
37
40
38
40
39
40
40
40
41
40
42
40
42
40
42
40
42
10
11.338185411039747
20
-9.038546288442593
30
0
10
11.258626672041677
20
-8.854367874647616
30
0
10
11.137502420289497
20
-8.599954990466264
30
0
10
11.024957533537581
20
-8.387092009969424
30
0
10
10.919825647763945
20
-8.206633464608778
30
0
10
10.839147395407421
20
-8.078165493515993
30
0
10
10.746486334857776
20
-7.940619399940732
30
0
10
10.631530633544706
20
-7.786016079356662
30
0
10
10.517236684652776
20
-7.648604677913081
30
0
10
10.434298904436762
20
-7.558148475180268
30
0
10
10.249341816473914
20
-7.386230251561293
30
0
10
10.172846857293088
20
-7.305996086644322
30
0
10
10.144899985928664
20
-7.27205536801698
30
0
10
10.110201866007097
20
-7.222902133393931
30
0
10
10.078800799953955
20
-7.168735971902404
30
0
10
10.062769390716815
20
-7.1330569315863945
30
0
10
10.054279820471006
20
-7.105928953463405
30
0
10
10.048251816282207
20
-7.0732385394938655
30
0
10
10.046687229983817
20
-7.044680667204164
30
0
10
10.054750275145972
20
-7.003304498909927
30
0
10
10.068729081053856
20
-6.976591337633327
30
0
10
10.081653766382827
20
-6.958760114760313
30
0
10
10.234725689808467
20
-6.73148498136738
30
0
10
10.38278468636563
20
-6.500912794106023
30
0
10
10.394038396071775
20
-6.481982553276868
30
0
10
10.413030128848137
20
-6.458566445868692
30
0
10
10.447828783975506
20
-6.434774564872721
30
0
10
10.474670783265154
20
-6.424899997837428
30
0
10
10.50707521840135
20
-6.417486996859145
30
0
10
10.535347111857709
20
-6.41453741377127
30
0
10
10.574457898173824
20
-6.415125966007935
30
0
10
10.63663146699893
20
-6.422504810060338
30
0
10
10.695507981955611
20
-6.434896580981219
30
0
10
10.737742086749876
20
-6.447114616511824
30
0
10
10.841712494834242
20
-6.485574390858148
30
0
10
11.072828336955038
20
-6.587311638318436
30
0
10
11.188736655855301
20
-6.6276385723664735
30
0
10
11.360179538466596
20
-6.678159241423108
30
0
10
11.54767042488501
20
-6.722478170900671
30
0
10
11.710668634627721
20
-6.753081824615076
30
0
10
11.860585018221167
20
-6.7762783314698325
30
0
10
12.067925573915971
20
-6.801336143907671
30
0
10
12.307956543580314
20
-6.82036595215671
30
0
10
12.58953741692917
20
-6.830816395405486
30
0
10
12.790164609744101
20
-6.830919167951222
30
0
0
LINE
5
4E
330
C
100
AcDbEntity
8
0
100
AcDbLine
10
12.790164609744101
20
-6.830919167951222
30
0
11
13.116995378450262
21
-6.180145602261195
31
0
0
SPLINE
5
4F
330
C
100
AcDbEntity
8
0
100
AcDbSpline
70
1
71
3
72
49
73
45
74
0
42
0.0000001
43
0.0000001
42
0.0000000001
40
0
40
0
40
0
40
0
40
1
40
2
40
3
40
4
40
5
40
6
40
7
40
8
40
9
40
10
40
11
40
12
40
13
40
14
40
15
40
16
40
17
40
18
40
19
40
20
40
21
40
22
40
23
40
24
40
25
40
26
40
27
40
28
40
29
40
30
40
31
40
32
40
33
40
34
40
35
40
36
40
37
40
38
40
39
40
40
40
41
40
42
40
42
40
42
40
42
10
13.116995378450262
20
-6.180145602261195
30
0
10
12.997106690289101
20
-6.019279249315677
30
0
10
12.820575709605246
20
-5.799657272139449
30
0
10
12.661974903245197
20
-5.618486677886566
30
0
10
12.518060256487518
20
-5.467137497351576
30
0
10
12.409929943848578
20
-5.360738082463122
30
0
10
12.288046262041178
20
-5.248268672803997
30
0
10
12.140535227138423
20
-5.124343313890181
30
0
10
11.997632836436967
20
-5.016993853100624
30
0
10
11.896070018863215
20
-4.948102677421293
30
0
10
11.676451402307201
20
-4.823472571660194
30
0
10
11.583515102845464
20
-4.763042080661373
30
0
10
11.54849427463569
20
-4.736461230571478
30
0
10
11.503395931024844
20
-4.696634864887951
30
0
10
11.460349708273952
20
-4.651170343479708
30
0
10
11.436522274797856
20
-4.620150133713457
30
0
10
11.422005399720428
20
-4.595711223386146
30
0
10
11.408600952882168
20
-4.565292137190794
30
0
10
11.400492641625299
20
-4.537864864476182
30
0
10
11.398796345282426
20
-4.49574452997232
30
0
10
11.406237871719838
20
-4.466527690918766
30
0
10
11.414702007493787
20
-4.446196473404801
30
0
10
11.511234604627377
20
-4.189746755739439
30
0
10
11.602129046036254
20
-3.9312449172141237
30
0
10
11.608713796568633
20
-3.9102296594135084
30
0
10
11.62179347873076
20
-3.8830649412199083
30
0
10
11.650167346253035
20
-3.8518892513024685
30
0
10
11.674008584102886
20
-3.836090663460929
30
0
10
11.703829997820778
20
-3.821404503858557
30
0
10
11.73065959805793
20
-3.8120144798375755
30
0
10
11.768851877553704
20
-3.8035675995308185
30
0
10
11.831051228330836
20
-3.796409334175051
30
0
10
11.89119845824801
20
-3.7948892245439976
30
0
10
11.93511181018425
20
-3.797038066493459
30
0
10
12.045149116812272
20
-3.8104839264529837
30
0
10
12.293497425407642
20
-3.856179852068067
30
0
10
12.415581451580934
20
-3.8686894705002444
30
0
10
12.594053937188258
20
-3.8783108987280666
30
0
10
12.786711631010004
20
-3.8781968316981423
30
0
10
12.952373891163088
20
-3.870385585896672
30
0
10
13.103598741861061
20
-3.8583837305661013
30
0
10
13.311129135277314
20
-3.8349500836349124
30
0
10
13.549078614888918
20
-3.7981119898654634
30
0
10
13.825479477423869
20
-3.743343721772206
30
0
10
14.020722439271392
20
-3.697175909305044
30
0
0
LINE
5
50
330
C
100
AcDbEntity
8
0
100
AcDbLine
10
14.020722439271392
20
-3.697175909305044
30
0
11
14.188664729800811
21
-2.988571666990843
31
0
0
CIRCLE
5
51
330
C
100
AcDbEntity
8
0
100
AcDbCircle
10
1.6286926083060732e-15
20
-3.3663058623202275e-16
30
0
40
0
0
ENDSEC
0
SECTION
2
OBJECTS
0
DICTIONARY
5
A
330
0
100
AcDbDictionary
281
1
3
ACAD_GROUP
350
B
0
DICTIONARY
5
B
330
A
100
AcDbDictionary
281
0
0
ENDSEC
0
EOF